<svg width="17" height="17" viewBox="0 0 17 17" fill="none" xmlns="http://www.w3.org/2000/svg">
<mask id="mask0_7791_5829" style="mask-type:alpha" maskUnits="userSpaceOnUse" x="0" y="0" width="17" height="17">
<rect width="17" height="17" fill="white"/>
</mask>
<g mask="url(#mask0_7791_5829)">
<path d="M14.1313 14.875C12.6556 14.875 11.1976 14.5533 9.75729 13.9099C8.31701 13.2665 7.0066 12.3545 5.82604 11.174C4.64549 9.9934 3.73351 8.68299 3.0901 7.24271C2.4467 5.80243 2.125 4.34444 2.125 2.86875C2.125 2.65625 2.19583 2.47917 2.3375 2.3375C2.47917 2.19583 2.65625 2.125 2.86875 2.125H5.7375C5.90278 2.125 6.05035 2.18108 6.18021 2.29323C6.31007 2.40538 6.38681 2.53819 6.41042 2.69167L6.87083 5.17083C6.89444 5.35972 6.88854 5.5191 6.85313 5.64896C6.81771 5.77882 6.75278 5.89097 6.65833 5.98542L4.94062 7.72083C5.17674 8.15764 5.45712 8.57969 5.78177 8.98698C6.10642 9.39427 6.46354 9.78681 6.85313 10.1646C7.2191 10.5306 7.60278 10.87 8.00417 11.1828C8.40556 11.4957 8.83056 11.7819 9.27917 12.0417L10.9437 10.3771C11.05 10.2708 11.1887 10.1911 11.3599 10.138C11.5311 10.0849 11.6993 10.0701 11.8646 10.0938L14.3083 10.5896C14.4736 10.6368 14.6094 10.7224 14.7156 10.8464C14.8219 10.9703 14.875 11.109 14.875 11.2625V14.1313C14.875 14.3438 14.8042 14.5208 14.6625 14.6625C14.5208 14.8042 14.3438 14.875 14.1313 14.875ZM4.26771 6.375L5.43646 5.20625L5.13542 3.54167H3.55938C3.6184 4.02569 3.70104 4.50382 3.80729 4.97604C3.91354 5.44826 4.06701 5.91458 4.26771 6.375ZM10.6073 12.7146C11.0677 12.9153 11.537 13.0747 12.0151 13.1927C12.4932 13.3108 12.9743 13.3875 13.4583 13.4229V11.8646L11.7937 11.5281L10.6073 12.7146Z" fill="white"/>
</g>
</svg>
