<svg width="17" height="17" viewBox="0 0 17 17" fill="none" xmlns="http://www.w3.org/2000/svg">
<path d="M1 16L2.05437 12.1481C1.40375 11.0206 1.06187 9.7425 1.0625 8.43187C1.06437 4.33437 4.39874 1 8.49561 1C10.4837 1.00063 12.35 1.775 13.7537 3.18C15.1568 4.585 15.9293 6.4525 15.9287 8.43875C15.9268 12.5369 12.5925 15.8713 8.49561 15.8713C7.25186 15.8706 6.02624 15.5588 4.94062 14.9663L1 16ZM5.12312 13.6206C6.17061 14.2425 7.17061 14.615 8.49311 14.6156C11.8981 14.6156 14.6718 11.8444 14.6737 8.4375C14.675 5.02375 11.9144 2.25625 8.49811 2.255C5.09062 2.255 2.31875 5.02625 2.3175 8.4325C2.31687 9.82313 2.72437 10.8644 3.40874 11.9537L2.78437 14.2337L5.12312 13.6206ZM12.24 10.2056C12.1937 10.1281 12.07 10.0819 11.8837 9.98875C11.6981 9.89562 10.785 9.44625 10.6144 9.38437C10.4444 9.3225 10.3206 9.29125 10.1962 9.4775C10.0725 9.66313 9.71623 10.0819 9.60811 10.2056C9.49998 10.3294 9.39123 10.345 9.20561 10.2519C9.01998 10.1588 8.42123 9.96313 7.71186 9.33C7.15999 8.8375 6.78686 8.22938 6.67874 8.04313C6.57061 7.8575 6.66749 7.75688 6.75999 7.66438C6.84374 7.58125 6.94561 7.4475 7.03874 7.33875C7.13311 7.23125 7.16374 7.15375 7.22624 7.02938C7.28811 6.90563 7.25749 6.79688 7.21061 6.70375C7.16374 6.61125 6.79249 5.69688 6.63811 5.325C6.48686 4.96313 6.33374 5.01187 6.21999 5.00625L5.86374 5C5.73999 5 5.53874 5.04625 5.36874 5.2325C5.19874 5.41875 4.71874 5.8675 4.71874 6.78188C4.71874 7.69625 5.38437 8.57937 5.47686 8.70312C5.56999 8.82687 6.78624 10.7031 8.64936 11.5075C9.09248 11.6988 9.43873 11.8131 9.70811 11.8987C10.1531 12.04 10.5581 12.02 10.8781 11.9725C11.235 11.9194 11.9769 11.5231 12.1319 11.0894C12.2869 10.655 12.2869 10.2831 12.24 10.2056Z" fill="white"/>
</svg>
