<svg xmlns="http://www.w3.org/2000/svg" width="478" height="348" viewBox="0 0 478 348">
    <defs>
        <linearGradient id="prefix__a" x1="49.386%" x2="50.546%" y1="15.834%" y2="80.154%">
            <stop offset="1%"/>
            <stop offset="97%" stop-color="#3F3D56" stop-opacity="0"/>
        </linearGradient>
        <linearGradient id="prefix__b" x1="51.22%" x2="47.102%" y1="63.785%" y2="17.22%">
            <stop offset="3%" stop-color="#FFF" stop-opacity="0"/>
            <stop offset="100%" stop-color="#FFF"/>
        </linearGradient>
        <linearGradient id="prefix__c" x1="120.65%" x2="38.187%" y1="34.357%" y2="52.256%">
            <stop offset="1%"/>
            <stop offset="97%" stop-color="#3F3D56" stop-opacity="0"/>
        </linearGradient>
        <linearGradient id="prefix__d" x1="223.424%" x2="-32.502%" y1="43.57%" y2="53.547%">
            <stop offset="1%"/>
            <stop offset="97%" stop-color="#3F3D56" stop-opacity="0"/>
        </linearGradient>
        <linearGradient id="prefix__e" x1="0%" x2="99.831%" y1="50.008%" y2="50.008%">
            <stop offset="0%" stop-color="#183866"/>
            <stop offset="100%" stop-color="#1A7FC1"/>
        </linearGradient>
        <linearGradient id="prefix__f" x1="50.423%" x2="49.94%" y1="48.831%" y2="50.171%">
            <stop offset="1%"/>
            <stop offset="97%" stop-color="#3F3D56" stop-opacity="0"/>
        </linearGradient>
        <linearGradient id="prefix__g" x1="78.365%" x2=".464%" y1="154.153%" y2="157.846%">
            <stop offset="3%" stop-color="#FFF" stop-opacity="0"/>
            <stop offset="100%" stop-color="#FFF"/>
        </linearGradient>
        <linearGradient id="prefix__h" x1="81.152%" x2="65.522%" y1="104.478%" y2="132.636%">
            <stop offset="3%" stop-color="#FFF" stop-opacity="0"/>
            <stop offset="100%" stop-color="#FFF"/>
        </linearGradient>
        <linearGradient id="prefix__i" x1="-16.119%" x2="96.605%" y1="156.678%" y2="363.636%">
            <stop offset="3%" stop-color="#FFF" stop-opacity="0"/>
            <stop offset="100%" stop-color="#FFF"/>
        </linearGradient>
        <linearGradient id="prefix__j" x1="30.824%" x2="58.119%" y1="49.745%" y2="50.108%">
            <stop offset="0%" stop-color="#FFF" stop-opacity="0"/>
            <stop offset="100%" stop-color="#FFF"/>
        </linearGradient>
        <linearGradient id="prefix__k" x1="47.671%" x2="50.593%" y1="36.41%" y2="53.448%">
            <stop offset="3%" stop-color="#FFF" stop-opacity="0"/>
            <stop offset="100%" stop-color="#FFF"/>
        </linearGradient>
        <linearGradient id="prefix__l" x1="49.388%" x2="52.319%" y1="46.435%" y2="63.473%">
            <stop offset="3%" stop-color="#FFF" stop-opacity="0"/>
            <stop offset="45%" stop-color="#FFF" stop-opacity=".45"/>
            <stop offset="100%" stop-color="#FFF"/>
        </linearGradient>
        <linearGradient id="prefix__m" x1="49.127%" x2="52.059%" y1="44.903%" y2="61.941%">
            <stop offset="3%" stop-color="#FFF" stop-opacity="0"/>
            <stop offset="100%" stop-color="#FFF"/>
        </linearGradient>
        <linearGradient id="prefix__n" x1="48.148%" x2="50.386%" y1="441.231%" y2="-41.517%">
            <stop offset="3%" stop-color="#FFF" stop-opacity="0"/>
            <stop offset="45%" stop-color="#FFF" stop-opacity=".45"/>
            <stop offset="100%" stop-color="#FFF"/>
        </linearGradient>
        <linearGradient id="prefix__o" x1="48.997%" x2="51.157%" y1="275.965%" y2="-206.783%">
            <stop offset="3%" stop-color="#FFF" stop-opacity="0"/>
            <stop offset="45%" stop-color="#FFF" stop-opacity=".45"/>
            <stop offset="100%" stop-color="#FFF"/>
        </linearGradient>
        <linearGradient id="prefix__p" x1="49.46%" x2="51.62%" y1="177.902%" y2="-304.891%">
            <stop offset="3%" stop-color="#FFF" stop-opacity="0"/>
            <stop offset="45%" stop-color="#FFF" stop-opacity=".45"/>
            <stop offset="100%" stop-color="#FFF"/>
        </linearGradient>
        <linearGradient id="prefix__q" x1="-.012%" x2="100.01%" y1="50.001%" y2="50.001%">
            <stop offset="0%" stop-color="#ECC4D7"/>
            <stop offset="16%" stop-color="#EDCBD5"/>
            <stop offset="42%" stop-color="#EFD4D1"/>
            <stop offset="70%" stop-color="#F2EAC9"/>
        </linearGradient>
        <linearGradient id="prefix__r" x1="21.7%" x2="57.545%" y1="68.635%" y2="46.789%">
            <stop offset="1%"/>
            <stop offset="97%" stop-color="#3F3D56" stop-opacity="0"/>
        </linearGradient>
        <linearGradient id="prefix__s" x1="39.702%" x2="139.493%" y1="1010.764%" y2="1010.764%">
            <stop offset="0%" stop-color="#ECC4D7"/>
            <stop offset="16%" stop-color="#EDCBD5"/>
            <stop offset="42%" stop-color="#EFD4D1"/>
            <stop offset="70%" stop-color="#F2EAC9"/>
        </linearGradient>
    </defs>
    <g fill="none">
        <rect width="59.867" height="5.086" x="327.634" y="342.371" fill="#1D2741" opacity=".18" rx="2.248"/>
        <path fill="#6979F8" d="M222.726 3.118c-18.294 5.658-34.45 16.53-50.168 27.472C130.77 59.7 90.11 90.346 50.577 122.53c-13.529 11.006-27.134 22.433-36.464 37.176-16.635 26.275-17.459 60.305-8.227 89.996 9.231 29.69 27.49 55.715 47.248 79.73 4.268 5.191 8.811 10.464 14.884 13.33 6.072 2.867 13.184 3.02 19.969 2.815 38.718-1.168 76.583-11.182 115.027-15.765 59.673-7.141 120.019-1.168 180.095.584 22.907.66 47.296.31 66.605-12.052 19.31-12.36 30.363-36.476 27.116-59.172-2.82-19.776-15.216-36.942-19.852-56.374-6.061-25.382 1.6-52.165-1.88-78.032-5.016-37.69-33.55-68.9-66.909-87.117-27.343-14.941-58.459-23.186-88.973-28.78-25.265-4.624-50.992-13.64-76.49-5.751z" opacity=".18"/>
        <path fill="#6979F8" d="M171.91 235.046H274.12V314.537H171.91z"/>
        <path fill="url(#prefix__a)" d="M171.91 235.046H274.12V314.537H171.91z"/>
        <path fill="#6979F8" d="M435.058 54.127V257.07c0 15.363-12.454 27.817-27.816 27.817H55.879c-15.363-.003-27.817-12.454-27.823-27.817V54.127c0-15.363 12.454-27.817 27.817-27.817h351.369c7.374-.003 14.448 2.924 19.664 8.136 5.217 5.212 8.152 12.283 8.152 19.657v.024z"/>
        <path fill="url(#prefix__b)" d="M435.059 54.127V257.07c0 15.363-12.455 27.817-27.817 27.817H55.879c-6.122.01-12.075-2.003-16.933-5.728-3.732-4.854-5.747-10.81-5.728-16.933V59.306c0-15.363 12.454-27.817 27.816-27.817h351.393c6.123-.018 12.078 1.997 16.933 5.728 3.713 4.854 5.717 10.799 5.699 16.91z"/>
        <path fill="url(#prefix__c)" d="M435.058 235.046v22.024c0 15.363-12.454 27.817-27.816 27.817H55.879c-7.378.002-14.454-2.928-19.672-8.143-5.217-5.216-8.151-12.29-8.151-19.668v-22.03h407.002z"/>
        <path fill="url(#prefix__d)" d="M381.37 250.064c.098 7.583-.829 15.145-2.757 22.48-.992 3.772-2.288 7.59-4.717 10.62-.499.63-1.05 1.216-1.647 1.752h-39.862c1.617-7.006 3.877-15.8 3.083-16.833-3.609-4.718-4.987-10.726-6.236-16.536-1.045-4.864-2.061-9.856-1.378-14.79.081-.584.18-1.168.297-1.688 1.7-7.789 14.446-9.418 19.923-9.494l4.671 9.494c0 4.59 19.759-12.197 23.221-8.513 1.986 2.114 3.235 5.168 4.023 8.513 1.174 5.069 1.326 10.855 1.378 14.995z"/>
        <path fill="#FFF" d="M340.34 244.283l-6.237-13.383c4.247-2.714 9-4.538 13.973-5.36.48-.136.992-.092 1.442.123.29.226.515.524.654.864 2.558 4.986 5.115 9.979 7.164 15.181.958 2.43 1.805 5.11 1.028 7.59-.952 3.049-4.005 4.859-6.82 6.365-8.916 4.817-8.525-5.6-11.205-11.38z"/>
        <path fill="url(#prefix__e)" d="M353.302 240.634c-1.857 3.071-3.077 6.481-4.77 9.646-.287.531-.719 1.138-1.32 1.074-.253-.045-.49-.154-.69-.315-1.821-1.246-3.525-2.655-5.09-4.21 0 3.44 2.095 6.487 4.086 9.295.13.212.308.39.52.52.185.076.384.11.584.1 2.334.019 4.629-.603 6.633-1.799.129-.06.238-.155.315-.274.064-.135.088-.285.07-.432-.064-3.358-.39-6.861.929-9.927.403-.946.957-1.827 1.279-2.808.21-.648.63-2.727-.41-2.955-.828-.204-1.798 1.524-2.136 2.085z" opacity=".09"/>
        <path fill="#6979F8" d="M310.047 316.587c.005.897-.162 1.786-.49 2.621-1.076 2.82-3.785 4.68-6.803 4.671H143.351c-3.015 0-5.72-1.856-6.802-4.67-.328-.836-.495-1.725-.49-2.622 0-1.933.764-3.787 2.13-5.155 1.365-1.367 3.218-2.137 5.15-2.138h159.403c1.935-.003 3.79.762 5.16 2.128 1.37 1.365 2.142 3.219 2.145 5.153v.012z"/>
        <path fill="url(#prefix__f)" d="M310.047 316.587c.005.897-.162 1.786-.49 2.621-1.076 2.82-3.785 4.68-6.803 4.671H143.351c-3.015 0-5.72-1.856-6.802-4.67-.328-.836-.495-1.725-.49-2.622 0-1.933.764-3.787 2.13-5.155 1.365-1.367 3.218-2.137 5.15-2.138h159.403c1.935-.003 3.79.762 5.16 2.128 1.37 1.365 2.142 3.219 2.145 5.153v.012z"/>
        <path fill="#6979F8" d="M309.527 319.208c-1.075 2.82-3.784 4.68-6.802 4.671H143.322c-3.015 0-5.72-1.856-6.802-4.67.362-.955.923-1.82 1.647-2.54 1.366-1.37 3.22-2.14 5.155-2.138h159.403c3.017 0 5.722 1.86 6.802 4.677z"/>
        <path fill="url(#prefix__g)" d="M89.388 136.63c-.004 16.931 13.283 30.884 30.193 31.706v15.812c-25.663-.805-46.05-21.841-46.05-47.517 0-25.676 20.387-46.713 46.05-47.517v15.812c-16.91.822-30.197 14.774-30.193 31.705z"/>
        <path fill="url(#prefix__h)" d="M168.675 136.63c.013 14.107-6.25 27.487-17.09 36.512l-10.201-12.075c10.297-8.54 14.135-22.619 9.598-35.203-4.537-12.585-16.476-20.975-29.853-20.98-.514 0-1.022 0-1.53.042V89.16h1.53c26.228.004 47.5 21.243 47.546 47.47z"/>
        <path fill="url(#prefix__i)" d="M151.584 173.165c-8.537 7.147-19.321 11.054-30.455 11.036-.514 0-1.022 0-1.53-.03V168.36c.508 0 1.016.035 1.53.035 7.398.01 14.566-2.574 20.255-7.305l10.2 12.075z"/>
        <path fill="url(#prefix__j)" d="M204.485 148.922H404.20000000000005V150.084H204.485z"/>
        <path fill="#6979F8" d="M202.301 107.144s37.994-5.681 47.6-22.707c9.604-17.027 29.258-20.962 44.959 11.35 15.7 32.313 41.053 35.373 50.215 24.454 9.161-10.919 20.961-50.215 37.118-51.09 16.156-.876 21.983 30.566 21.983 30.566v39.74H204.485l-2.184-32.313z"/>
        <path fill="url(#prefix__k)" d="M205.939 164.646H266.495V169.01399999999998H205.939z"/>
        <path fill="url(#prefix__l)" d="M205.939 177.509H266.495V181.87699999999998H205.939z"/>
        <path fill="url(#prefix__m)" d="M205.939 190.372H266.495V194.74H205.939z"/>
        <path fill="url(#prefix__n)" d="M294.153 164.646H301.72V169.01399999999998H294.153z"/>
        <path fill="url(#prefix__o)" d="M294.153 177.509H301.72V181.87699999999998H294.153z"/>
        <path fill="url(#prefix__p)" d="M294.153 190.372H301.72V194.74H294.153z"/>
        <path fill="url(#prefix__q)" d="M366.019 212.198s7.398-13.972 12.536-12.945c5.138 1.028 10.277 6.37 8.63 10.481-1.647 4.11-10.166 11.719-10.428 15.415-.263 3.696-6.423 2.055-6.423 2.055l-1.028-7.812s-3.702-3.288-3.287-7.194z"/>
        <path fill="#3F3D56" d="M379.256 195.96c1.518-.49 3.164-.274 4.718.059 1.553.332 3.24.858 4.355 2.043 1.583 1.682 1.705 4.233 2.634 6.353.8 1.833 2.236 3.398 2.68 5.348.337 1.685.013 3.435-.905 4.888-.92 1.436-2.184 2.618-3.679 3.439-1.308.759-2.738 1.308-4.005 2.137s-2.248 1.845-3.428 2.692c-1.142.922-2.578 1.405-4.046 1.36-.565-.036-1.101-.26-1.524-.636-.788-.76-.747-2.015-.66-3.107.117-1.32.23-2.64.339-3.964.802.04 1.605-.065 2.37-.31.776-.261 1.354-.915 1.519-1.716.157-1.168-1.034-2.202-2.225-2.336-1.191-.134-2.336.391-3.422.893-.455-.94.216-2.02.888-2.826.951-1.13 1.977-2.195 3.071-3.188.388-.285.687-.673.864-1.12.304-1.075-.776-1.969-1.238-2.815-.342-.716-.603-1.468-.776-2.242-.654-2.23.105-4.193 2.47-4.952z"/>
        <path fill="#6979F8" d="M385.37 269.478c-.293 1.933-.66 3.906-1.642 5.6-2.92 5.015-9.768 5.763-15.572 5.64-2.809-.052-5.897-.321-8.268-1.658-.911-.493-1.707-1.174-2.336-1.997-1.588-2.131-1.751-4.98-1.675-7.637.087-2.75.35-5.565.39-8.333.053-3.427-.244-6.784-1.646-9.873-.782-1.693 2.605-7.783 3.305-9.488 1.168-2.762-2.394-1.04-1.255-3.802 1.255-3.042 2.586-6.189 5.05-8.35 3.82-3.327 9.343-3.532 14.423-3.561.817 0 1.95.374 1.751 1.168 3.895 1.068 5.974 7.357 6.756 11.31 2.022 10.208 2.265 20.69.718 30.981z"/>
        <path fill="url(#prefix__r)" d="M364.197 278.797c-1.431.233-2.883.321-4.332.263-.911-.493-1.707-1.174-2.336-1.997-1.588-2.131-1.752-4.98-1.676-7.637.088-2.75.35-5.565.392-8.333l7.935-15.934s2.82 33.037.017 33.638z"/>
        <path fill="#3F3D56" d="M373.826 280.461l5.838-1.664s1.618 1.687 0 8.315c-1.617 6.627-2.125 52.714-2.125 52.714h-5.255l-4.671-42.823s-10.171 36.376-10.79 42.852h-6.219s2.172-58.01 6.943-62.763c0-.03 2.82 1.349 16.279 3.37z"/>
        <path fill="#6979F8" d="M354.756 242.748s-2.225 16.454-5.069 16.197c-2.843-.257-7.748-10.207-7.748-10.207-2.283.857-3.748 3.095-3.62 5.53 0 4.408 4.39 8.542 4.39 8.542s12.666 9.045 16.268 1.84c3.603-7.206 6.014-24.524 6.014-24.524s5.337-13.43-.04-12.513c-7.358 1.18-10.195 15.135-10.195 15.135z"/>
        <path fill="url(#prefix__s)" d="M338.36 247.395c-.933-2.373-1.023-4.995-.257-7.427.352.227.611.573.73.975l1.576 3.58c.527-.462.985-.997 1.36-1.589.393.235.596.69.509 1.139-.095.437-.232.863-.409 1.273-.275 1.14-.291 2.327-.047 3.474-.392.358-.807.69-1.243.993-.374.257-.864.747-1.168.426-.304-.321-.333-1.133-.485-1.495-.152-.362-.385-.893-.566-1.349z"/>
        <path fill="#3F3D56" d="M356.758 339.826l-.77 6.189h-13.862s.928-4.339 8.478-6.19h6.154zM377.779 339.826l.49 6.189h-15.181s.922-4.339 8.478-6.19h6.213z"/>
    </g>
</svg>
