<svg xmlns="http://www.w3.org/2000/svg" xmlns:xlink="http://www.w3.org/1999/xlink" width="1440" height="783" viewBox="0 0 1440 783">
    <defs>
        <linearGradient id="prefix__d" x1="50%" x2="50%" y1="0%" y2="100%">
            <stop offset="0%" stop-color="#7F61FA"/>
            <stop offset="100%" stop-color="#6979F8"/>
        </linearGradient>
        <linearGradient id="prefix__f" x1="96.735%" x2="1.817%" y1="33.462%" y2="67.051%">
            <stop offset="0%" stop-color="#6979F8"/>
            <stop offset="100%" stop-color="#4813B8"/>
        </linearGradient>
        <linearGradient id="prefix__g" x1="100%" x2="0%" y1="50%" y2="50%">
            <stop offset="0%" stop-color="#FE9A8B"/>
            <stop offset="40.85%" stop-color="#FD868C"/>
            <stop offset="73.151%" stop-color="#F9748F"/>
            <stop offset="100%" stop-color="#F78CA0"/>
        </linearGradient>
        <linearGradient id="prefix__i" x1="100%" x2="0%" y1="50%" y2="50%">
            <stop offset="0%" stop-color="#FE9A8B"/>
            <stop offset="40.85%" stop-color="#FD868C"/>
            <stop offset="73.151%" stop-color="#F9748F"/>
            <stop offset="100%" stop-color="#F78CA0"/>
        </linearGradient>
        <linearGradient id="prefix__j" x1="100%" x2="0%" y1="50%" y2="50%">
            <stop offset="0%" stop-color="#FE9A8B"/>
            <stop offset="40.85%" stop-color="#FD868C"/>
            <stop offset="73.151%" stop-color="#F9748F"/>
            <stop offset="100%" stop-color="#F78CA0"/>
        </linearGradient>
        <linearGradient id="prefix__k" x1="100%" x2="0%" y1="50%" y2="50%">
            <stop offset="0%" stop-color="#FE9A8B"/>
            <stop offset="40.85%" stop-color="#FD868C"/>
            <stop offset="73.151%" stop-color="#F9748F"/>
            <stop offset="100%" stop-color="#F78CA0"/>
        </linearGradient>
        <path id="prefix__a" d="M0 0H1440V783H0z"/>
        <path id="prefix__c" d="M515.136 334.61l-385 666.84c506.846 363.45 1037.592 373.503 1592.239 30.16l-412.228-238-795.011-459z"/>
        <path id="prefix__e" d="M263.716 385.991l-385 666.84c506.846 363.45 1037.593 373.503 1592.24 30.16l-412.229-238-795.011-459z"/>
    </defs>
    <g fill="none" fill-rule="evenodd">
        <mask id="prefix__b" fill="#fff">
            <use xlink:href="#prefix__a"/>
        </mask>
        <g mask="url(#prefix__b)">
            <g transform="translate(-82 -656)">
                <use fill="url(#prefix__d)" opacity=".092" transform="rotate(-30 926.255 808.201)" xlink:href="#prefix__c"/>
                <mask id="prefix__h" fill="#fff">
                    <use xlink:href="#prefix__e"/>
                </mask>
                <use fill="url(#prefix__f)" transform="rotate(-30 674.835 859.582)" xlink:href="#prefix__e"/>
                <path fill="url(#prefix__g)" d="M227.412 1346.306c-13.45-1.884-17.617-12.35-9.24-23.21l36.963-48.024c8.339-10.846 22.103-28.648 30.435-39.477l36.946-48.03c8.386-10.836 19.394-9.32 24.489 3.474l63.478 159.432c5.11 12.832-1.757 21.72-15.227 19.786l-59.447-8.481c-13.406-1.916-35.494-5.02-48.933-6.982l-59.464-8.488z" style="mix-blend-mode:color-burn" mask="url(#prefix__h)" opacity=".189" transform="rotate(-9 313.01 1275.432)"/>
                <path fill="url(#prefix__i)" d="M291.507 1296.565c-17.05-2.387-22.333-15.654-11.715-29.423l46.857-60.876c10.571-13.749 28.02-36.317 38.581-50.043l46.835-60.886c10.631-13.737 24.586-11.815 31.044 4.404l80.468 202.104c6.477 16.267-2.227 27.534-19.303 25.083l-75.358-10.752c-16.994-2.429-44.994-6.364-62.03-8.85l-75.38-10.76z" style="mix-blend-mode:color-burn" mask="url(#prefix__h)" opacity=".189" transform="rotate(-9 400.015 1206.722)"/>
                <path fill="url(#prefix__j)" d="M904.654 965.114c-10.052-1.407-13.166-9.229-6.906-17.346l27.624-35.888c6.232-8.106 16.518-21.41 22.745-29.503l27.61-35.894c6.268-8.098 14.495-6.965 18.302 2.597l47.438 119.147c3.819 9.59-1.313 16.232-11.38 14.787l-44.425-6.339c-10.019-1.432-26.526-3.751-36.569-5.217l-44.439-6.344z" style="mix-blend-mode:color-burn" mask="url(#prefix__h)" opacity=".126" transform="rotate(-128 968.623 912.148)"/>
                <path fill="url(#prefix__k)" d="M968.653 867.382c-5.78-.81-7.571-5.307-3.971-9.975l15.885-20.637c3.583-4.661 9.498-12.312 13.079-16.966l15.878-20.64c3.603-4.657 8.334-4.006 10.523 1.493l27.28 68.515c2.196 5.514-.755 9.334-6.544 8.503l-25.547-3.645c-5.761-.823-15.253-2.157-21.029-3l-25.554-3.648z" style="mix-blend-mode:color-burn" mask="url(#prefix__h)" opacity=".126" transform="rotate(-128 1005.438 836.924)"/>
            </g>
        </g>
    </g>
</svg>
