<svg xmlns="http://www.w3.org/2000/svg" width="442" height="347" viewBox="0 0 442 347">
    <defs>
        <linearGradient id="prefix__a" x1="0%" x2="100%" y1="49.998%" y2="49.998%">
            <stop offset="0%" stop-color="#010101" stop-opacity="0"/>
            <stop offset="95%" stop-color="#010101"/>
        </linearGradient>
        <linearGradient id="prefix__b" x1="50.92%" x2="46.45%" y1="-1.309%" y2="209.417%">
            <stop offset="0%" stop-color="#010101" stop-opacity="0"/>
            <stop offset="95%" stop-color="#010101"/>
        </linearGradient>
        <linearGradient id="prefix__c" x1="57.536%" x2="125.073%" y1="49.768%" y2="47.827%">
            <stop offset="0%" stop-color="#010101" stop-opacity="0"/>
            <stop offset="95%" stop-color="#010101"/>
        </linearGradient>
        <linearGradient id="prefix__d" x1="98.716%" x2="18.017%" y1="38.809%" y2="61.355%">
            <stop offset="0%" stop-color="#010101" stop-opacity="0"/>
            <stop offset="95%" stop-color="#010101"/>
        </linearGradient>
        <linearGradient id="prefix__e" x1="31.366%" x2="61.019%" y1="168.363%" y2="-20.002%">
            <stop offset="0%" stop-color="#FFF" stop-opacity="0"/>
            <stop offset="95%" stop-color="#FFF"/>
        </linearGradient>
        <linearGradient id="prefix__f" x1="-.003%" x2="100.013%" y1="49.98%" y2="49.98%">
            <stop offset="0%" stop-color="#010101" stop-opacity="0"/>
            <stop offset="95%" stop-color="#010101"/>
        </linearGradient>
        <linearGradient id="prefix__g" x1=".052%" x2="100.081%" y1="50.013%" y2="50.013%">
            <stop offset="0%" stop-color="#E5C6D6"/>
            <stop offset="42%" stop-color="#EAD4D0"/>
            <stop offset="100%" stop-color="#F0E9CB"/>
        </linearGradient>
        <linearGradient id="prefix__h" x1="31.529%" x2="88.392%" y1="23.385%" y2="103.915%">
            <stop offset="0%" stop-color="#010101" stop-opacity="0"/>
            <stop offset="95%" stop-color="#010101"/>
        </linearGradient>
        <linearGradient id="prefix__i" x1="-.041%" x2="99.955%" y1="49.998%" y2="49.998%">
            <stop offset="0%" stop-color="#E5C6D6"/>
            <stop offset="42%" stop-color="#EAD4D0"/>
            <stop offset="100%" stop-color="#F0E9CB"/>
        </linearGradient>
        <linearGradient id="prefix__j" x1="46.918%" x2="77.226%" y1="51.846%" y2="25.872%">
            <stop offset="0%" stop-color="#010101" stop-opacity="0"/>
            <stop offset="95%" stop-color="#010101"/>
        </linearGradient>
        <linearGradient id="prefix__k" x1="64.514%" x2="-87.668%" y1="42.638%" y2="133.431%">
            <stop offset="0%" stop-color="#010101" stop-opacity="0"/>
            <stop offset="95%" stop-color="#010101"/>
        </linearGradient>
        <linearGradient id="prefix__l" x1="20.022%" x2="300.336%" y1="58.357%" y2="-19.618%">
            <stop offset="0%" stop-color="#010101" stop-opacity="0"/>
            <stop offset="95%" stop-color="#010101"/>
        </linearGradient>
        <linearGradient id="prefix__m" x1="42.132%" x2="145.592%" y1="45.581%" y2="61.797%">
            <stop offset="0%" stop-color="#E5C6D6"/>
            <stop offset="42%" stop-color="#EAD4D0"/>
            <stop offset="100%" stop-color="#F0E9CB"/>
        </linearGradient>
        <linearGradient id="prefix__n" x1="74.499%" x2="9.981%" y1="121.761%" y2="-83.265%">
            <stop offset="0%" stop-color="#010101" stop-opacity="0"/>
            <stop offset="95%" stop-color="#010101"/>
        </linearGradient>
        <linearGradient id="prefix__o" x1="50.277%" x2="48.342%" y1="71.587%" y2="-3.369%">
            <stop offset="0%" stop-color="#010101" stop-opacity="0"/>
            <stop offset="95%" stop-color="#010101"/>
        </linearGradient>
        <linearGradient id="prefix__p" x1="37.934%" x2="100.158%" y1="42.254%" y2="76.082%">
            <stop offset="0%" stop-color="#010101" stop-opacity="0"/>
            <stop offset="95%" stop-color="#010101"/>
        </linearGradient>
        <linearGradient id="prefix__q" x1="-.01%" x2="100%" y1="49.958%" y2="49.958%">
            <stop offset="0%" stop-color="#010101" stop-opacity="0"/>
            <stop offset="95%" stop-color="#010101"/>
        </linearGradient>
        <linearGradient id="prefix__r" x1="-5.577%" x2="87.84%" y1="42.653%" y2="74.845%">
            <stop offset="0%" stop-color="#010101" stop-opacity="0"/>
            <stop offset="95%" stop-color="#010101"/>
        </linearGradient>
        <linearGradient id="prefix__s" x1="54.355%" x2="39.419%" y1="27.49%" y2="95.929%">
            <stop offset="0%" stop-color="#010101" stop-opacity="0"/>
            <stop offset="95%" stop-color="#010101"/>
        </linearGradient>
        <linearGradient id="prefix__t" x1="47.069%" x2="67.56%" y1="41.301%" y2="72.807%">
            <stop offset="0%" stop-color="#010101" stop-opacity="0"/>
            <stop offset="95%" stop-color="#010101"/>
        </linearGradient>
        <linearGradient id="prefix__u" x1="47.014%" x2="52.729%" y1="37.886%" y2="61.446%">
            <stop offset="0%" stop-color="#010101" stop-opacity="0"/>
            <stop offset="95%" stop-color="#010101"/>
        </linearGradient>
        <linearGradient id="prefix__v" x1="46.682%" x2="67.082%" y1="104.984%" y2="9.539%">
            <stop offset="0%" stop-color="#010101" stop-opacity="0"/>
            <stop offset="95%" stop-color="#010101"/>
        </linearGradient>
        <linearGradient id="prefix__w" x1="31.445%" x2="87.074%" y1="50.144%" y2="49.754%">
            <stop offset="0%" stop-color="#010101" stop-opacity="0"/>
            <stop offset="95%" stop-color="#010101"/>
        </linearGradient>
        <linearGradient id="prefix__x" x1="43.249%" x2="66.592%" y1="54.228%" y2="24.778%">
            <stop offset="0%" stop-color="#010101" stop-opacity="0"/>
            <stop offset="95%" stop-color="#010101"/>
        </linearGradient>
        <linearGradient id="prefix__y" x1="40.212%" x2="59.285%" y1="51.256%" y2="48.782%">
            <stop offset="0%" stop-color="#010101" stop-opacity="0"/>
            <stop offset="95%" stop-color="#010101"/>
        </linearGradient>
    </defs>
    <g fill="none">
        <path fill="#6979F8" d="M440.967 218.073c-1.471 22.5-7.226 46.417-24.16 61.344-14.417 12.72-34.363 16.684-51.496 25.406-15.577 7.962-29.595 20.11-44.522 29.206-1.584.986-3.202 1.92-4.82 2.83-8.948 4.958-18.32 8.557-28.66 9.319-4.413.296-8.845.154-13.23-.424-.702-.087-1.385-.173-2.095-.312-5.348-.735-10.644-1.869-15.948-2.942-24.496-5.023-49.25-8.692-74.15-10.99-2.657-.285-5.349-.51-8.014-.744-1.133-.112-2.241-.19-3.366-.277-12.781-.995-26.376-.57-39.632-1.592-1.633-.11-3.274-.25-4.924-.424-6.214-.57-12.36-1.729-18.354-3.461-34.614-10.341-64.9-52.855-83.47-81.342C7.39 217.892-5.53 186.056 4.223 156.911c7.424-22.092 26.289-37.953 41.726-55.381 24.23-27.362 42.056-61.439 72.758-81.238 39.018-25.216 89.38-21.59 135.633-17.03 18.553 1.818 37.754 3.851 53.754 13.37 18.501 10.99 30.088 30.287 43.882 46.85 27.786 33.332 67.574 58.652 82.535 99.383 6.456 17.532 7.641 36.595 6.456 55.208z" opacity=".24"/>
        <path fill="#6979F8" d="M403.818 236.462c-1.186 18.172-5.824 37.46-19.487 49.497-11.64 10.263-27.691 13.465-41.537 20.5-12.59 6.43-23.883 16.234-35.928 23.563-1.272.805-2.596 1.558-3.877 2.285-7.226 4.006-14.789 6.922-23.13 7.52-3.562.242-7.14.129-10.679-.338-.57-.07-1.116-.139-1.687-.251-4.327-.597-8.593-1.514-12.868-2.38-19.766-4.048-39.739-7.01-59.83-8.87-2.145-.224-4.326-.406-6.472-.588-.908-.095-1.8-.164-2.717-.234-10.306-.796-21.279-.458-31.974-1.28-1.327-.087-2.65-.2-3.972-.338-5.016-.47-9.976-1.411-14.815-2.812-27.915-8.342-52.404-42.644-67.366-65.61-13.5-20.768-23.927-46.486-16.043-70.006 5.988-17.843 21.209-30.624 33.67-44.668 19.54-22.075 33.938-49.55 58.704-65.54 31.499-20.345 72.109-17.42 109.43-13.742 14.962 1.47 30.46 3.115 43.371 10.79 14.928 8.87 24.273 24.455 35.401 37.798 22.421 26.904 54.517 47.334 66.631 80.2 5.175 14.105 6.136 29.49 5.175 44.504z" opacity=".24"/>
        <path fill="#6979F8" d="M77.093 97.722s.865 5.78 1.791 7.572c.926 1.791 11.864 19.34 13.456 19.54 1.592.198 55.529-26.713 55.529-26.713l1.099-3.99-71.875 3.591z"/>
        <path fill="url(#prefix__a)" d="M77.093 97.722s.865 5.78 1.791 7.572c.926 1.791 11.864 19.34 13.456 19.54 1.592.198 55.529-26.713 55.529-26.713l1.099-3.99-71.875 3.591z" opacity=".26"/>
        <path fill="#6979F8" d="M53.885 176.07s4.188-7.572 5.78-9.77c1.592-2.198 27.509-13.352 27.509-13.352s-9.77 11.362-11.56 12.158c-1.792.796-21.73 10.964-21.73 10.964z"/>
        <path fill="url(#prefix__b)" d="M320.815 250.048c-1.584 6.369-.796 15.152-.796 15.152l.77 68.829c-1.584.986-3.202 1.92-4.82 2.83-8.948 4.958-18.32 8.557-28.66 9.319-5.107.33-10.235.094-15.29-.701v-57.978c.005-5.932-4.098-11.077-9.883-12.391-18.942-4.327-58.773-13.205-62.087-12.902-4.388.398-11.587 10.384-15.975 15.948-4.387 5.564-2.985 10.159-2.985 10.159l.822 43.197c-2.657-.285-5.348-.51-8.013-.744-1.134-.112-2.241-.19-3.366-.277-12.781-.995-26.376-.57-39.633-1.592l-3.054-33.393 1.73-12.288s-.086-15.637-2.094-22.005c-2.007-6.37-.796-9.182-.796-13.569 0-4.387 37.902-18.328 37.902-18.328l-2.864-11.578s-29.915 7.987-34.7 7.2c-4.786-.788-1.982-8.386-1.982-8.386l45.465-43.05 9.57 34.267s-3.6 15.576 1.186 23.14c4.785 7.562 11.163 1.981 13.145-.39 1.981-2.371 8.722-6.291 8.722-6.291l22.802-81.039s62.996-2.803 74.488-3.227c11.492-.424 14.027 8.41 14.416 10.003.39 1.592-6.766 23.935-8.376 36.673-1.61 12.738 5.192 15.576 5.192 15.576 16.753 15.913 10.782 41.432 9.164 47.836z" opacity=".26"/>
        <rect width="99.419" height="141.578" x="200.124" y="123.224" fill="#6979F8" rx="8.575" transform="rotate(11.5 249.833 194.013)"/>
        <rect width="99.419" height="141.578" x="200.124" y="123.224" fill="url(#prefix__c)" rx="8.575" transform="rotate(11.5 249.833 194.013)"/>
        <rect width="99.419" height="141.578" x="198.135" y="122.029" fill="#6979F8" rx="8.575" transform="rotate(11.5 247.844 192.818)"/>
        <path fill="#6979F8" d="M254.55 115.747l18.766 3.818c5.873 1.195 9.665 6.924 8.47 12.797l-.744 3.655-40.058-8.15.742-3.646c.573-2.827 2.247-5.31 4.653-6.899 2.407-1.59 5.347-2.156 8.171-1.575z"/>
        <path fill="url(#prefix__d)" d="M252.905 117.507h19.15c5.993 0 10.851 4.859 10.851 10.852v3.73h-40.878v-3.722c-.003-2.884 1.143-5.65 3.184-7.688 2.04-2.037 4.809-3.179 7.693-3.172z" transform="rotate(11.5 262.467 124.798)"/>
        <path fill="url(#prefix__e)" d="M274.831 262.673L195.921 246.63 221.509 123.89 300.419 139.942z"/>
        <path fill="#FFF" d="M253.021 115.45l18.766 3.817c5.873 1.195 9.665 6.925 8.47 12.797l-.75 3.689-40.033-8.145.75-3.688c1.195-5.873 6.925-9.665 12.797-8.47z"/>
        <path fill="#6979F8" d="M295.807 150.24l-72.1-14.668 1.107-5.451 72.1 14.658-1.107 5.46zm-70.456-15.75l69.365 14.106.597-2.683-69.365-14.105-.597 2.683zM287.915 189.024l-72.1-14.659 6.594-32.407 72.1 14.66-6.594 32.406zm-70.482-15.749L286.8 187.38l6.057-29.672-69.366-14.114-6.057 29.681z"/>
        <path fill="#6979F8" d="M292.51 166.456l-72.1-14.659 1.999-9.839 72.1 14.66-2 9.838zm-70.456-15.749l69.365 14.105 1.446-7.104-69.375-14.114-1.436 7.113z"/>
        <path fill="#6979F8" d="M247.417 180.12l-16.857-3.462 6.464-31.766 16.857 3.461-6.464 31.767zm-15.213-3.583l14.123 2.873 5.91-29.966-14.122-2.873-5.91 29.966zM275.774 185.883l-16.865-3.461 6.464-31.767 16.857 3.461-6.456 31.767zm-15.212-4.491l14.122 2.873 5.919-29.058-14.123-2.873-5.918 29.058zM282.688 207.23l-71.217-14.485 1.523-7.502 71.226 14.477-1.532 7.51zm-69.573-15.575l68.492 13.966.969-4.776-68.492-13.924-.969 4.734zM283.363 217.407L207.17 201.91l1.229-6.057 76.193 15.498-1.229 6.057zm-74.583-16.58l73.458 14.936.675-3.306-73.458-14.944-.675 3.314zM221.353 212.544l-15.17-3.124.979-4.777 15.195 3.09-1.004 4.811zm-13.56-4.18l12.47 2.536.415-2.042-12.46-2.536-.425 2.042z"/>
        <path fill="#6979F8" d="M223.247 216.368H276.136V217.368H223.247z" transform="rotate(11.5 249.691 216.766)"/>
        <path fill="#6979F8" d="M219.847 219.908l-15.204-3.09.978-4.776 15.196 3.098-.97 4.768zm-13.56-4.18l12.47 2.545.415-2.051-12.46-2.536-.424 2.042z"/>
        <path fill="#6979F8" d="M221.74 223.777H274.629V224.777H221.74z" transform="rotate(11.5 248.184 224.175)"/>
        <path fill="#6979F8" d="M218.342 227.315l-15.204-3.089.978-4.777 15.195 3.09-.97 4.776zm-13.56-4.18l12.47 2.536.415-2.042-12.461-2.535-.424 2.042z"/>
        <path fill="#6979F8" d="M220.232 231.185H273.121V232.185H220.232z" transform="rotate(11.5 246.677 231.583)"/>
        <path fill="url(#prefix__f)" d="M273.16 197.253c-.63 3.046-3.824 4.855-5.148 7.667-.651 1.68-.966 3.47-.926 5.27l-1.687 39.563c-.2 4.526-.372 9.182 1.133 13.456 1.506 4.275 5.097 8.126 9.606 8.541 1.404.15 2.82-.153 4.04-.865 2.657-1.635 3.254-5.192 3.549-8.264 1.895-19.998 1.687-40.134 1.055-60.21.028-1.84-.214-3.674-.718-5.443-.986-2.838-4.43-7.165-7.416-8.126-5.235-1.722-2.968 5.712-3.487 8.411z" opacity=".26"/>
        <rect width="62.339" height="79.637" x="113.649" y="135.87" fill="#6979F8" rx="6.326" transform="rotate(-11 144.818 175.688)"/>
        <rect width="65.818" height="31.221" x="105.843" y="131.733" fill="#6979F8" rx="5.08" transform="rotate(-11 138.751 147.343)"/>
        <rect width="58.462" height="17.298" x="109.309" y="137.115" fill="#FFF" rx="3.375" transform="rotate(-11 138.54 145.764)"/>
        <rect width="12.418" height="9.242" x="117.737" y="170.257" fill="#FFF" rx="1.748" transform="rotate(-11 123.946 174.878)"/>
        <rect width="12.418" height="9.242" x="131.331" y="167.616" fill="#FFF" rx="1.748" transform="rotate(-11 137.54 172.237)"/>
        <rect width="12.418" height="9.242" x="144.924" y="164.967" fill="#FFF" rx="1.748" transform="rotate(-11 151.132 169.588)"/>
        <rect width="12.418" height="9.242" x="119.816" y="180.94" fill="#FFF" rx="1.748" transform="rotate(-11 126.025 185.56)"/>
        <rect width="12.418" height="9.242" x="133.41" y="178.299" fill="#FFF" rx="1.748" transform="rotate(-11 139.62 182.92)"/>
        <rect width="12.418" height="9.242" x="147.003" y="175.658" fill="#FFF" rx="1.748" transform="rotate(-11 153.211 180.28)"/>
        <rect width="12.418" height="9.242" x="121.887" y="191.631" fill="#FFF" rx="1.748" transform="rotate(-11 128.095 196.252)"/>
        <rect width="12.418" height="9.242" x="135.489" y="188.99" fill="#FFF" rx="1.748" transform="rotate(-11 141.698 193.611)"/>
        <rect width="12.418" height="9.242" x="149.081" y="186.341" fill="#FFF" rx="1.748" transform="rotate(-11 155.29 190.962)"/>
        <rect width="12.418" height="9.242" x="123.965" y="202.314" fill="#FFF" rx="1.748" transform="rotate(-11 130.174 206.935)"/>
        <rect width="12.418" height="9.242" x="137.559" y="199.673" fill="#FFF" rx="1.748" transform="rotate(-11 143.768 204.294)"/>
        <rect width="12.418" height="9.242" x="151.16" y="197.032" fill="#FFF" rx="1.748" transform="rotate(-11 157.37 201.653)"/>
        <rect width="12.331" height="7.113" x="158.767" y="162.266" fill="#FFF" rx="1.748" transform="rotate(-11 164.932 165.822)"/>
        <rect width="12.331" height="7.148" x="160.23" y="169.792" fill="#FFF" rx="1.748" transform="rotate(-11 166.395 173.366)"/>
        <rect width="12.331" height="7.148" x="161.742" y="177.538" fill="#FFF" rx="1.748" transform="rotate(-11 167.907 181.112)"/>
        <rect width="12.331" height="7.148" x="163.247" y="185.303" fill="#FFF" rx="1.748" transform="rotate(-11 169.413 188.877)"/>
        <rect width="12.331" height="10.202" x="165.119" y="193.406" fill="#FFF" rx="1.748" transform="rotate(-11 171.285 198.507)"/>
        <path fill="url(#prefix__g)" d="M277.756 195.081c.38 2.207 2.328 3.713 4.197 4.743 4.768 2.596 10.314 4.067 13.958 8.333 3.6 4.401 4.376 10.47 1.998 15.636-.406.822-1.003 1.67-1.877 1.731-.751-.03-1.464-.338-2-.865-5.289-4.285-8.988-10.22-10.504-16.857-.433-1.895-.736-3.929-1.921-5.417-1.913-2.406-5.617-2.362-7.789-.424-2.172 1.938 7.287 46.036 6.162 60.522-.113 1.419-.243 2.959.458 4.205.332.553.767 1.038 1.281 1.428 3.877 3.15 9.32 3.046 13.62 1.03 4.301-2.017 7.702-5.651 10.921-9.294 2.255-2.42 4.264-5.057 5.997-7.875 4.923-8.506 5.192-19.522 2.985-29.542-1.774-7.953-5.08-15.68-10.194-21.85-3.955-4.92-9.201-8.641-15.152-10.747-3.755-1.22-13.3-1.61-12.14 5.243z"/>
        <path fill="#FFF" d="M278.803 263.365H312.655V270.045H278.803z"/>
        <path fill="#6979F8" d="M315.969 269.933l4.82 64.096c-8.948 4.958-23.14 11.387-33.48 12.114-4.413.296-8.845.154-13.23-.424v-75.786h41.89z"/>
        <circle cx="333.631" cy="159.75" r="12.227" fill="#6979F8"/>
        <circle cx="329.754" cy="132.31" r="12.227" fill="#6979F8"/>
        <path fill="#6979F8" d="M135.823 69.668c5.52 7.49 9.945 15.727 13.145 24.463-14.045 7.174-39.157 19.176-53.383 25.96-.85.529-1.85.763-2.847.667-1.125-.234-1.895-1.238-2.596-2.18-3.796-5.43-7.43-10.996-10.903-16.702-2.146-3.505-3.583-4.396.06-6.758 2.77-1.8 5.755-3.332 8.654-4.88 11.794-6.3 35.158-16.52 47.87-20.57z"/>
        <path fill="url(#prefix__h)" d="M82.674 99.704s2.691-2.596 3.003-5.088l43.431-20.024s5.374 2.492 7.546 1.661l6.923 12.98s-1.428 3.03-1.428 4.872l-43.016 21.063s-4.863-.52-7.338-.104l-9.12-15.36z" opacity=".26"/>
        <path fill="#FFF" d="M130.285 106.16c-.158.37-.452.664-.822.822-2.041 1.139-4.196 2.061-6.43 2.751-.61.213-1.258.298-1.903.251-.096-.01-.19-.036-.277-.078-1.28-.346-2.042-1.73-2.596-2.976-3.037-6.378-6.057-12.747-9.069-19.124-.25-.537-.735-1.385-1.246-2.32l-.138-.224c-.707-1.182-1.287-2.435-1.731-3.739-.052-.077-.081-.167-.087-.26-.042-.067-.069-.144-.077-.224-.164-.456-.164-.955 0-1.41.649-1.394 6.991-2.865 8.437-3.376.427-.185.894-.262 1.358-.225.555.136 1.046.456 1.393.91 2.458 2.595 3.877 5.97 5.236 9.284 2.578 6.346 5.174 12.692 7.788 19.038.142.277.2.59.164.9z"/>
        <path fill="#6979F8" d="M59.803 172.09c-3.539 1.652-7.51 3.833-8.255 7.675 3.946-1.29 7.788 2.085 10.523 5.192l8.255 9.06c.328.439.771.777 1.28.978.659.108 1.334-.004 1.922-.32 8.653-3.548 17.246-7.269 25.778-11.163 1.108-.502 2.345-1.151 2.665-2.336.143-.889-.006-1.8-.424-2.596-2.5-6.404-6.594-28.67-15.818-25.173-3.738 1.428-6.923 6.862-9.9 9.397-4.81 4.024-10.418 6.672-16.026 9.286zM380.679 251.008c-11.272-7.49-23.683-13.103-36.75-16.623-.866-.242-1.965-.441-2.683.156-.488.533-.768 1.224-.788 1.947-1.188 8.359-2.371 16.724-3.548 25.095-.182.733-.14 1.505.121 2.215.537 1.09 1.913 1.402 3.098 1.635 9.757 1.91 18.733 6.658 25.805 13.647 2.596 2.596 6.057 5.71 9.371 4.188 2.648-1.212 3.262-4.62 3.54-7.52l2.18-23.277"/>
        <path fill="url(#prefix__i)" d="M185.84 230.17c2.717-3.884 6.922-7.787 11.535-6.792.753.098 1.434.497 1.886 1.108.614.986.113 2.258-.39 3.305l-9.25 19.21c-.96 2.119-2.065 4.169-3.305 6.136-5.27 7.926-14.798 12.677-18.726 21.34-2.466 5.45-2.752 12.408-7.58 15.939-2.597 1.92-6.058 2.319-9.338 2.38-2.712.04-5.425-.11-8.116-.45-1.542-.116-3.042-.552-4.405-1.281-1.881-1.33-3.155-3.354-3.54-5.625-.362-2.25-.556-4.523-.579-6.802-.787-11.967-7.191-23.035-7.935-35.011-.277-4.448.865-9.77 4.924-11.526 1.427-.606 3.054-.684 4.413-1.42 1.67-.865 2.82-2.7 4.647-3.201 1.826-.502 3.98.458 5.685-.424 1.514-.78 2.103-2.735 3.582-3.583 1.619-.934 3.644-.233 5.504-.216 4.56.052 8.134-4.11 9.597-8.42 1.462-4.31 1.497-8.99 2.803-13.352.718-2.371 2.363-4.993 4.829-4.88 1.791.077 3.21 1.678 3.678 3.409.344 1.759.33 3.569-.044 5.322-1.24 8.97-1.936 18.005-2.085 27.059-.052 3.323.104 9.155 4.707 6.473 3.297-1.947 5.348-5.625 7.503-8.697z"/>
        <path fill="#FFF" d="M129.524 283.233H170.186V290.787H129.524z"/>
        <path fill="#6979F8" d="M173.872 289.896v40.87c-1.133-.112-2.241-.19-3.366-.277-14.365-1.107-29.776-.458-44.556-2.016v-38.577h47.922zM278.405 186.714c-.28-.207-.614-.324-.96-.338-.533.097-.975.465-1.169.97-1.263 2.44-.199 5.39.865 7.926l8.957 21.036c2.838 6.672 5.71 13.396 9.882 19.315.505.93 1.362 1.619 2.38 1.912.683.07 1.369-.118 1.92-.528 1.731-1.15 2.44-3.418 2.302-5.495-.258-2.066-.842-4.078-1.73-5.962-2.787-6.923-5.478-12.98-8.87-19.505-3.591-6.948-6.542-15.048-13.577-19.331z"/>
        <path fill="url(#prefix__j)" d="M278.405 186.714c-.28-.207-.614-.324-.96-.338-.533.097-.975.465-1.169.97-1.263 2.44-.199 5.39.865 7.926l8.957 21.036c2.838 6.672 5.71 13.396 9.882 19.315.505.93 1.362 1.619 2.38 1.912.683.07 1.369-.118 1.92-.528 1.731-1.15 2.44-3.418 2.302-5.495-.258-2.066-.842-4.078-1.73-5.962-2.787-6.923-5.478-12.98-8.87-19.505-3.591-6.948-6.542-15.048-13.577-19.331z"/>
        <path fill="url(#prefix__k)" d="M281.113 201.468c1.307 1.635 2.796 3.116 4.44 4.413 3.314 2.856 6.628 5.919 8.653 9.986.767 1.636 1.449 3.312 2.042 5.019.268.7.7 1.523 1.385 1.506.683-.866.432-2.19.13-3.289-.975-3.633-2.252-7.18-3.817-10.6-2.331-4.657-5.028-9.121-8.065-13.352-.868-1.377-1.871-2.664-2.994-3.842-.5-.592-1.204-.972-1.973-1.065-1.661 0-3.063 2.596-2.907 4.258.26 2.362 1.791 5.166 3.106 6.966z"/>
        <ellipse cx="299.231" cy="233.84" fill="url(#prefix__l)" rx="3.868" ry="2.388" transform="rotate(-40.42 299.231 233.84)"/>
        <path fill="url(#prefix__m)" d="M287.465 189.56s-6.516-.994-8.307 1.203c-1.792 2.198-.07 8.437 5.642 10.566 3.528 1.326 6.877 3.088 9.968 5.244 0 0-3.85-15.662-7.303-17.012z"/>
        <path fill="#6979F8" d="M297.494 234.177s1.013-2.102 2.89-1.79l2.89 5.624s.234 5.07-3.201 1.73l-2.579-5.564z"/>
        <path fill="url(#prefix__n)" d="M297.494 234.177s1.013-2.102 2.89-1.79l2.89 5.624s.234 5.07-3.201 1.73l-2.579-5.564z"/>
        <path fill="url(#prefix__o)" d="M75.18 167.226c1.965-1.038 3.981-2.12 5.357-3.86 1.229-1.574 1.834-3.547 2.916-5.191 1.082-1.644 2.994-3.133 4.941-2.674 1.29.442 2.388 1.316 3.107 2.475 3.757 4.97 6.203 10.806 7.113 16.97-8.818-1.005-17.307 3.054-25.372 6.827-2.847 1.34-6.057 2.682-9.051 1.73-2.112-.675-3.808-2.397-5.34-3.937-2.422-2.414-1.445-2.899 1.325-4.327l15.004-8.013z" opacity=".26"/>
        <path fill="url(#prefix__p)" d="M119.858 107.985l9.64-4.231c.36.846.622 1.732.778 2.64-.103.423-6.334 3.538-8.376 3.313-2.042-.225-2.596-1.324-2.596-1.324l.554-.398z" opacity=".26"/>
        <path fill="url(#prefix__q)" d="M120.853 109.906c-1.28-.346-2.042-1.73-2.596-2.976-3.037-6.378-6.057-12.747-9.069-19.124-.25-.537-.735-1.385-1.246-2.32l-.138-.224c-1.021-2.242-1.731-3.713-1.731-3.713-.02-.089-.05-.176-.087-.26-.042-.067-.069-.144-.077-.224-.234-.51-.399-1.246 0-1.41.675-.26 2.232 1.47 2.232 1.47l12.115 26.54.597 2.241z" opacity=".26"/>
        <path fill="#6979F8" d="M197.054 23.035s-2.24 5.409-2.405 7.408c-.165 1.998.06 22.689 1.324 23.684 1.263.995 61.318 6.057 61.318 6.057l3.01-2.83-63.247-34.319z"/>
        <path fill="url(#prefix__r)" d="M197.054 23.035s-2.24 5.409-2.405 7.408c-.165 1.998.06 22.689 1.324 23.684 1.263.995 61.318 6.057 61.318 6.057l3.01-2.83-63.247-34.319z" opacity=".26"/>
        <path fill="#6979F8" d="M261.808 29.646c.808 9.255.3 18.578-1.506 27.691-15.732-1.185-43.414-4.006-59.103-5.599-1.005.02-1.99-.29-2.803-.882-.866-.779-.97-2.042-1.039-3.185-.432-6.651-.649-13.308-.649-19.972 0-4.119-.77-5.624 3.574-5.745 3.297-.096 6.646.155 9.934.337 13.361.744 38.612 4.206 51.592 7.355z"/>
        <path fill="url(#prefix__s)" d="M200.793 27.63s3.643-.813 5.192-2.778l47.507 5.495s3.297 4.924 5.581 5.348l-.865 14.71s-2.795 1.818-3.773 3.41l-47.645-4.43s-3.886-2.968-6.222-3.903l.225-17.852z" opacity=".26"/>
        <path fill="#FFF" d="M238.08 57.917c-.323.238-.728.337-1.125.277-2.336-.09-4.656-.423-6.923-.995-.62-.143-1.208-.405-1.73-.77-.08-.062-.148-.138-.2-.225-.917-.952-.865-2.536-.674-3.894.727-7.018 1.48-14.028 2.206-21.045.061-.589.096-1.567.147-2.596V28.4c.013-1.377.173-2.75.476-4.093-.01-.09.01-.183.061-.26-.006-.08.009-.16.043-.233.11-.473.38-.895.762-1.194 1.28-.865 7.459 1.194 8.956 1.514.464.056.905.232 1.28.51.402.404.656.932.719 1.498.761 3.461.199 7.122-.364 10.66-1.09 6.733-2.177 13.488-3.262 20.267-.032.315-.162.611-.372.848z"/>
        <path fill="url(#prefix__t)" d="M228.233 54.049l10.436 1.402c-.132.913-.37 1.807-.71 2.665-.312.303-7.252-.277-8.878-1.532-1.627-1.254-1.523-2.474-1.523-2.474l.675-.061z" opacity=".26"/>
        <path fill="url(#prefix__u)" d="M228.085 56.204c-.917-.952-.865-2.536-.675-3.894.727-7.018 1.48-14.028 2.207-21.045.06-.589.095-1.567.147-2.596V28.4c.294-2.44.485-4.05.485-4.05s0-.147.06-.259c-.006-.08.01-.16.044-.234.069-.553.311-1.272.761-1.194.71.13 1.142 2.414 1.142 2.414l-3.461 28.972-.71 2.155z" opacity=".26"/>
        <path fill="#6979F8" d="M362.342 181.27s5.616 1.628 7.624 1.576c2.008-.052 22.542-2.596 23.364-3.929.822-1.333-.718-61.612-.718-61.612l-3.15-2.683-27.12 66.649z"/>
        <path fill="url(#prefix__v)" d="M362.342 181.27s5.616 1.628 7.624 1.576c2.008-.052 22.542-2.596 23.364-3.929.822-1.333-.718-61.612-.718-61.612l-3.15-2.683-27.12 66.649z" opacity=".26"/>
        <path fill="#6979F8" d="M361.771 116.18c9.11-1.824 18.434-2.349 27.691-1.558.563 15.767.805 43.588.96 59.363.114.995-.098 2-.605 2.864-.684.917-1.93 1.194-3.055 1.393-6.559 1.154-13.153 2.1-19.781 2.838-4.085.459-5.504 1.385-6.101-2.916-.459-3.262-.58-6.62-.761-9.908-.684-13.352-.07-38.784 1.652-52.076z"/>
        <path fill="url(#prefix__w)" d="M366.496 177.065s-1.211-3.53-3.332-4.863l.225-47.827s4.535-3.825 4.7-6.144l14.71-.788s2.111 2.597 3.807 3.375l.866 47.888s-2.527 4.188-3.202 6.611l-17.774 1.748z" opacity=".26"/>
        <path fill="#FFF" d="M392.49 136.645c.27.298.412.69.399 1.09.173 2.333.095 4.677-.234 6.993-.063.641-.257 1.262-.571 1.825-.05.084-.114.157-.19.217-.866 1.012-2.432 1.116-3.8 1.107-7.06 0-14.104.07-21.157.122-.597 0-1.575.077-2.596.147h-.268c-1.37.139-2.75.139-4.119 0-.087.027-.18.027-.268 0-.08.02-.163.02-.242 0-.482-.06-.93-.28-1.273-.623-.977-1.177.373-7.546.52-9.078.013-.465.14-.92.372-1.324.358-.44.856-.745 1.41-.865 3.375-1.142 7.053-.987 10.635-.822 6.81.337 13.647.692 20.5 1.012.308-.023.615.047.883.2z"/>
        <path fill="url(#prefix__x)" d="M389.739 146.865l.234-10.531c.921.031 1.836.17 2.725.415.338.268.528 7.234-.536 8.991-1.064 1.757-2.293 1.791-2.293 1.791l-.13-.666z" opacity=".26"/>
        <path fill="url(#prefix__y)" d="M391.894 146.778c-.866 1.013-2.432 1.117-3.8 1.108-7.06 0-14.104.07-21.157.121-.597 0-1.575.078-2.596.147H359.72c-.079.021-.162.021-.242 0-.554 0-1.298-.164-1.272-.623.06-.727 2.285-1.402 2.285-1.402l29.179.243 2.224.406z" opacity=".26"/>
        <path fill="#6979F8" d="M131.453 153.147l-.181-.865.925-1.333c2.233-3.158 3.202-4.785 2.9-6.412-.056-.592-.377-1.126-.873-1.453-.497-.327-1.115-.41-1.68-.226-.835.197-1.575.677-2.094 1.359l-.675-.935c.71-.892 1.711-1.505 2.83-1.73.85-.25 1.766-.122 2.515.352.749.474 1.257 1.247 1.396 2.123.389 1.981-.736 3.868-2.596 6.498l-.701.97 4.828-.944.242 1.203-6.836 1.393zM140.583 150.283c.394-.054.783-.147 1.16-.277.817-.27 1.53-.787 2.041-1.48.646-.914.952-2.025.866-3.14h-.052c-.473.875-1.322 1.484-2.302 1.652-.865.19-1.769.01-2.495-.497-.726-.506-1.208-1.292-1.33-2.168-.233-.99-.054-2.034.495-2.89.55-.856 1.424-1.453 2.421-1.653 2.198-.433 3.912 1.081 4.448 3.833.468 1.845.155 3.801-.865 5.409-.691.969-1.683 1.684-2.821 2.033-.426.16-.866.276-1.315.346l-.251-1.168zm-.693-6.282c.046.603.347 1.157.829 1.523.481.366 1.096.507 1.69.39.86-.145 1.582-.734 1.895-1.55.05-.181.05-.373 0-.554-.364-1.834-1.316-3.106-2.839-2.812-1.211.216-1.912 1.454-1.575 3.003zM153.286 137.684L153.476 138.644 150.716 149.374 149.219 149.669 152.005 139.285 152.005 139.285 146.752 140.314 146.476 138.99zM156.92 146.406c.808.285 1.675.356 2.518.208 1.87-.372 2.216-1.679 2.025-2.596-.311-1.506-1.8-1.878-3.202-1.61l-.813.165-.216-1.09.813-.165c1.056-.208 2.293-1.012 2.042-2.284-.173-.866-.865-1.515-2.206-1.255-.764.179-1.46.572-2.008 1.133l-.588-.986c.714-.699 1.616-1.177 2.596-1.376 2.12-.415 3.331.65 3.582 1.956.217 1.196-.388 2.39-1.48 2.925 1.414-.076 2.67.896 2.951 2.284.338 1.73-.71 3.461-3.288 3.998-.978.209-1.995.149-2.942-.173l.216-1.134z"/>
        <path fill="#6979F8" d="M295.971 104.29v-8.22c-11.25-.909-17.791-7.321-18.726-16h8.238c1.22 5.607 5.244 8.86 10.488 9.674V67.868c-12.452-3.608-17.307-8.125-17.307-16.528 0-9.129 7.304-15.186 17.307-15.818v-6.144h5.33v6.23c12.453 1.177 16.442 8.948 17.04 14.556h-8.049c-1.03-3.704-3.28-7.321-8.99-8.316V61.55c14.33 3.972 18.449 9.753 18.449 17.8 0 10.03-6.923 15.905-18.45 16.719v8.22h-5.33zm0-44.279V41.666c-6.74.545-9.172 4.43-9.172 8.766 0 4.335 2.154 7.217 9.172 9.58zm5.33 9.398V89.83c6.465-.632 9.926-3.79 9.926-9.666 0-4.794-2.155-8.134-9.925-10.756z" opacity=".24"/>
        <path fill="#FFF" d="M298.55 103.667v-8.229c-11.25-.865-17.783-7.312-18.717-15.991h8.238c1.211 5.607 5.235 8.86 10.479 9.674V67.245c-12.444-3.608-17.307-8.125-17.307-16.528 0-9.129 7.304-15.186 17.307-15.818v-6.144h5.339v6.23c12.452 1.177 16.441 8.948 17.038 14.556h-8.047c-1.039-3.704-3.28-7.321-8.991-8.316v19.703c14.321 3.972 18.44 9.753 18.44 17.8 0 10.03-6.922 15.905-18.44 16.71v8.23h-5.34zm0-44.279V41.043c-6.741.545-9.173 4.43-9.173 8.766 0 4.335 2.155 7.225 9.173 9.57v.01zm5.339 9.398v20.422c6.464-.632 9.917-3.8 9.917-9.666 0-4.794-2.146-8.134-9.917-10.756z"/>
        <path fill="#6979F8" d="M205.56 107.579v-5.314c-7.25-.588-11.482-4.733-12.114-10.332h5.322c.65 3.336 3.39 5.865 6.767 6.248v-14.13c-8.04-2.329-11.18-5.253-11.18-10.68 0-5.892 4.716-9.803 11.18-10.21v-3.972h3.461v4.032c8.048.753 10.644 5.772 11.007 9.398h-5.192c-.59-2.847-2.922-5.006-5.806-5.374v12.72c9.25 2.597 11.915 6.31 11.915 11.501 0 6.481-4.473 10.272-11.915 10.8v5.313h-3.444zm0-28.556V67.167c-4.326.347-5.927 2.856-5.927 5.66 0 2.803 1.359 4.63 5.928 6.152v.044zm3.462 6.057v13.153c4.18-.407 6.412-2.449 6.412-6.24-.017-3.097-1.41-5.252-6.43-6.948l.018.035z" opacity=".24"/>
        <path fill="#FFF" d="M207.23 107.172v-5.313c-7.25-.58-11.482-4.725-12.114-10.332h5.313c.652 3.339 3.395 5.868 6.776 6.247V83.652c-8.04-2.336-11.189-5.252-11.189-10.678 0-5.893 4.716-9.804 11.189-10.22v-3.963h3.461v4.05c8.048.761 10.644 5.78 11.007 9.397h-5.192c-.598-2.84-2.927-4.993-5.806-5.365v12.72c9.25 2.597 11.916 6.3 11.916 11.492 0 6.482-4.474 10.28-11.916 10.8v5.313l-3.444-.026zm0-28.556v-11.89c-4.326.355-5.927 2.864-5.927 5.66 0 2.794 1.42 4.672 5.928 6.187v.043zm3.462 6.057v13.188c4.171-.407 6.412-2.449 6.412-6.248-.017-3.115-1.402-5.278-6.43-6.966l.018.026z"/>
        <path fill="#6979F8" d="M148.89 69.313v-4.49c-6.135-.503-9.718-4.007-10.228-8.74h4.5c.547 2.824 2.868 4.963 5.728 5.278v-11.95c-6.802-1.973-9.467-4.44-9.467-9.034 0-4.985 3.99-8.299 9.467-8.654v-3.34h2.916v3.4c6.802.641 9 4.89 9.311 7.953h-4.405c-.5-2.405-2.47-4.229-4.906-4.543v10.765c7.788 2.172 10.073 5.33 10.073 9.726 0 5.478-3.782 8.654-10.073 9.138v4.491h-2.916zm0-24.229v-9.986c-3.687.294-5.01 2.414-5.01 4.785s1.176 3.92 5.01 5.236v-.035zm2.916 5.131v11.163c3.53-.346 5.417-2.076 5.417-5.287 0-2.579-1.168-4.404-5.417-5.84v-.036z" opacity=".24"/>
        <path fill="#FFF" d="M150.3 68.967v-4.49c-6.135-.494-9.717-3.999-10.228-8.74h4.5c.546 2.825 2.867 4.968 5.728 5.287v-11.95c-6.801-1.974-9.458-4.449-9.458-9.035 0-4.993 3.99-8.298 9.458-8.653v-3.35h2.917v3.41c6.801.64 8.999 4.89 9.31 7.944h-4.395c-.507-2.403-2.48-4.223-4.915-4.534v10.756c7.788 2.172 10.08 5.339 10.08 9.735 0 5.478-3.79 8.653-10.08 9.13v4.49H150.3zm0-24.186v-10.03c-3.686.295-5.01 2.424-5.01 4.795 0 2.37 1.186 3.946 5.01 5.235zm2.917 5.132V61.11c3.53-.337 5.425-2.068 5.425-5.278 0-2.657-1.177-4.492-5.425-5.92z"/>
    </g>
</svg>
