<svg xmlns="http://www.w3.org/2000/svg" width="517" height="412" viewBox="0 0 517 412">
    <g fill="none">
        <circle cx="387.852" cy="29.631" r="16.647" fill="#2F2E41"/>
        <path fill="#9F616A" d="M376.088 39.788S373.68 70.11 370.79 70.11c-2.89 0 33.709-1.427 33.709-1.427s-15.41-19.977-7.705-26.398c7.705-6.42-20.707-2.497-20.707-2.497z"/>
        <path fill="#000" d="M376.088 39.788S373.68 70.11 370.79 70.11c-2.89 0 33.709-1.427 33.709-1.427s-15.41-19.977-7.705-26.398c7.705-6.42-20.707-2.497-20.707-2.497z" opacity=".1"/>
        <path fill="#3F3D56" d="M308.75 388.444c-69.057 0-128.497-48.781-141.97-116.511-13.472-67.73 22.775-135.545 86.575-161.972 63.8-26.427 137.384-4.106 175.75 53.312 38.366 57.419 30.83 133.943-18.002 182.774-27.086 27.235-63.942 42.501-102.353 42.397zm0-288c-78.988 0-143.25 64.261-143.25 143.25 0 78.988 64.262 143.25 143.25 143.25S452 322.681 452 243.693c0-78.989-64.262-143.25-143.25-143.25z"/>
        <path fill="#A5AFFB" d="M419.326 106.128l-16.826 4.815 23.504-1.072c5.283-.287 10.475 1.46 14.51 4.882 4.187 3.625 7.562 9.375 4.312 17.875-6.5 17-16.5 33-16.5 33l-6.5 12.5s-13.5 2-14-2 0-6 2.5-8 4-6 4-8-.5-4 1-5 2-2.5 2-5.5S426 133.443 426 133.443s-18.174-6.315-26-1c-7.826 5.315-23.674 28.685-23.674 28.685-1.04 1.088-1.91 2.325-2.583 3.671-.803 1.563-1.915 2.945-3.269 4.065-1.454 1.278-.115 4.798.352 5.264.5.5 5.5 20.5 5.5 20.5s5.5 9.5-.5 10-11.5 1-12 0c-.555-1.386-1.224-2.723-2-4-1.5-2.5 0-8 0-8s-14.5-18.5-10-30 14-37.5 14-37.5l14.5-6 26.5-9.5 12.5-3.5z"/>
        <path fill="#A0616A" d="M318.326 52.128l-20.5-4s-5-17-11-15 4 19 4 19l28.5 13-1-13zM442.826 69.128l9 11.5s13-.5 9 6.5-13 3-13.5 1.5-15-14.5-15-14.5l10.5-5z"/>
        <path fill="#6979F8" d="M396 53.943l-13 10-8-12-62-3.5v20.5c15.258-4.405 29.303-5.77 40.5 0 14.173 18.872 17.291 39.366 8.326 61.632L435 104.943c-21.931-8.166-32.112-20.006-29-36l25.5 9 15.5-11.5c-13.86-9.327-34.49-15.176-51-12.5z"/>
        <ellipse cx="258.5" cy="392.422" fill="#3F3D56" opacity=".104" rx="258.5" ry="19.5"/>
        <ellipse cx="186.25" cy="391.922" fill="#000" opacity=".1" rx="174.75" ry="13"/>
        <path fill="#A5AFFB" d="M467.58 365.953c-1.665 14.595 7.308 27.605 7.308 27.605s11.673-10.654 13.339-25.25c1.665-14.594-7.307-27.604-7.307-27.604s-11.673 10.654-13.34 25.249z"/>
        <path fill="#6979F8" d="M473.944 365.2c6.004 13.407 1.388 28.522 1.388 28.522s-14.35-6.623-20.353-20.03c-6.004-13.407-1.388-28.522-1.388-28.522s14.35 6.623 20.353 20.03z"/>
        <circle cx="312.779" cy="335.624" r="56.028" fill="#F2F2F2"/>
        <path fill="#6979F8" d="M312.78 249.247l-13.803 34.506-49.91.4-16.259.132-38.584.31-16.252.131-38.585.31-16.252.132-38.585.317-16.252.132-26.045.207-5.038-10.31-6.535-13.355-3.61-7.39-2.07-5.522 12.388-39.233c2.485-7.867 9.783-13.215 18.032-13.216H280.8c7.998.005 15.129 5.039 17.811 12.574l1.436 4.044 12.732 35.831z"/>
        <path fill="#6979F8" d="M25 249.248H312.779V321.711H25z"/>
        <path fill="#000" d="M25 249.248H312.779V321.711H25z" opacity=".1"/>
        <path fill="#3F3D56" d="M308.535 149.714H317.024V158.203H308.535zM331.455 331.38H339.94399999999996V339.86899999999997H331.455z"/>
        <path fill="#F2F2F2" d="M76.414 155.736H260.676V387.616H76.414z"/>
        <path fill="#3F3D56" d="M115.06 172.299H168.889V179.89000000000001H115.06z"/>
        <path fill="#E6E6E6" d="M86.766 203.354H248.94400000000002V206.805H86.766zM86.766 214.396H248.94400000000002V217.84699999999998H86.766zM86.766 225.438H248.94400000000002V228.88899999999998H86.766zM86.766 236.48H248.94400000000002V239.93099999999998H86.766zM86.766 247.522H248.94400000000002V250.97299999999998H86.766zM86.766 258.564H248.94400000000002V262.01500000000004H86.766z"/>
        <path fill="#6979F8" d="M93.667 186.101c-6.48 0-11.732-5.252-11.732-11.732 0-6.479 5.252-11.732 11.732-11.732 6.48 0 11.732 5.253 11.732 11.732-.007 6.477-5.256 11.725-11.732 11.732zm0-22.083c-4.187 0-7.962 2.522-9.564 6.39-1.602 3.868-.717 8.32 2.244 11.281 2.96 2.96 7.413 3.847 11.281 2.244 3.868-1.602 6.39-5.377 6.39-9.564-.006-5.714-4.637-10.345-10.351-10.351zM312.779 393.482L25 393.482 25 249.248 62.267 278.233 276.893 276.852 312.779 249.248z"/>
        <path fill="#F2F2F2" d="M39.838 360.011H93.667V367.60200000000003H39.838z"/>
        <path fill="#FFF" d="M68.086 345.757c-3.314 0-6-2.687-6-6 0-3.314 2.686-6 6-6s6 2.686 6 6c-.004 3.312-2.688 5.996-6 6zm0-11c-2.761 0-5 2.238-5 5 0 2.761 2.239 5 5 5 2.762 0 5-2.239 5-5-.003-2.76-2.24-4.997-5-5z"/>
        <path fill="#2F2E41" d="M420.326 175.628s3 11.5 4 12 12 10 4.5 11.5-13 1-14.5-.5-1-3-3.5-3.5-7-2-6.5-5.5 3-13 4.5-14 11.5 0 11.5 0zM376.826 201.128s4.5 3.5 2 10-6 13.5-6 13.5-4 12.5-10.5 10.5c-2.64-.812-3.96-3.027-4.598-5.372-.929-3.583-.267-7.394 1.816-10.454l3.782-5.674 4-10.5 9.5-2z"/>
        <path fill="#2F2E41" d="M365.852 249.536c8.963 0 20.052-2.969 30.86-13.701 26.454-26.274 51.588-28.91 51.838-28.933l-.093-.996c-.254.024-25.744 2.695-52.45 29.22-13.724 13.628-27.889 14.463-37.354 12.763-6.253-1.136-12.208-3.535-17.5-7.053l-.59.807c5.404 3.598 11.486 6.056 17.873 7.223 2.447.444 4.93.668 7.416.67z"/>
        <circle cx="435.076" cy="221.878" r="6" fill="#2F2E41"/>
        <circle cx="392.576" cy="249.878" r="6" fill="#2F2E41"/>
        <circle cx="386.503" cy="39.058" r="11.998" fill="#A0616A"/>
        <path fill="#2F2E41" d="M396.54 0c-1.257 1.797-3.122 3.078-5.25 3.61-3.671.983-.03 6.5-.03 6.5s-1.324-2.006.586-4.131c1.91-2.125 4.984-3.577 4.695-5.979z"/>
        <circle cx="390.61" cy="11.433" r="4.639" fill="#2F2E41"/>
        <path fill="#3F3D56" d="M396.533 15.322c-3.782-1.43-10.08-2.156-13.32-1.66l.445-3.245c3.115 1.61 9.383 2.367 13.32 1.66l-.445 3.245z"/>
        <path fill="#2F2E41" d="M388.215 18.983s-4.74 7.884-15.762 10.835c-11.022 2.952-.09 19.514-.09 19.514s-3.975-6.022 1.759-12.4c5.733-6.379 14.96-10.74 14.093-17.949z"/>
        <path fill="#2F2E41" d="M388.59 18.504s4.554 10.829 9.553 11.853c5 1.024 4.62 18.134-3.198 20.7 0 0 5.7-10.03.828-16.758s-7.95-12.046-7.182-15.795z"/>
    </g>
</svg>
