<svg xmlns="http://www.w3.org/2000/svg" width="524" height="308" viewBox="0 0 524 308">
    <g fill="none">
        <ellipse cx="262" cy="284.306" fill="#3F3D56" opacity=".104" rx="262" ry="23.4"/>
        <ellipse cx="223.5" cy="283.706" fill="#000" opacity=".1" rx="209.7" ry="15.6"/>
        <path fill="#A5AFFB" d="M471.097 252.543c-1.999 17.514 8.769 33.126 8.769 33.126s14.008-12.784 16.006-30.298c1.999-17.515-8.768-33.126-8.768-33.126s-14.008 12.784-16.007 30.298z"/>
        <path fill="#6979F8" d="M478.733 251.64c7.205 16.088 1.666 34.226 1.666 34.226s-17.22-7.947-24.424-24.035c-7.205-16.089-1.666-34.227-1.666-34.227s17.22 7.947 24.424 24.036z"/>
        <circle cx="375.335" cy="216.149" r="67.233" fill="#F2F2F2"/>
        <path fill="#6979F8" d="M375.335 112.497l-16.563 41.407-59.89.48-19.512.158-46.301.372-19.503.158-46.301.372-19.503.158-46.302.38-19.502.158-31.254.248-6.046-12.372-7.842-16.025-4.332-8.87L30 112.498l14.865-47.08c2.983-9.44 11.74-15.858 21.64-15.859h270.454c9.598.005 18.156 6.046 21.374 15.089l1.723 4.853 15.28 42.997z"/>
        <path fill="#6979F8" d="M30 112.498H375.335V199.453H30z"/>
        <path fill="#000" d="M30 112.498H375.335V199.453H30z" opacity=".1"/>
        <path fill="#3F3D56" d="M397.746 211.056H407.933V221.24300000000002H397.746z"/>
        <path fill="#F2F2F2" d="M91.697 0.284H312.81100000000004V278.53999999999996H91.697z"/>
        <path fill="#3F3D56" d="M138.073 20.159H202.668V29.269H138.073z"/>
        <path fill="#E6E6E6" d="M104.119 57.425H298.73199999999997V61.565999999999995H104.119zM104.119 70.676H298.73199999999997V74.81700000000001H104.119zM104.119 83.926H298.73199999999997V88.06700000000001H104.119zM104.119 97.176H298.73199999999997V101.31700000000001H104.119zM104.119 110.426H298.73199999999997V114.56700000000001H104.119zM104.119 123.677H298.73199999999997V127.81800000000001H104.119z"/>
        <path fill="#6979F8" d="M112.4 36.722c-7.775 0-14.078-6.303-14.078-14.079 0-7.775 6.303-14.078 14.078-14.078 7.775 0 14.079 6.303 14.079 14.078-.01 7.772-6.307 14.07-14.079 14.079zm0-26.5c-5.024 0-9.554 3.026-11.476 7.668-1.923 4.641-.86 9.984 2.692 13.537 3.553 3.553 8.896 4.616 13.538 2.693 4.642-1.923 7.668-6.452 7.668-11.477-.007-6.857-5.565-12.414-12.422-12.422zM375.335 285.578L30 285.578 30 112.497 74.72 147.279 332.272 145.622 375.335 112.497z"/>
        <path fill="#F2F2F2" d="M47.805 245.414H112.4V254.524H47.805z"/>
        <path fill="#FFF" d="M81.703 228.308c-3.976 0-7.2-3.224-7.2-7.2 0-3.977 3.224-7.2 7.2-7.2 3.977 0 7.2 3.223 7.2 7.2-.004 3.974-3.225 7.195-7.2 7.2zm0-13.2c-3.313 0-6 2.686-6 6s2.687 6 6 6c3.314 0 6-2.686 6-6-.003-3.312-2.687-5.996-6-6z"/>
    </g>
</svg>
