<svg xmlns="http://www.w3.org/2000/svg" xmlns:xlink="http://www.w3.org/1999/xlink" width="624" height="382" viewBox="0 0 624 382">
    <defs>
        <filter id="prefix__a" width="107.2%" height="201.8%" x="-3.6%" y="-50.9%" filterUnits="objectBoundingBox">
            <feGaussianBlur in="SourceGraphic" stdDeviation="6.24"/>
        </filter>
        <filter id="prefix__b" width="112.6%" height="340.3%" x="-6.3%" y="-120.2%" filterUnits="objectBoundingBox">
            <feGaussianBlur in="SourceGraphic" stdDeviation="10.4"/>
        </filter>
        <filter id="prefix__c" width="100.2%" height="100.6%" x="-.1%" y="-.1%" filterUnits="objectBoundingBox">
            <feOffset dy="1" in="SourceAlpha" result="shadowOffsetOuter1"/>
            <feColorMatrix in="shadowOffsetOuter1" values="0 0 0 0 0 0 0 0 0 0 0 0 0 0 0 0 0 0 0.2 0"/>
        </filter>
        <filter id="prefix__e" width="100.4%" height="100.9%" x="-.2%" y="-.3%" filterUnits="objectBoundingBox">
            <feGaussianBlur in="SourceAlpha" result="shadowBlurInner1" stdDeviation=".5"/>
            <feOffset dy="1" in="shadowBlurInner1" result="shadowOffsetInner1"/>
            <feComposite in="shadowOffsetInner1" in2="SourceAlpha" k2="-1" k3="1" operator="arithmetic" result="shadowInnerInner1"/>
            <feColorMatrix in="shadowInnerInner1" values="0 0 0 0 1 0 0 0 0 1 0 0 0 0 1 0 0 0 1 0"/>
        </filter>
        <linearGradient id="prefix__f" x1="0%" x2="100%" y1="50%" y2="50%">
            <stop offset="0%" stop-color="#BCBDBF"/>
            <stop offset="9.76%" stop-color="#D8D8DF"/>
            <stop offset="88.821%" stop-color="#D8D8DF"/>
            <stop offset="100%" stop-color="#ADAABD"/>
        </linearGradient>
        <linearGradient id="prefix__g" x1="50%" x2="50%" y1="0%" y2="100%">
            <stop offset="0%" stop-color="#FFF"/>
            <stop offset="100%" stop-color="#CDCBD5"/>
        </linearGradient>
        <linearGradient id="prefix__j" x1="100%" x2="2.104%" y1="30.815%" y2="68.378%">
            <stop offset="0%" stop-color="#605DE7"/>
            <stop offset="100%" stop-color="#5232CC"/>
        </linearGradient>
        <rect id="prefix__d" width="525.2" height="342.707" x="49.92" y="0" rx="16.224"/>
        <path id="prefix__h" d="M75.4 23.4H549.64V319.37399999999997H75.4z"/>
    </defs>
    <g fill="none" fill-rule="evenodd">
        <g fill="#000" transform="translate(53.04 322.868)">
            <rect width="520.416" height="36.775" x=".832" y=".835" filter="url(#prefix__a)" opacity=".05" rx="18.387"/>
            <rect width="497.12" height="25.963" x="14.56" y="1.039" filter="url(#prefix__b)" opacity=".5" rx="12.981"/>
        </g>
        <use fill="#000" filter="url(#prefix__c)" xlink:href="#prefix__d"/>
        <use fill="#F5F5F5" xlink:href="#prefix__d"/>
        <use fill="#000" filter="url(#prefix__e)" xlink:href="#prefix__d"/>
        <path fill="#F5F5F5" d="M0 339.591H624V343.745H0z"/>
        <path fill="url(#prefix__f)" fill-opacity=".5" d="M256.88 339.591h111.28v1.558c0 .86-.696 1.558-1.552 1.558H258.432c-.857 0-1.552-.692-1.552-1.558v-1.558z"/>
        <path fill="url(#prefix__g)" d="M99.84 351.015c-83.142 0-99.212-6.982-99.822-7.261L0 343.745l313.04-1.038L624 343.745l-.018.009c-.608.28-16.64 7.26-99.822 7.26z"/>
        <mask id="prefix__i" fill="#fff">
            <use xlink:href="#prefix__h"/>
        </mask>
        <use fill="#D1D5FF" xlink:href="#prefix__h"/>
        <path fill="#8B9FFF" d="M377.65 113.1c-3.27 0-5.922-2.671-5.922-5.966H354.9c0-11.155 7.912-20.444 18.39-22.493V72.756h3.485V-3.9h1.75v76.656h3.485v11.885c10.478 2.049 18.39 11.338 18.39 22.493h-16.828c0 3.295-2.651 5.966-5.922 5.966" mask="url(#prefix__i)"/>
        <path fill="#8B9FFF" d="M195.65 113.1c-3.27 0-5.922-2.671-5.922-5.966H172.9c0-11.155 7.912-20.444 18.39-22.493V72.756h3.485V-3.9h1.75v76.656h3.485v11.885c10.478 2.049 18.39 11.338 18.39 22.493h-16.828c0 3.295-2.651 5.966-5.922 5.966" mask="url(#prefix__i)" opacity=".464"/>
        <path fill="#8B9FFF" d="M438.75 74.1c-2.336 0-4.23-1.87-4.23-4.176H422.5c0-7.808 5.652-14.311 13.136-15.746V45.86h2.489V-7.8h1.25v53.66h2.489v8.318C449.348 55.613 455 62.116 455 69.924h-12.02c0 2.306-1.894 4.176-4.23 4.176" mask="url(#prefix__i)" opacity=".552"/>
        <g mask="url(#prefix__i)">
            <g>
                <path fill="#8B9FFF" d="M110.315 192.358c-4.835-6.12-18.366-9.562-31.874-9.991V140.67h31.582c3.171 0 5.742-2.569 5.742-5.737 0-3.17-2.57-5.738-5.742-5.738H78.758V94.22h22.47c3.325 0 6.03-2.702 6.03-6.024v-22.95c0-3.322-2.705-6.024-6.03-6.024H49.91c-3.325 0-6.03 2.702-6.03 6.024v22.95c0 3.322 2.705 6.024 6.03 6.024h21.957v34.977H41.116c-3.171 0-5.742 2.569-5.742 5.738 0 3.168 2.57 5.737 5.742 5.737h31.582v41.696c-13.508.43-27.04 3.87-31.874 9.99-2.797.385-4.954 2.777-4.954 5.678 0 3.169 2.571 5.737 5.742 5.737 3.172 0 5.743-2.568 5.743-5.737 0-1.387-.493-2.66-1.313-3.652 3.864-3.209 13.4-6.439 26.656-6.853v4.891c-1.715.993-2.87 2.842-2.87 4.964 0 3.169 2.57 5.737 5.741 5.737 3.172 0 5.743-2.568 5.743-5.737 0-2.122-1.157-3.971-2.871-4.964v-4.891c13.255.414 22.792 3.644 26.656 6.853-.82.993-1.313 2.265-1.313 3.652 0 3.169 2.571 5.737 5.742 5.737 3.172 0 5.743-2.568 5.743-5.737 0-2.9-2.157-5.292-4.954-5.677" transform="translate(228.8 145.6)"/>
                <path fill="#44372D" d="M93.839 54.918c-.023.132-.052.247-.08.368-.293 1.25-.62 2.414-.977 3.476-.614 1.83-1.269 3.345-2.101 4.48-.385.534-.816.982-1.298 1.343-.925.695-2.056 1.062-3.491 1.062h-21.43c-1.5 0-2.665-.402-3.612-1.154-.437-.344-.821-.762-1.178-1.25-.832-1.136-1.487-2.651-2.101-4.481-.357-1.062-.684-2.226-.976-3.476-.03-.121-.058-.236-.08-.356-3.36-14.774-2.361-40.96 5.253-48.848C64.892 2.846 68.756 0 75.177 0c5.087 0 8.573 1.79 11.352 4.148.73.608 1.406 1.262 2.056 1.934.258.269.51.562.752.871 6.925 8.79 7.746 33.707 4.502 47.965" transform="translate(228.8 145.6)"/>
                <path fill="#F1C9B1" d="M80.989 53.785L80.989 46.468 69.505 46.468 69.505 53.785 66.634 54.008 69.505 72.507 80.989 72.507 83.86 54.008 80.989 53.785" transform="translate(228.8 145.6)"/>
                <path fill="#E49D7E" d="M80.99 53.785l-11.485-4.61v-1.39c1.878 1.347 3.888 2.186 5.743 2.186 1.854 0 3.864-.839 5.741-2.186v6" transform="translate(228.8 145.6)"/>
                <path fill="#A5AFFB" d="M92.137 100.498c3.934 12.032 13.254 36.536-2.854 38.338-5.187.58-13.483 1.688-27.78 0-15.258-1.802-6.794-26.3-2.866-38.332l33.5-.006" transform="translate(228.8 145.6)"/>
                <path fill="#F2C9B2" d="M87.815 135.886c0-3.486-2.828-6.311-6.317-6.311-3.457 0-6.26 2.775-6.312 6.217h-.004l.002.056-.002.038c0 .069.008.136.01.203l2 70.21h7.177l2.196-66.656c.781-1.05 1.25-2.347 1.25-3.757" transform="translate(228.8 145.6)"/>
                <path fill="#E05844" d="M77.053 200.538s.84 4.898 3.707 4.898c2.865 0 3.705-4.898 3.705-4.898s.774 2.848.774 4.735c0 3.495-1.388 5.46-4.48 5.46-3.092 0-4.478-1.965-4.478-5.46 0-1.887.772-4.735.772-4.735" transform="translate(228.8 145.6)"/>
                <path fill="#F2C9B2" d="M62.68 135.886c0-3.486 2.828-6.311 6.316-6.311 3.458 0 6.261 2.775 6.312 6.217h.005l-.002.056.002.038c0 .069-.009.136-.01.203l-2 70.21h-7.178l-2.195-66.656c-.781-1.05-1.25-2.347-1.25-3.757" transform="translate(228.8 145.6)"/>
                <path fill="#E05844" d="M73.442 200.538s-.841 4.898-3.707 4.898c-2.865 0-3.706-4.898-3.706-4.898s-.773 2.848-.773 4.735c0 3.495 1.387 5.46 4.48 5.46 3.091 0 4.478-1.965 4.478-5.46 0-1.887-.772-4.735-.772-4.735" transform="translate(228.8 145.6)"/>
                <path fill="#A5AFFB" d="M89.346 85.264c5.45-5.561 7.057-25.196-7.403-31.256L75.248 72.31l-6.696-18.302c-14.46 6.06-12.853 25.695-7.404 31.256 0 0-.768 8.421-6.174 24.435h18.359l1.915-6.885 1.823 6.885h18.45c-5.406-16.014-6.175-24.435-6.175-24.435" transform="translate(228.8 145.6)"/>
                <path fill="#A5AFFB" d="M50.435 108.272l8.148-39.726c.524-1.835 1.285-3.46 2.47-4.597 1.745-1.672 5.279-1.71 8.397-1.744l.156-.001-1.064-8.344c-4.33.329-9.106.19-13.214 4.128-3.504 3.36-4.846 7.884-5.556 12.195l-.001.01c-.256 1.56-6.014 36.99-6.014 36.99-.026 1.314 6.678 1.089 6.678 1.089" transform="translate(228.8 145.6)"/>
                <path fill="#1B1A19" d="M101.04 72.38c-.628-4.92-1.767-10.455-5.874-14.392-4.107-3.939-8.883-3.799-13.213-4.128l-1.065 8.344.157.001c3.118.034 6.652.072 8.396 1.744 1.105 1.06 1.84 2.543 2.36 4.224l.526 19.068 3.542 10.981c.36.096.727.143 1.091.143.914 0 1.813-.296 2.557-.86 1.04-.787 2.129-2.01 2.145-3.315l-.621-21.81" transform="translate(228.8 145.6)"/>
                <path fill="#FFFFFE" d="M61.978 58.528L68.273 60.906 65.802 64.348 75.248 72.311 68.542 53.86 61.978 58.528M88.518 58.528L81.943 53.937 75.248 72.31 84.693 64.348 82.223 60.906 88.518 58.528" transform="translate(228.8 145.6)"/>
                <path fill="#F1C9B1" d="M88.402 26.677V20.71c0-6.337-7.342-14.343-13.154-14.343-5.813 0-13.155 8.006-13.155 14.343v5.967c-1.615 0-2.924 1.284-2.924 2.869v2.983c0 1.584 1.309 2.869 2.924 2.869 0 6.337 7.342 14.573 13.155 14.573 5.812 0 13.154-8.236 13.154-14.573 1.615 0 2.923-1.285 2.923-2.869v-2.983c0-1.585-1.308-2.87-2.923-2.87" transform="translate(228.8 145.6)"/>
                <path fill="#E7A689" d="M75.248 49.97V39.358l-2.924-.574s.79-4.729 2.924-9.18V6.367c5.812 0 13.154 8.006 13.154 14.343v5.967c1.615 0 2.923 1.284 2.923 2.869v2.983c0 1.584-1.308 2.869-2.923 2.869 0 6.337-7.342 14.573-13.154 14.573m7.178-21.68c-.027 0-.053 0-.08.002-1.252.044-2.231 1.093-2.187 2.343.043 1.224 1.049 2.187 2.265 2.187l.08-.001c1.252-.044 2.231-1.093 2.188-2.343-.043-1.224-1.05-2.188-2.266-2.188" transform="translate(228.8 145.6)"/>
                <path fill="#E49D7E" d="M68.068 32.823c-1.216 0-2.222-.963-2.265-2.187-.044-1.25.936-2.3 2.187-2.343l.08-.002c1.217 0 2.223.964 2.266 2.188.044 1.25-.936 2.3-2.187 2.343l-.081.001" transform="translate(228.8 145.6)"/>
                <path fill="#2D211A" d="M70.336 29.905c.044 1.25-.936 2.3-2.187 2.343-1.252.044-2.302-.934-2.346-2.185-.044-1.25.936-2.3 2.187-2.344 1.252-.043 2.302.935 2.346 2.186" transform="translate(228.8 145.6)"/>
                <path fill="#FFFFFE" d="M69.406 29.257c.01.313-.234.575-.547.586-.313.011-.575-.234-.586-.546-.011-.313.233-.576.547-.587.313-.01.575.234.586.547" transform="translate(228.8 145.6)"/>
                <path fill="#2D211A" d="M70.828 28.174c-.419-.971-1.49-1.707-2.667-1.832-.722-.08-2.076.028-3.24 1.5-.056.005-.107.006-.172 0-.129-.012-.31-.054-.485-.13-.357-.143-.654-.444-.654-.444l-.082-.013-.032.094s.044.099.13.24c.084.143.217.327.386.488.168.161.367.3.535.383.083.042.16.072.215.092l.101.029c.157.015.3-.068.368-.2.762-1.063 1.781-1.586 2.869-1.47.962.104 1.867.715 2.2 1.49.064.146.233.213.378.15s.213-.232.15-.377" transform="translate(228.8 145.6)"/>
                <path fill="#DA8162" d="M82.424 32.823c-1.216 0-2.222-.963-2.265-2.187-.044-1.25.935-2.3 2.187-2.343l.08-.002c1.216 0 2.223.964 2.266 2.188.043 1.25-.936 2.3-2.188 2.343l-.08.001" transform="translate(228.8 145.6)"/>
                <path fill="#2D211A" d="M84.692 29.905c.043 1.25-.936 2.3-2.188 2.343-1.251.044-2.302-.934-2.345-2.185-.044-1.25.935-2.3 2.187-2.344 1.251-.043 2.302.935 2.346 2.186" transform="translate(228.8 145.6)"/>
                <path fill="#FFFFFE" d="M83.762 29.257c.01.313-.234.575-.547.586-.313.011-.575-.234-.587-.546-.01-.313.234-.576.547-.587.313-.01.576.234.587.547" transform="translate(228.8 145.6)"/>
                <path fill="#2D211A" d="M79.667 28.174c.419-.971 1.49-1.707 2.667-1.832.722-.08 2.076.028 3.24 1.5.055.005.107.006.172 0 .129-.012.309-.054.484-.13.358-.143.655-.444.655-.444l.081-.013.033.094s-.044.099-.13.24c-.085.143-.218.327-.387.488-.167.161-.366.3-.534.383-.084.042-.16.072-.215.092l-.102.029c-.156.015-.298-.068-.367-.2-.762-1.063-1.781-1.586-2.87-1.47-.961.104-1.866.715-2.2 1.49-.063.146-.232.213-.377.15s-.213-.232-.15-.377" transform="translate(228.8 145.6)"/>
                <path fill="#44372D" d="M82.883 21.447c.39 1.4 1.154 3.247 2.48 4.35-3.905-1-7.23-3.306-9.635-6.037.236 1.412 1.131 2.949 2.515 4.309-1.05-.465-2.073-1.067-3.049-1.756-2.177-1.526-4.111-3.505-5.547-5.514-2.274 4.608-5.955 11.045-8.808 11.131-3.903-7.852-4.296-24.984 14.338-24.984 18.633 0 15.837 19.46 14.373 24.984-3.273-2.513-5.766-5.146-6.667-6.483" transform="translate(228.8 145.6)"/>
                <path fill="#E05844" d="M79.82 41.476c0 2.253-2.056 4.08-4.593 4.08s-4.594-1.827-4.594-4.08h9.188" transform="translate(228.8 145.6)"/>
                <path fill="#FFFFFE" d="M78.482 43.006H71.87c-.288 0-.522-.233-.522-.521v-1.009h7.656v1.009c0 .288-.233.521-.522.521" transform="translate(228.8 145.6)"/>
                <path fill="#626066" d="M79.244 45.636c-.231 0-.442-.156-.5-.39-.067-.277.101-.556.377-.623 7.228-1.78 9.988-8.41 10.015-8.477.106-.263.407-.391.67-.285.264.107.392.406.285.67-.117.292-2.971 7.183-10.723 9.09l-.124.015" transform="translate(228.8 145.6)"/>
                <path fill="#3B3940" d="M79.244 46.151c-.463 0-.884-.314-1-.783-.136-.552.202-1.11.754-1.245.97-.24 1.91-.581 2.795-1.018.51-.252 1.127-.043 1.379.466.252.51.044 1.126-.467 1.379-1.017.502-2.1.897-3.214 1.171-.083.02-.166.03-.247.03" transform="translate(228.8 145.6)"/>
                <path fill="#626066" d="M75.229 1.295c-8.489 0-15.935 6.912-15.935 14.792v11.608c0 .37.3.67.67.67.37 0 .67-.3.67-.67V16.087c0-7.167 6.82-13.453 14.595-13.453S89.824 8.92 89.824 16.087v11.615c0 .369.3.67.67.67.369 0 .67-.301.67-.67V16.087c0-7.88-7.446-14.792-15.935-14.792" transform="translate(228.8 145.6)"/>
                <path fill="#8B9FFF" d="M58.88 36.3c-.736 0-1.363-.563-1.428-1.31l-.405-4.626c-.07-.79.515-1.485 1.305-1.554.789-.069 1.486.515 1.555 1.304l.405 4.627c.07.788-.515 1.484-1.305 1.553l-.127.005" transform="translate(228.8 145.6)"/>
                <path fill="#626066" d="M61.12 38.398c-.736 0-1.363-.563-1.429-1.31l-.804-9.179c-.069-.79.516-1.484 1.306-1.554.785-.066 1.485.515 1.555 1.304l.804 9.18c.069.79-.515 1.485-1.306 1.554l-.126.005" transform="translate(228.8 145.6)"/>
                <path fill="#8B9FFF" d="M91.573 36.3l-.127-.006c-.79-.069-1.374-.765-1.305-1.553l.405-4.627c.07-.789.77-1.374 1.555-1.304.79.07 1.374.765 1.305 1.554l-.405 4.626c-.065.747-.692 1.31-1.428 1.31" transform="translate(228.8 145.6)"/>
                <path fill="#626066" d="M89.333 38.398l-.126-.005c-.79-.07-1.375-.765-1.306-1.554l.804-9.18c.069-.79.765-1.37 1.555-1.304.79.07 1.375.765 1.306 1.554l-.804 9.18c-.066.746-.693 1.31-1.429 1.31" transform="translate(228.8 145.6)"/>
                <path fill="url(#prefix__j)" d="M162.425 110.363H5.168c-2.854 0-5.168 2.311-5.168 5.163 0 2.852 2.314 5.164 5.168 5.164h2.907v93.485h8.613V120.69h134.216v93.485h8.613V120.69h2.908c2.854 0 5.168-2.312 5.168-5.164s-2.314-5.163-5.168-5.163" transform="translate(228.8 145.6)"/>
                <path fill="#9B9B9B" d="M145.09 110.363H79.27c-.852 0-1.543-.69-1.543-1.543 0-.852.69-1.542 1.544-1.542h65.82c.852 0 1.543.69 1.543 1.542 0 .852-.691 1.543-1.543 1.543" transform="translate(228.8 145.6)"/>
                <path fill="#E5E6E3" d="M144.024 107.389H80.337c-1.442 0-2.61-1.167-2.61-2.608V60.016c0-1.441 1.168-2.608 2.61-2.608h63.687c1.442 0 2.61 1.167 2.61 2.608v44.765c0 1.44-1.168 2.608-2.61 2.608" transform="translate(228.8 145.6)"/>
                <path fill="#D7D7D7" d="M117.815 80.812c0 3.108-2.523 5.629-5.635 5.629-3.111 0-5.634-2.52-5.634-5.63 0-3.109 2.523-5.63 5.634-5.63 3.112 0 5.635 2.521 5.635 5.63" transform="translate(228.8 145.6)"/>
                <path fill="#EBECE9" d="M90.526 107.389h-9.928c-1.586 0-2.871-1.284-2.871-2.868V60.276c0-1.584 1.285-2.868 2.87-2.868h50.368c-21.977 6.51-38.408 26.16-40.439 49.98" transform="translate(228.8 145.6)"/>
                <path fill="#84C9BC" d="M52.048 110.363H41.816c-.35 0-.628-.31-.572-.656.384-2.377 2.785-4.745 5.689-4.745 2.903 0 5.303 2.368 5.688 4.745.056.345-.223.656-.573.656" transform="translate(228.8 145.6)"/>
                <path fill="#F1C9B1" d="M53.865 106.95c-1.478-2.237-3.452-4.038-6.932-4.038-2.166 0-4.076.47-5.21 1.505-.208.102-.387.266-.499.488l-1.351 2.671c-.275.543-.057 1.206.487 1.48.16.081.33.12.496.12.403 0 .792-.222.985-.606l.38-.75.036-.003-.173.343c-.314.62-.065 1.378.557 1.691.182.092.376.136.568.136.46 0 .903-.253 1.125-.691l.15-.296c-.02.478.233.947.689 1.177.182.092.375.135.567.135.46 0 .904-.253 1.126-.691l.257-.508c.114.16.264.3.453.395.183.092.376.136.568.136.46 0 .903-.253 1.126-.691l1.176-2.325c2.594 2.824 4.33 1.7 3.419.322" transform="translate(228.8 145.6)"/>
            </g>
        </g>
        <g transform="translate(468 241.8)">
            <circle cx="23.4" cy="23.4" r="23.4" fill="#6979F8"/>
            <path fill="#FFF" d="M20.8 18.496c-.024-.706.468-1.014 1.093-.683l2.758 1.46c.624.329 1.647.873 2.269 1.202l2.76 1.458c.622.332.644.91.042 1.286l-7.499 4.69c-.603.378-1.114.107-1.137-.6l-.1-3.122c-.023-.704-.063-1.863-.084-2.569l-.101-3.122z"/>
        </g>
    </g>
</svg>
