<svg xmlns="http://www.w3.org/2000/svg" width="498" height="348" viewBox="0 0 498 348">
    <defs>
        <linearGradient id="prefix__a" x1="48.929%" x2="54.786%" y1="-3.583%" y2="286.033%">
            <stop offset="0%" stop-color="#010101" stop-opacity="0"/>
            <stop offset="95%" stop-color="#010101"/>
        </linearGradient>
        <linearGradient id="prefix__b" x1="48.919%" x2="54.763%" y1="-3.581%" y2="285.937%">
            <stop offset="0%" stop-color="#010101" stop-opacity="0"/>
            <stop offset="95%" stop-color="#010101"/>
        </linearGradient>
        <linearGradient id="prefix__c" x1="38.886%" x2="63.772%" y1="15.965%" y2="93.72%">
            <stop offset="0%" stop-color="#010101" stop-opacity="0"/>
            <stop offset="95%" stop-color="#010101"/>
        </linearGradient>
        <linearGradient id="prefix__d" x1="45.418%" x2="58.516%" y1="-67.609%" y2="268.585%">
            <stop offset="0%" stop-color="#010101" stop-opacity="0"/>
            <stop offset="95%" stop-color="#010101"/>
        </linearGradient>
        <linearGradient id="prefix__e" x1="44.755%" x2="62.355%" y1="-66.132%" y2="323.59%">
            <stop offset="0%" stop-color="#010101" stop-opacity="0"/>
            <stop offset="95%" stop-color="#010101"/>
        </linearGradient>
        <linearGradient id="prefix__f" x1=".904%" x2="148.398%" y1="-420.291%" y2="992.579%">
            <stop offset="0%" stop-color="#010101" stop-opacity="0"/>
            <stop offset="95%" stop-color="#010101"/>
        </linearGradient>
        <linearGradient id="prefix__g" x1="47.279%" x2="59.828%" y1="-21.371%" y2="307.724%">
            <stop offset="0%" stop-color="#010101" stop-opacity="0"/>
            <stop offset="95%" stop-color="#010101"/>
        </linearGradient>
        <linearGradient id="prefix__h" x1="49.436%" x2="51.252%" y1="-12.913%" y2="189.714%">
            <stop offset="0%" stop-color="#010101" stop-opacity="0"/>
            <stop offset="95%" stop-color="#010101"/>
        </linearGradient>
        <linearGradient id="prefix__i" x1="48.918%" x2="54.768%" y1="-3.634%" y2="286.033%">
            <stop offset="0%" stop-color="#010101" stop-opacity="0"/>
            <stop offset="95%" stop-color="#010101"/>
        </linearGradient>
        <linearGradient id="prefix__j" x1="-.001%" x2="99.998%" y1="49.987%" y2="49.987%">
            <stop offset="0%" stop-color="#010101" stop-opacity="0"/>
            <stop offset="95%" stop-color="#010101"/>
        </linearGradient>
        <linearGradient id="prefix__k" x1="29.379%" x2="135.125%" y1="37.27%" y2="86.049%">
            <stop offset="0%" stop-color="#010101" stop-opacity="0"/>
            <stop offset="95%" stop-color="#010101"/>
        </linearGradient>
        <linearGradient id="prefix__l" x1="-32.172%" x2="100.12%" y1="11.725%" y2="72.77%">
            <stop offset="0%" stop-color="#FFF" stop-opacity="0"/>
            <stop offset="95%" stop-color="#FFF"/>
        </linearGradient>
        <linearGradient id="prefix__m" x1="0%" x2="100%" y1="50%" y2="50%">
            <stop offset="0%" stop-color="#010101" stop-opacity="0"/>
            <stop offset="95%" stop-color="#010101"/>
        </linearGradient>
        <linearGradient id="prefix__n" x1="0%" x2="100%" y1="50%" y2="50%">
            <stop offset="0%" stop-color="#010101" stop-opacity="0"/>
            <stop offset="95%" stop-color="#010101"/>
        </linearGradient>
        <linearGradient id="prefix__o" x1="-.009%" x2="100.008%" y1="49.997%" y2="49.997%">
            <stop offset="0%" stop-color="#010101" stop-opacity="0"/>
            <stop offset="95%" stop-color="#010101"/>
        </linearGradient>
        <linearGradient id="prefix__p" x1="56.188%" x2="-114.964%" y1="43.203%" y2="343.273%">
            <stop offset="0%" stop-color="#010101" stop-opacity="0"/>
            <stop offset="95%" stop-color="#010101"/>
        </linearGradient>
        <linearGradient id="prefix__q" x1=".05%" x2="100%" y1="49.863%" y2="49.863%">
            <stop offset="0%" stop-color="#E5C6D6"/>
            <stop offset="42%" stop-color="#EAD4D0"/>
            <stop offset="100%" stop-color="#F0E9CB"/>
        </linearGradient>
        <linearGradient id="prefix__r" x1="-.01%" x2="100.181%" y1="49.946%" y2="49.946%">
            <stop offset="0%" stop-color="#E5C6D6"/>
            <stop offset="42%" stop-color="#EAD4D0"/>
            <stop offset="100%" stop-color="#F0E9CB"/>
        </linearGradient>
        <linearGradient id="prefix__s" x1="29.108%" x2="135.834%" y1="90.289%" y2="-149.137%">
            <stop offset="0%" stop-color="#010101" stop-opacity="0"/>
            <stop offset="95%" stop-color="#010101"/>
        </linearGradient>
        <linearGradient id="prefix__t" x1=".007%" x2="100.137%" y1="49.958%" y2="49.958%">
            <stop offset="0%" stop-color="#E5C6D6"/>
            <stop offset="42%" stop-color="#EAD4D0"/>
            <stop offset="100%" stop-color="#F0E9CB"/>
        </linearGradient>
        <linearGradient id="prefix__u" x1=".009%" x2="100.129%" y1="49.806%" y2="49.806%">
            <stop offset="0%" stop-color="#E5C6D6"/>
            <stop offset="42%" stop-color="#EAD4D0"/>
            <stop offset="100%" stop-color="#F0E9CB"/>
        </linearGradient>
        <linearGradient id="prefix__v" x1="44.596%" x2="103.985%" y1="51.397%" y2="37.43%">
            <stop offset="0%" stop-color="#010101" stop-opacity="0"/>
            <stop offset="95%" stop-color="#010101"/>
        </linearGradient>
    </defs>
    <g fill="none" fill-rule="evenodd">
        <path fill="#6979F8" fill-rule="nonzero" d="M147.789 323.359c-41.683 4.847-84.945-23.129-97.557-63.202-4.934-15.704-5.7-32.959-13.852-47.237-7.386-12.99-20.143-22.218-27.83-35.023-18.01-29.982-1.842-71.19 26.328-91.876 28.17-20.686 64.569-25.843 99.388-29.168 34.82-3.325 70.947-5.622 101.783-22.082 17.041-9.102 31.989-22.295 50.232-28.664 13.077-4.566 27.142-5.36 40.984-5.884 22.616-.853 48.052 0 63.716 16.305 17.449 18.146 17.207 50.338 38.59 63.57 9.646 5.962 21.646 6.505 32.145 10.78 19.61 7.977 31.988 28.644 34.76 49.64 2.698 21.484-3.181 43.165-16.362 60.343-7.028 9.054-15.878 16.48-24.65 23.885-18.419 15.51-37.108 31.165-58.783 41.682-13.29 6.437-27.627 10.867-40.005 18.922-16.819 10.925-28.916 27.83-44.891 40.045-34.635 26.444-83.365 27.142-125.048 14.424-20.608-6.282-41.779-15.607-62.853-11.148" opacity=".24"/>
        <path fill="url(#prefix__a)" fill-rule="nonzero" d="M238.414 83.627L229.224 89.365 229.137 102.296 238.375 95.569z"/>
        <path fill="#9FEFFC" fill-rule="nonzero" d="M71.607 205.95L71.607 63.125 77.151 63.125 77.151 195.859 291.787 59.228 294.763 63.9z"/>
        <path fill="#9FEFFC" fill-rule="nonzero" d="M153.934 148.913L144.57 154.109 144.57 81.843 153.934 76.647 159.101 75.61zM203.061 118.882L193.707 124.088 193.707 62.601 203.061 57.405 208.238 56.368z"/>
        <path fill="url(#prefix__b)" fill-rule="nonzero" d="M235.826 84.14L226.646 89.879 226.559 102.82 235.787 96.093z"/>
        <path fill="#9FEFFC" fill-rule="nonzero" d="M235.816 95.879L226.462 101.085 226.462 27.123 235.816 21.917 240.992 20.89zM271.004 87.601L261.649 92.797 261.649 18.844 271.004 13.639 276.18 12.611zM109.305 47.266H114.85000000000001V177.509H109.305z"/>
        <path fill="url(#prefix__c)" fill-rule="nonzero" d="M71.607 205.95L71.607 63.125 77.151 63.125 77.151 195.859 291.787 59.228 294.763 63.9z"/>
        <path fill="url(#prefix__d)" fill-rule="nonzero" d="M153.934 148.913L144.57 154.109 144.57 81.843 153.934 76.647 159.101 75.61z"/>
        <path fill="url(#prefix__e)" fill-rule="nonzero" d="M203.061 118.882L193.707 124.088 193.707 62.601 203.061 57.405 208.238 56.368z"/>
        <path fill="url(#prefix__f)" fill-rule="nonzero" d="M235.826 84.14L226.646 89.879 226.559 102.82 235.787 96.093z"/>
        <path fill="url(#prefix__g)" fill-rule="nonzero" d="M235.816 97.004L226.462 102.2 226.462 28.237 235.816 23.042 240.992 22.004zM271.004 87.688L261.649 92.884 261.649 18.922 271.004 13.726 276.18 12.689z"/>
        <path fill="#9FEFFC" fill-rule="nonzero" d="M276.762 73.652L267.407 78.848 267.407 17.371 276.762 12.175z"/>
        <path fill="url(#prefix__h)" fill-rule="nonzero" d="M109.305 47.266H114.85000000000001V177.509H109.305z"/>
        <path fill="#9FEFFC" fill-rule="nonzero" d="M76.783 204.923L76.783 63.096 82.328 63.096 82.328 194.822 296.963 58.191 299.929 62.873z"/>
        <path fill="#9FEFFC" fill-rule="nonzero" d="M159.101 147.876L149.747 153.081 149.747 80.806 159.101 75.61zM208.238 117.855L198.883 123.05 198.883 61.574 208.238 56.368z"/>
        <path fill="url(#prefix__i)" fill-rule="nonzero" d="M241.002 83.113L231.813 88.842 231.735 101.783 240.954 95.055z"/>
        <path fill="#9FEFFC" fill-rule="nonzero" d="M240.992 94.842L231.638 100.048 231.638 26.085 240.992 20.89zM114.481 47.227H120.026V176.472H114.481z"/>
        <path fill="#6979F8" fill-rule="nonzero" d="M103.217 206.696L28.732 236.33s-4.265 18.69 3.49 24.96c6.785 5.42 115.547 66.257 143.843 82.057 5.092 2.88 10.874 4.311 16.721 4.14 7.503-.243 17.904-1.775 26.61-7.436 15.596-10.13 258.925-148.176 258.925-148.176s14.055-9.354 3.683-30.884c-7.047-14.618-59.8-16.644-59.8-16.644l-318.987 62.35z"/>
        <path fill="url(#prefix__j)" fill-rule="nonzero" d="M103.217 206.696L28.732 236.33s-4.265 18.69 3.49 24.96c6.785 5.4 114.762 65.82 143.533 81.883 5.581 3.114 11.927 4.592 18.31 4.265 7.378-.378 17.11-2.036 25.33-7.387 15.597-10.13 258.926-148.176 258.926-148.176s14.055-9.354 3.683-30.884c-7.047-14.618-59.8-16.644-59.8-16.644l-318.987 62.35z"/>
        <path fill="#6979F8" fill-rule="nonzero" d="M103.217 186.417l-67.07 38.998s-11.68 9.354-3.925 15.597c7.134 5.7 126.986 72.624 147.526 84.111 2.168 1.212 4.586 1.909 7.067 2.036 6.892.358 21.19 0 32.58-7.377 15.597-10.14 258.926-148.186 258.926-148.186s10.14-9.354-3.122-18.718c-13.26-9.364-53.033-28.848-53.033-28.848l-318.949 62.387z"/>
        <path fill="url(#prefix__k)" fill-rule="nonzero" d="M106.242 192.428L52.946 224.513 207.666 309.894 458.129 166.032 418.54 144.561z"/>
        <path fill="#6979F8" fill-rule="nonzero" d="M104.516 170.821L316.641 46.035 426.092 109.208 210.836 233.994z"/>
        <path fill="url(#prefix__l)" fill-rule="nonzero" d="M150.396 155.611s3.121 15.597-7.018 18.33l56.543 34.316s18.718-4.682 30.806 0l162.61-94.367s-3.121-11.7 0-17.158l-61.583-31.194s-26.29 4.479-29.14.679L150.397 155.61z"/>
        <path fill="#6979F8" fill-rule="nonzero" d="M104.516 170.821L104.516 230.485 211.233 294.433 210.836 233.994z"/>
        <path fill="#6979F8" fill-rule="nonzero" d="M428.428 164.578L426.092 109.208 210.836 233.994 211.233 294.433z"/>
        <path fill="url(#prefix__m)" fill-rule="nonzero" d="M104.516 170.821L104.516 230.485 211.233 294.433 210.836 233.994z"/>
        <path fill="url(#prefix__n)" fill-rule="nonzero" d="M428.428 164.578L426.092 109.208 210.836 233.994 211.233 294.433z"/>
        <path fill="#6979F8" fill-rule="nonzero" d="M240.042 116.847l4.363 2.52c1.856-.786 3.767-1.434 5.719-1.939 7.755-2.123 14.24-.388 15.306 2.54 1.066 2.927-3.51 3.509-7.755 3.305-4.246-.203-2.908-3.8-2.908-3.8l-2.24-.096c-3.024-.873-13.745 5.36-10.236 9.693 3.51 4.333 18.127-1.754 18.127-1.754 21.646-3.316 22.422-2.143 27.685 2.908 5.264 5.05-3.877 11.496-3.877 11.496l5.07 4.295-3.122 1.366-6.039-3.712c-6.63 5.467-17.351 3.218-20.764 1.851-3.412-1.367-6.145-4.575.291-6.785 6.437-2.21 5.652 3.121 9.645 5.37 3.994 2.249 8.288-1.939 8.288-1.939l-12.96-7.755-2.733.582c-.291.097-17.061 3.412-22.906-1.939-5.846-5.35 2.53-11.41 2.53-11.41l-4.585-2.723 3.101-2.074z"/>
        <path fill="#6979F8" fill-rule="nonzero" d="M210.71 239.994L210.351 239.781 110.914 180.514 111.631 179.322 210.71 238.385 427.546 109.13 428.263 110.323z"/>
        <path fill="#6979F8" fill-rule="nonzero" d="M210.71 245.19L210.351 244.986 110.914 185.71 111.631 184.518 210.71 243.581 427.546 114.326 428.263 115.519z"/>
        <path fill="#6979F8" fill-rule="nonzero" d="M210.71 250.395L210.351 250.182 110.914 190.915 111.631 189.723 210.71 248.776 427.546 119.532 428.263 120.724z"/>
        <path fill="#6979F8" fill-rule="nonzero" d="M210.71 255.591L210.351 255.378 110.914 196.111 111.631 194.919 210.71 253.982 427.546 124.727 428.263 125.92z"/>
        <path fill="#6979F8" fill-rule="nonzero" d="M210.71 260.796L210.351 260.583 110.914 201.307 111.631 200.115 210.71 259.178 427.546 129.923 428.263 131.116z"/>
        <path fill="#6979F8" fill-rule="nonzero" d="M210.71 265.992L210.351 265.779 110.914 206.512 111.631 205.32 210.71 264.383 427.546 135.129 428.263 136.321z"/>
        <path fill="#6979F8" fill-rule="nonzero" d="M210.71 271.188L210.351 270.984 110.914 211.708 111.631 210.516 210.71 269.579 427.546 140.324 428.263 141.517z"/>
        <path fill="#6979F8" fill-rule="nonzero" d="M210.71 276.393L210.351 276.18 110.914 216.904 111.631 215.721 210.71 274.775 427.546 145.53 428.263 146.713z"/>
        <path fill="#6979F8" fill-rule="nonzero" d="M210.71 281.589L210.351 281.376 110.914 222.109 111.631 220.917 210.71 279.98 427.546 150.726 428.263 151.918z"/>
        <path fill="url(#prefix__o)" fill-rule="nonzero" d="M267.291 153.42c-2.11 2.652-2.574 6.256-1.202 9.355 1.088 2.06 2.617 3.853 4.479 5.254 6.488 5.507 13.85 9.893 21.781 12.98 1.803.707 3.722 1.395 4.992 2.86 1.483 1.725 1.765 4.158 1.939 6.426l2.423 25.31c.223 2.365.66 5.08 2.695 6.291 2.036 1.212 4.624.29 6.107-1.435 1.368-1.829 2.167-4.02 2.298-6.3 1.085-8.89-.97-18.7 3.81-26.29.996 5.675 2.676 11.208 5.001 16.48 1.299 2.908 4.1 6.29 7.018 4.963 2.046-.97 2.491-3.626 2.55-5.875.29-11.405-2.055-22.723-6.854-33.074-1.023-2.459-2.489-4.71-4.323-6.64-2.16-1.855-4.613-3.336-7.26-4.382l-12.864-5.922c-3-1.526-6.169-2.69-9.442-3.47-5.719-1.077-19.047-1.561-23.148 3.47z"/>
        <path fill="#6979F8" fill-rule="nonzero" d="M210.71 286.659L210.351 286.446 110.914 227.179 111.631 225.987 210.71 285.05 427.546 155.795 428.263 156.988z"/>
        <path fill="#6979F8" fill-rule="nonzero" d="M210.71 291.729L210.351 291.515 110.914 232.249 111.631 231.056 210.71 290.12 427.546 160.865 428.263 162.057z"/>
        <path stroke="#9FEFFC" stroke-width="5.535" d="M271.41 132.608l10.14 6.369s4.934-3.121 3.374-5.205c-1.56-2.085-9.878-3.374-13.513-1.164z"/>
        <path fill="#606161" fill-rule="nonzero" d="M280.455 165.634c4.362 4.73 10.275 7.804 16.402 9.8 2.762.902 5.893 1.852 7.221 4.43.606 1.413.878 2.945.795 4.48.144 7.61-.105 15.223-.746 22.808-.407 4.847-.727 10.314 2.704 13.707 1.56 1.344 3.364 2.377 5.312 3.044l5.817 2.384c1.318.553 2.956 1.057 4.08.184 1.125-.872.97-2.791.204-4.032-.95-1.133-1.97-2.204-3.053-3.209-2.967-3.422-2.618-8.51-2.21-13.028.568-6.281.914-12.576 1.037-18.883.145-7.231-.291-15.21-5.274-20.444-2.733-2.908-6.514-4.517-9.422-7.222-2.762-2.578-4.624-6.01-7.338-8.646-4.662-4.508-18.418-14.618-20.763-8.385-4.683 12.553 1.657 19.125 5.234 23.012z"/>
        <path fill="#606161" fill-rule="nonzero" d="M324.716 155.766c2.976 1.862 6.068 3.878 7.755 6.892 1.493 2.637 1.793 5.749 1.997 8.725.556 7.87.717 15.755.484 23.652-.116 4.207-.213 8.84 2.463 12.088 1.599 1.939 4.274 3.77 3.703 6.223-.524 2.23-3.364 2.908-5.652 2.84-2.907.05-5.752-.849-8.104-2.559-3.877-3.13-4.44-8.724-4.74-13.648l-1.095-18.418c-.184-3.083-.456-6.398-2.433-8.773-1.333-1.425-2.97-2.532-4.789-3.237-7.445-3.422-16.13-5.758-20.735-12.544-2.132-3.16-3.014-7.668-.649-10.663 7.532-9.49 25.572 5.526 31.795 9.422z"/>
        <path fill="#FFF" fill-rule="nonzero" d="M317.62 133.51c-.257 1.334-.664 2.634-1.211 3.877-.148.357-.358.686-.62.97-.254.15-.529.261-.815.33-4.188 1.066-8.637-1.212-11.245-4.596-.019.365-.019.731 0 1.096.015 1.304-.122 2.605-.407 3.877-.766 3.122-3.199 5.516-5.515 7.755-.785.82-1.702 1.503-2.715 2.016-1.022.388-2.105.589-3.199.592-2.384.116-4.778.145-7.202.145-2.344.108-4.687-.221-6.911-.97-3.176-1.464-5.692-4.06-7.057-7.28-1.325-3.195-2.253-6.542-2.763-9.964-.424-2.033-.667-4.1-.727-6.175.03-1.795.264-3.58.698-5.322.622-2.832 1.468-5.61 2.53-8.307 1.473-3.645 2.656-12.078 6.262-14.25 4.75-2.687 10.246-3.753 15.655-3.034 1.619.184 13.571 3.878 14.88 6.398 2.2 4.159 3.674 10.479 4.12 15.112.048 2.312.318 4.613.804 6.873.839 2.519 2.226 4.82 4.062 6.737.663.618 1.169 1.386 1.473 2.24.094.626.06 1.266-.097 1.88z"/>
        <path fill="url(#prefix__p)" fill-rule="nonzero" d="M301.985 137.048c.008-1.05-.252-2.084-.757-3.005-.528-.931-1.538-1.483-2.607-1.425-2.065.242-2.724 3.063-4.556 4.052-1.348.727-3.005.3-4.45-.223-2.636-.952-5.172-2.163-7.57-3.616-.476-.248-.887-.603-1.202-1.037-.248-.48-.377-1.011-.378-1.55-.407-5.759.678-11.546.106-17.285-.028-1.739-.647-3.417-1.754-4.76-.283-.332-.689-.535-1.125-.561-.473.087-.893.354-1.173.746-2.623 3.18-4.242 7.066-4.652 11.167-.396 4.075-.341 8.18.164 12.243.087 1.555.357 3.094.805 4.585.942 2.568 2.795 4.7 5.205 5.99 2.412 1.265 5.145 1.785 7.852 1.494 1.602-.278 3.222-.44 4.847-.485.872 0 1.735.223 2.608.184.965-.086 1.914-.304 2.82-.65 3.597-1.172 5.817-1.59 5.817-5.864z"/>
        <path fill="#FFF" fill-rule="nonzero" d="M271.837 99.97c-.898 1.124-1.605 2.388-2.093 3.742-3.47 8.443-5.08 17.516-6.66 26.512-.669 3.8-1.24 8.074.97 11.215 1.309 1.617 3.016 2.867 4.953 3.626 4.89 2.228 10.252 3.226 15.616 2.908 1.33-2.866 2.16-5.938 2.453-9.083l-6.931-3.248c-.824-.196-1.531-.723-1.957-1.456-.425-.733-.53-1.608-.292-2.421l2.481-24.922c.053-1.138.275-2.262.66-3.335 1.23-2.908 4.556-5.961-.272-6.708-3.301-.341-6.58.823-8.928 3.17z"/>
        <path fill="url(#prefix__q)" fill-rule="nonzero" d="M309.138 137.998c-.523.582-1.318 1.115-1.25 1.89.048.562.543.97.863 1.416.516.987.76 2.095.707 3.208-.048 1.126.445 2.207 1.328 2.908.99.487 2.18.288 2.957-.494.751-.776 1.271-1.746 1.502-2.802.58-2.017.806-4.119.67-6.213.007-1.167-.368-2.304-1.067-3.238-3.238-3.732-4.256 1.716-5.71 3.325z"/>
        <path fill="#6979F8" fill-rule="nonzero" d="M303.196 131.368c.047-.312.174-.606.369-.853.27-.24.61-.39.969-.427 2.975-.571 6.013-.747 9.034-.523-.13 4.302-1.03 8.547-2.656 12.533-.363 1.248-1.076 2.365-2.055 3.219-1.308.969-3.053.901-4.653.824-.74.035-1.475-.158-2.103-.553-1.58-1.28-.572-4.575-.446-6.31.32-2.671.836-5.315 1.541-7.91z"/>
        <path fill="url(#prefix__r)" fill-rule="nonzero" d="M287.357 97.275c1.231.718 5.002 5.37 6.417 5.467 1.462.144 2.8-.825 3.121-2.258.012-.686-.082-1.37-.28-2.026-.563-2.83.746-5.913-.33-8.589-.56-1.408-1.736-2.48-3.19-2.908-1.424-.397-5.816-3.46-6-1.938-.514 3.712-.514 11.797.262 12.252z"/>
        <path fill="url(#prefix__s)" fill-rule="nonzero" d="M287.425 86.35s1.289 8.153 5.302 10.48c4.013 2.326 3.82.067 3.82.067l.445-5.438-9.567-5.108z"/>
        <path fill="url(#prefix__t)" fill-rule="nonzero" d="M288.607 78.276c-1.187 1.528-1.817 3.416-1.783 5.35.042 1.924.436 3.823 1.163 5.604.49 1.62 1.472 3.046 2.811 4.08 1.088.612 2.31.945 3.558.97 1.503.203 3.033-.04 4.4-.698 1.163-.748 2.117-1.778 2.773-2.995.948-1.536 1.746-3.16 2.385-4.847.948-2.28 1.36-4.748 1.202-7.212-.173-2.49-1.405-4.788-3.384-6.31-1.075-.677-2.269-1.144-3.518-1.377-1.265-.34-2.59-.394-3.878-.155-1.948.52-3.617 1.779-4.653 3.509-1.017 1.715-1.738 3.59-2.132 5.544"/>
        <path fill="#606161" fill-rule="nonzero" d="M306.705 79.274c-1.32.777-2.903.97-4.372.533-1.473-.32-2.908-.92-4.39-1.095-1.51-.287-3.063.213-4.12 1.328-.698.902-.97 2.259-2.085 2.598-.198.097-.43.097-.63 0-.378-.281-.155-.863-.068-1.328.204-1.125-1.386-2.491-2.5-2.278-1.115.213-1.716 3.024-1.62 4.847-.593-1.884-1.046-3.808-1.356-5.758-.027-2.302.44-4.582 1.366-6.689.949-2.127 2.687-3.803 4.847-4.672 1.672-.512 3.422-.715 5.167-.601 2.077-.098 4.156.124 6.165.659 3.906 1.26 7.823 9.451 3.596 12.456z"/>
        <path fill="url(#prefix__u)" fill-rule="nonzero" d="M294.918 142.777c.529.045 1.061-.024 1.56-.204.518-.32 1-.698 1.435-1.124 1.25-.97 2.966-1.047 4.556-1.066.33-.03.66.017.97.135.969.466.659 1.871.969 2.908.38.795.855 1.54 1.415 2.22.938 1.917.422 4.227-1.24 5.564-1.678 1.257-3.804 1.756-5.865 1.377-2.022-.394-3.98-1.066-5.816-1.997l-5.933-2.675c-1.386-.62-3.15-1.416-3.674-2.976-.503-1.232.047-2.642 1.25-3.209 1.251-.494 2.909.068 4.11.33 2.064.419 4.159.659 6.263.717z"/>
        <path fill="url(#prefix__v)" fill-rule="nonzero" d="M289.15 82.396c0-.282.243-.505.3-.776.038-.361-.13-.713-.436-.911-.026-.032-.064-.053-.106-.058-.087 0-.146.087-.184.164-.218.437-.39.895-.514 1.367-.123.479-.092.984.087 1.445.094.259.32.448.591.494.263-.033.488-.203.592-.446.147-.221.173-.502.068-.746-.146-.194-.446-.223-.398-.533z"/>
        <path fill="#6979F8" fill-rule="nonzero" d="M359.09 75.135v-7.813c-10.305-.863-16.315-6.96-17.178-15.2h7.561c.839 4.844 4.74 8.572 9.616 9.19V40.539c-11.419-3.442-15.887-7.755-15.887-15.714 0-8.666 6.698-14.424 15.887-15.025V3.955h4.896v5.923c11.419 1.115 15.102 8.501 15.626 13.823h-7.387c-.97-3.519-3.005-6.95-8.24-7.9v18.728c13.136 3.77 16.906 9.267 16.906 16.905 0 9.529-6.349 15.113-16.905 15.888v7.813h-4.896zm0-42.07V15.616c-6.185.524-8.415 4.207-8.415 8.327s1.978 6.892 8.414 9.093v.029zm4.895 8.928V61.38c5.923-.601 9.092-3.606 9.092-9.19 0-4.527-1.967-7.706-9.092-10.197z" opacity=".24"/>
        <path fill="#FFF" fill-rule="nonzero" d="M361.455 74.544V66.73c-10.305-.863-16.305-6.96-17.168-15.2h7.552c.838 4.843 4.74 8.572 9.616 9.19V39.947c-11.42-3.44-15.878-7.755-15.878-15.713 0-8.724 6.688-14.424 15.878-15.025V3.393h4.895v5.923c11.419 1.114 15.112 8.5 15.626 13.823h-7.386c-.97-3.52-3.005-6.96-8.24-7.9v18.698c13.135 3.771 16.915 9.267 16.915 16.906 0 9.529-6.359 15.112-16.915 15.888v7.813h-4.895zm0-42.07V15.025c-6.185.562-8.376 4.226-8.376 8.317 0 4.09 1.94 6.902 8.376 9.132zm4.895 8.927V60.79c5.923-.601 9.102-3.606 9.102-9.19 0-4.527-2.016-7.706-9.102-10.198z"/>
        <path fill="#6979F8" fill-rule="nonzero" d="M451.663 157.114v-6.398c-8.414-.698-13.319-5.68-14.017-12.408h6.165c.682 3.956 3.87 7.002 7.852 7.503v-16.964c-9.325-2.801-12.97-6.31-12.97-12.824 0-7.077 5.467-11.778 12.97-12.263v-4.808h3.994v4.847c9.325.911 12.34 6.94 12.757 11.283h-6.03c-.765-2.908-2.452-5.68-6.727-6.446v15.277c10.721 3.083 13.813 7.57 13.813 13.804 0 7.755-5.195 12.34-13.813 12.97v6.427h-3.994zm0-34.345v-14.25c-5.05.427-6.872 3.432-6.872 6.786 0 3.354 1.618 5.623 6.872 7.445v.02zm3.994 7.29v15.84c4.847-.495 7.425-2.909 7.425-7.504 0-3.732-1.609-6.32-7.425-8.355v.019z" opacity=".24"/>
        <path fill="#FFF" fill-rule="nonzero" d="M453.592 156.61v-6.379c-8.423-.698-13.27-5.719-14.017-12.407h6.175c.68 3.953 3.863 6.998 7.842 7.502v-16.963c-9.315-2.802-12.96-6.311-12.96-12.825 0-7.076 5.467-11.778 12.96-12.262v-4.77h4.004v4.847c9.315.911 12.33 6.94 12.757 11.283h-6.03c-.775-2.908-2.452-5.68-6.727-6.446v15.277c10.72 3.083 13.803 7.571 13.803 13.804 0 7.755-5.186 12.34-13.803 12.97v6.378l-4.004-.01zm0-34.345v-14.23c-5.04.427-6.863 3.441-6.863 6.786 0 3.344 1.61 5.622 6.863 7.444zm4.004 7.29v15.84c4.847-.485 7.425-2.909 7.425-7.494 0-3.722-1.61-6.31-7.425-8.346z"/>
        <path fill="#6979F8" fill-rule="nonzero" d="M42.206 183.286v-6.397c-8.404-.698-13.31-5.68-14.017-12.408h6.175c.68 3.953 3.863 6.998 7.842 7.503V155.02c-9.316-2.802-12.96-6.31-12.96-12.825 0-7.076 5.467-11.777 12.96-12.262v-4.808h4.003v4.847c9.316.91 12.33 6.94 12.757 11.283h-6.03c-.775-2.908-2.452-5.68-6.727-6.446v15.277c10.721 3.15 13.804 7.6 13.804 13.813 0 7.755-5.186 12.34-13.804 12.97v6.417h-4.003zm0-34.344v-14.25c-5.04.427-6.863 3.442-6.863 6.786 0 3.344 1.609 5.622 6.863 7.445v.02zm4.003 7.29v15.839c4.847-.485 7.426-2.908 7.426-7.493 0-3.742-1.61-6.33-7.426-8.366v.02z" opacity=".24"/>
        <path fill="#FFF" fill-rule="nonzero" d="M44.145 182.782v-6.378c-8.414-.698-13.32-5.67-14.017-12.408h6.165c.68 3.956 3.868 7.002 7.852 7.503v-16.964c-9.326-2.801-12.97-6.3-12.97-12.824 0-7.077 5.467-11.778 12.97-12.263v-4.769h3.993v4.847c9.326.911 12.34 6.94 12.757 11.283h-6.03c-.765-2.908-2.452-5.68-6.727-6.446v15.277c10.731 3.083 13.814 7.57 13.814 13.813 0 7.755-5.186 12.33-13.814 12.96v6.38l-3.993-.01zm0-34.344v-14.22c-5.05.416-6.873 3.431-6.873 6.785s1.619 5.613 6.873 7.435zm3.993 7.29v15.839c4.847-.485 7.435-2.908 7.435-7.493 0-3.713-1.618-6.31-7.435-8.346z"/>
        <path fill="#6979F8" fill-rule="nonzero" d="M347.864 114.947v-3.655c-4.847-.397-7.619-3.247-8.026-7.096h3.548c.384 2.265 2.208 4.01 4.488 4.295v-9.694c-5.331-1.609-7.416-3.616-7.416-7.338 0-4.052 3.122-6.737 7.416-7.018v-2.724h2.297v2.763c5.332.523 7.057 3.974 7.29 6.456h-3.412c-.373-1.932-1.93-3.415-3.878-3.694v8.725c6.136 1.764 7.9 4.333 7.9 7.9 0 4.45-2.975 7.057-7.9 7.415v3.655l-2.307.01zm0-19.65v-8.142c-2.908.242-3.935 1.939-3.935 3.878 0 1.938.93 3.218 3.935 4.265zm2.288 4.169v9.063c2.763-.28 4.246-1.686 4.246-4.294 0-2.123-.921-3.606-4.227-4.769h-.019z" opacity=".24"/>
        <path fill="#FFF" fill-rule="nonzero" d="M348.97 114.666v-3.645c-4.847-.407-7.62-3.248-8.017-7.096h3.528c.389 2.261 2.212 4.002 4.488 4.285v-9.694c-5.331-1.6-7.415-3.606-7.415-7.338 0-4.052 3.121-6.737 7.415-7.018v-2.724h2.288v2.763c5.332.523 7.057 3.974 7.3 6.455h-3.452c-.373-1.93-1.93-3.409-3.877-3.683v8.724c6.136 1.764 7.9 4.323 7.9 7.89 0 4.46-2.966 7.067-7.9 7.426v3.645l-2.259.01zm0-19.65v-8.132c-2.909.232-3.927 1.938-3.927 3.877 0 1.939.921 3.218 3.926 4.256zm2.287 4.169v9.063c2.763-.28 4.246-1.677 4.246-4.284 0-2.104-.921-3.616-4.246-4.78z"/>
    </g>
</svg>
