<svg xmlns="http://www.w3.org/2000/svg" width="498" height="348" viewBox="0 0 498 348">
    <defs>
        <linearGradient id="prefix__a" x1="48.929%" x2="54.786%" y1="-3.583%" y2="286.033%">
            <stop offset="0%" stop-color="#010101" stop-opacity="0"/>
            <stop offset="95%" stop-color="#010101"/>
        </linearGradient>
        <linearGradient id="prefix__b" x1="48.919%" x2="54.763%" y1="-3.581%" y2="285.937%">
            <stop offset="0%" stop-color="#010101" stop-opacity="0"/>
            <stop offset="95%" stop-color="#010101"/>
        </linearGradient>
        <linearGradient id="prefix__c" x1="38.886%" x2="63.772%" y1="15.965%" y2="93.72%">
            <stop offset="0%" stop-color="#010101" stop-opacity="0"/>
            <stop offset="95%" stop-color="#010101"/>
        </linearGradient>
        <linearGradient id="prefix__d" x1="45.418%" x2="58.516%" y1="-67.609%" y2="268.585%">
            <stop offset="0%" stop-color="#010101" stop-opacity="0"/>
            <stop offset="95%" stop-color="#010101"/>
        </linearGradient>
        <linearGradient id="prefix__e" x1="44.755%" x2="62.355%" y1="-66.132%" y2="323.59%">
            <stop offset="0%" stop-color="#010101" stop-opacity="0"/>
            <stop offset="95%" stop-color="#010101"/>
        </linearGradient>
        <linearGradient id="prefix__f" x1=".904%" x2="148.398%" y1="-420.291%" y2="992.579%">
            <stop offset="0%" stop-color="#010101" stop-opacity="0"/>
            <stop offset="95%" stop-color="#010101"/>
        </linearGradient>
        <linearGradient id="prefix__g" x1="47.279%" x2="59.828%" y1="-21.371%" y2="307.724%">
            <stop offset="0%" stop-color="#010101" stop-opacity="0"/>
            <stop offset="95%" stop-color="#010101"/>
        </linearGradient>
        <linearGradient id="prefix__h" x1="49.436%" x2="51.252%" y1="-12.913%" y2="189.714%">
            <stop offset="0%" stop-color="#010101" stop-opacity="0"/>
            <stop offset="95%" stop-color="#010101"/>
        </linearGradient>
        <linearGradient id="prefix__i" x1="48.918%" x2="54.768%" y1="-3.634%" y2="286.033%">
            <stop offset="0%" stop-color="#010101" stop-opacity="0"/>
            <stop offset="95%" stop-color="#010101"/>
        </linearGradient>
        <linearGradient id="prefix__j" x1="-.001%" x2="99.998%" y1="49.987%" y2="49.987%">
            <stop offset="0%" stop-color="#010101" stop-opacity="0"/>
            <stop offset="95%" stop-color="#010101"/>
        </linearGradient>
        <linearGradient id="prefix__k" x1="29.379%" x2="135.125%" y1="37.27%" y2="86.049%">
            <stop offset="0%" stop-color="#010101" stop-opacity="0"/>
            <stop offset="95%" stop-color="#010101"/>
        </linearGradient>
        <linearGradient id="prefix__l" x1="-32.172%" x2="100.12%" y1="11.725%" y2="72.77%">
            <stop offset="0%" stop-color="#FFF" stop-opacity="0"/>
            <stop offset="95%" stop-color="#FFF"/>
        </linearGradient>
        <linearGradient id="prefix__m" x1="0%" x2="100%" y1="50%" y2="50%">
            <stop offset="0%" stop-color="#010101" stop-opacity="0"/>
            <stop offset="95%" stop-color="#010101"/>
        </linearGradient>
        <linearGradient id="prefix__n" x1="0%" x2="100%" y1="50%" y2="50%">
            <stop offset="0%" stop-color="#010101" stop-opacity="0"/>
            <stop offset="95%" stop-color="#010101"/>
        </linearGradient>
    </defs>
    <g fill="none">
        <path fill="#6979F8" d="M147.789 323.359c-41.683 4.847-84.945-23.129-97.557-63.202-4.934-15.704-5.7-32.959-13.852-47.237-7.386-12.99-20.143-22.218-27.83-35.023-18.01-29.982-1.842-71.19 26.328-91.876 28.17-20.686 64.569-25.843 99.388-29.168 34.82-3.325 70.947-5.622 101.783-22.082 17.041-9.102 31.989-22.295 50.232-28.664 13.077-4.566 27.142-5.36 40.984-5.884 22.616-.853 48.052 0 63.716 16.305 17.449 18.146 17.207 50.338 38.59 63.57 9.646 5.962 21.646 6.505 32.145 10.78 19.61 7.977 31.988 28.644 34.76 49.64 2.698 21.484-3.181 43.165-16.362 60.343-7.028 9.054-15.878 16.48-24.65 23.885-18.419 15.51-37.108 31.165-58.783 41.682-13.29 6.437-27.627 10.867-40.005 18.922-16.819 10.925-28.916 27.83-44.891 40.045-34.635 26.444-83.365 27.142-125.048 14.424-20.608-6.282-41.779-15.607-62.853-11.148" opacity=".24"/>
        <path fill="url(#prefix__a)" d="M238.414 83.627L229.224 89.365 229.137 102.296 238.375 95.569z"/>
        <path fill="#9FEFFC" d="M71.607 205.95L71.607 63.125 77.151 63.125 77.151 195.859 291.787 59.228 294.763 63.9z"/>
        <path fill="#9FEFFC" d="M153.934 148.913L144.57 154.109 144.57 81.843 153.934 76.647 159.101 75.61zM203.061 118.882L193.707 124.088 193.707 62.601 203.061 57.405 208.238 56.368z"/>
        <path fill="url(#prefix__b)" d="M235.826 84.14L226.646 89.879 226.559 102.82 235.787 96.093z"/>
        <path fill="#9FEFFC" d="M235.816 95.879L226.462 101.085 226.462 27.123 235.816 21.917 240.992 20.89zM271.004 87.601L261.649 92.797 261.649 18.844 271.004 13.639 276.18 12.611zM109.305 47.266H114.85000000000001V177.509H109.305z"/>
        <path fill="url(#prefix__c)" d="M71.607 205.95L71.607 63.125 77.151 63.125 77.151 195.859 291.787 59.228 294.763 63.9z"/>
        <path fill="url(#prefix__d)" d="M153.934 148.913L144.57 154.109 144.57 81.843 153.934 76.647 159.101 75.61z"/>
        <path fill="url(#prefix__e)" d="M203.061 118.882L193.707 124.088 193.707 62.601 203.061 57.405 208.238 56.368z"/>
        <path fill="url(#prefix__f)" d="M235.826 84.14L226.646 89.879 226.559 102.82 235.787 96.093z"/>
        <path fill="url(#prefix__g)" d="M235.816 97.004L226.462 102.2 226.462 28.237 235.816 23.042 240.992 22.004zM271.004 87.688L261.649 92.884 261.649 18.922 271.004 13.726 276.18 12.689z"/>
        <path fill="#9FEFFC" d="M276.762 73.652L267.407 78.848 267.407 17.371 276.762 12.175z"/>
        <path fill="url(#prefix__h)" d="M109.305 47.266H114.85000000000001V177.509H109.305z"/>
        <path fill="#9FEFFC" d="M76.783 204.923L76.783 63.096 82.328 63.096 82.328 194.822 296.963 58.191 299.929 62.873z"/>
        <path fill="#9FEFFC" d="M159.101 147.876L149.747 153.081 149.747 80.806 159.101 75.61zM208.238 117.855L198.883 123.05 198.883 61.574 208.238 56.368z"/>
        <path fill="url(#prefix__i)" d="M241.002 83.113L231.813 88.842 231.735 101.783 240.954 95.055z"/>
        <path fill="#9FEFFC" d="M240.992 94.842L231.638 100.048 231.638 26.085 240.992 20.89zM114.481 47.227H120.026V176.472H114.481z"/>
        <path fill="#6979F8" d="M103.217 206.696L28.732 236.33s-4.265 18.69 3.49 24.96c6.785 5.42 115.547 66.257 143.843 82.057 5.092 2.88 10.874 4.311 16.721 4.14 7.503-.243 17.904-1.775 26.61-7.436 15.596-10.13 258.925-148.176 258.925-148.176s14.055-9.354 3.683-30.884c-7.047-14.618-59.8-16.644-59.8-16.644l-318.987 62.35z"/>
        <path fill="url(#prefix__j)" d="M103.217 206.696L28.732 236.33s-4.265 18.69 3.49 24.96c6.785 5.4 114.762 65.82 143.533 81.883 5.581 3.114 11.927 4.592 18.31 4.265 7.378-.378 17.11-2.036 25.33-7.387 15.597-10.13 258.926-148.176 258.926-148.176s14.055-9.354 3.683-30.884c-7.047-14.618-59.8-16.644-59.8-16.644l-318.987 62.35z"/>
        <path fill="#6979F8" d="M103.217 186.417l-67.07 38.998s-11.68 9.354-3.925 15.597c7.134 5.7 126.986 72.624 147.526 84.111 2.168 1.212 4.586 1.909 7.067 2.036 6.892.358 21.19 0 32.58-7.377 15.597-10.14 258.926-148.186 258.926-148.186s10.14-9.354-3.122-18.718c-13.26-9.364-53.033-28.848-53.033-28.848l-318.949 62.387z"/>
        <path fill="url(#prefix__k)" d="M106.242 192.428L52.946 224.513 207.666 309.894 458.129 166.032 418.54 144.561z"/>
        <path fill="#6979F8" d="M104.516 170.821L316.641 46.035 426.092 109.208 210.836 233.994z"/>
        <path fill="url(#prefix__l)" d="M150.396 155.611s3.121 15.597-7.018 18.33l56.543 34.316s18.718-4.682 30.806 0l162.61-94.367s-3.121-11.7 0-17.158l-61.583-31.194s-26.29 4.479-29.14.679L150.397 155.61z"/>
        <path fill="#6979F8" d="M104.516 170.821L104.516 230.485 211.233 294.433 210.836 233.994z"/>
        <path fill="#6979F8" d="M428.428 164.578L426.092 109.208 210.836 233.994 211.233 294.433z"/>
        <path fill="url(#prefix__m)" d="M104.516 170.821L104.516 230.485 211.233 294.433 210.836 233.994z"/>
        <path fill="url(#prefix__n)" d="M428.428 164.578L426.092 109.208 210.836 233.994 211.233 294.433z"/>
        <path fill="#6979F8" d="M210.71 239.994L210.351 239.781 110.914 180.514 111.631 179.322 210.71 238.385 427.546 109.13 428.263 110.323z"/>
        <path fill="#6979F8" d="M210.71 245.19L210.351 244.986 110.914 185.71 111.631 184.518 210.71 243.581 427.546 114.326 428.263 115.519z"/>
        <path fill="#6979F8" d="M210.71 250.395L210.351 250.182 110.914 190.915 111.631 189.723 210.71 248.776 427.546 119.532 428.263 120.724z"/>
        <path fill="#6979F8" d="M210.71 255.591L210.351 255.378 110.914 196.111 111.631 194.919 210.71 253.982 427.546 124.727 428.263 125.92z"/>
        <path fill="#6979F8" d="M210.71 260.796L210.351 260.583 110.914 201.307 111.631 200.115 210.71 259.178 427.546 129.923 428.263 131.116z"/>
        <path fill="#6979F8" d="M210.71 265.992L210.351 265.779 110.914 206.512 111.631 205.32 210.71 264.383 427.546 135.129 428.263 136.321z"/>
        <path fill="#6979F8" d="M210.71 271.188L210.351 270.984 110.914 211.708 111.631 210.516 210.71 269.579 427.546 140.324 428.263 141.517z"/>
        <path fill="#6979F8" d="M210.71 276.393L210.351 276.18 110.914 216.904 111.631 215.721 210.71 274.775 427.546 145.53 428.263 146.713z"/>
        <path fill="#6979F8" d="M210.71 281.589L210.351 281.376 110.914 222.109 111.631 220.917 210.71 279.98 427.546 150.726 428.263 151.918z"/>
        <path fill="#6979F8" d="M210.71 286.659L210.351 286.446 110.914 227.179 111.631 225.987 210.71 285.05 427.546 155.795 428.263 156.988z"/>
        <path fill="#6979F8" d="M210.71 291.729L210.351 291.515 110.914 232.249 111.631 231.056 210.71 290.12 427.546 160.865 428.263 162.057z"/>
        <path fill="#6979F8" d="M359.09 75.135v-7.813c-10.305-.863-16.315-6.96-17.178-15.2h7.561c.839 4.844 4.74 8.572 9.616 9.19V40.539c-11.419-3.442-15.887-7.755-15.887-15.714 0-8.666 6.698-14.424 15.887-15.025V3.955h4.896v5.923c11.419 1.115 15.102 8.501 15.626 13.823h-7.387c-.97-3.519-3.005-6.95-8.24-7.9v18.728c13.136 3.77 16.906 9.267 16.906 16.905 0 9.529-6.349 15.113-16.905 15.888v7.813h-4.896zm0-42.07V15.616c-6.185.524-8.415 4.207-8.415 8.327s1.978 6.892 8.414 9.093v.029zm4.895 8.928V61.38c5.923-.601 9.092-3.606 9.092-9.19 0-4.527-1.967-7.706-9.092-10.197z" opacity=".24"/>
        <path fill="#FFF" d="M361.455 74.544V66.73c-10.305-.863-16.305-6.96-17.168-15.2h7.552c.838 4.843 4.74 8.572 9.616 9.19V39.947c-11.42-3.44-15.878-7.755-15.878-15.713 0-8.724 6.688-14.424 15.878-15.025V3.393h4.895v5.923c11.419 1.114 15.112 8.5 15.626 13.823h-7.386c-.97-3.52-3.005-6.96-8.24-7.9v18.698c13.135 3.771 16.915 9.267 16.915 16.906 0 9.529-6.359 15.112-16.915 15.888v7.813h-4.895zm0-42.07V15.025c-6.185.562-8.376 4.226-8.376 8.317 0 4.09 1.94 6.902 8.376 9.132zm4.895 8.927V60.79c5.923-.601 9.102-3.606 9.102-9.19 0-4.527-2.016-7.706-9.102-10.198z"/>
        <path fill="#6979F8" d="M451.663 157.114v-6.398c-8.414-.698-13.319-5.68-14.017-12.408h6.165c.682 3.956 3.87 7.002 7.852 7.503v-16.964c-9.325-2.801-12.97-6.31-12.97-12.824 0-7.077 5.467-11.778 12.97-12.263v-4.808h3.994v4.847c9.325.911 12.34 6.94 12.757 11.283h-6.03c-.765-2.908-2.452-5.68-6.727-6.446v15.277c10.721 3.083 13.813 7.57 13.813 13.804 0 7.755-5.195 12.34-13.813 12.97v6.427h-3.994zm0-34.345v-14.25c-5.05.427-6.872 3.432-6.872 6.786 0 3.354 1.618 5.623 6.872 7.445v.02zm3.994 7.29v15.84c4.847-.495 7.425-2.909 7.425-7.504 0-3.732-1.609-6.32-7.425-8.355v.019z" opacity=".24"/>
        <path fill="#FFF" d="M453.592 156.61v-6.379c-8.423-.698-13.27-5.719-14.017-12.407h6.175c.68 3.953 3.863 6.998 7.842 7.502v-16.963c-9.315-2.802-12.96-6.311-12.96-12.825 0-7.076 5.467-11.778 12.96-12.262v-4.77h4.004v4.847c9.315.911 12.33 6.94 12.757 11.283h-6.03c-.775-2.908-2.452-5.68-6.727-6.446v15.277c10.72 3.083 13.803 7.571 13.803 13.804 0 7.755-5.186 12.34-13.803 12.97v6.378l-4.004-.01zm0-34.345v-14.23c-5.04.427-6.863 3.441-6.863 6.786 0 3.344 1.61 5.622 6.863 7.444zm4.004 7.29v15.84c4.847-.485 7.425-2.909 7.425-7.494 0-3.722-1.61-6.31-7.425-8.346z"/>
        <path fill="#6979F8" d="M42.206 183.286v-6.397c-8.404-.698-13.31-5.68-14.017-12.408h6.175c.68 3.953 3.863 6.998 7.842 7.503V155.02c-9.316-2.802-12.96-6.31-12.96-12.825 0-7.076 5.467-11.777 12.96-12.262v-4.808h4.003v4.847c9.316.91 12.33 6.94 12.757 11.283h-6.03c-.775-2.908-2.452-5.68-6.727-6.446v15.277c10.721 3.15 13.804 7.6 13.804 13.813 0 7.755-5.186 12.34-13.804 12.97v6.417h-4.003zm0-34.344v-14.25c-5.04.427-6.863 3.442-6.863 6.786 0 3.344 1.609 5.622 6.863 7.445v.02zm4.003 7.29v15.839c4.847-.485 7.426-2.908 7.426-7.493 0-3.742-1.61-6.33-7.426-8.366v.02z" opacity=".24"/>
        <path fill="#FFF" d="M44.145 182.782v-6.378c-8.414-.698-13.32-5.67-14.017-12.408h6.165c.68 3.956 3.868 7.002 7.852 7.503v-16.964c-9.326-2.801-12.97-6.3-12.97-12.824 0-7.077 5.467-11.778 12.97-12.263v-4.769h3.993v4.847c9.326.911 12.34 6.94 12.757 11.283h-6.03c-.765-2.908-2.452-5.68-6.727-6.446v15.277c10.731 3.083 13.814 7.57 13.814 13.813 0 7.755-5.186 12.33-13.814 12.96v6.38l-3.993-.01zm0-34.344v-14.22c-5.05.416-6.873 3.431-6.873 6.785s1.619 5.613 6.873 7.435zm3.993 7.29v15.839c4.847-.485 7.435-2.908 7.435-7.493 0-3.713-1.618-6.31-7.435-8.346z"/>
        <path fill="#6979F8" d="M347.864 114.947v-3.655c-4.847-.397-7.619-3.247-8.026-7.096h3.548c.384 2.265 2.208 4.01 4.488 4.295v-9.694c-5.331-1.609-7.416-3.616-7.416-7.338 0-4.052 3.122-6.737 7.416-7.018v-2.724h2.297v2.763c5.332.523 7.057 3.974 7.29 6.456h-3.412c-.373-1.932-1.93-3.415-3.878-3.694v8.725c6.136 1.764 7.9 4.333 7.9 7.9 0 4.45-2.975 7.057-7.9 7.415v3.655l-2.307.01zm0-19.65v-8.142c-2.908.242-3.935 1.939-3.935 3.878 0 1.938.93 3.218 3.935 4.265zm2.288 4.169v9.063c2.763-.28 4.246-1.686 4.246-4.294 0-2.123-.921-3.606-4.227-4.769h-.019z" opacity=".24"/>
        <path fill="#FFF" d="M348.97 114.666v-3.645c-4.847-.407-7.62-3.248-8.017-7.096h3.528c.389 2.261 2.212 4.002 4.488 4.285v-9.694c-5.331-1.6-7.415-3.606-7.415-7.338 0-4.052 3.121-6.737 7.415-7.018v-2.724h2.288v2.763c5.332.523 7.057 3.974 7.3 6.455h-3.452c-.373-1.93-1.93-3.409-3.877-3.683v8.724c6.136 1.764 7.9 4.323 7.9 7.89 0 4.46-2.966 7.067-7.9 7.426v3.645l-2.259.01zm0-19.65v-8.132c-2.909.232-3.927 1.938-3.927 3.877 0 1.939.921 3.218 3.926 4.256zm2.287 4.169v9.063c2.763-.28 4.246-1.677 4.246-4.284 0-2.104-.921-3.616-4.246-4.78z"/>
    </g>
</svg>
