<?xml version="1.0" encoding="UTF-8"?>
<svg width="155px" height="108px" viewBox="0 0 155 108" version="1.1" xmlns="http://www.w3.org/2000/svg" xmlns:xlink="http://www.w3.org/1999/xlink">
    <title>3ACF316A-E168-4C7F-BD91-AD73835EE494</title>
    <g id="Landing-Page" stroke="none" stroke-width="1" fill="none" fill-rule="evenodd" fill-opacity="0.25">
        <g id="New-Landing-Page" transform="translate(-643.000000, -3242.000000)" fill="#6979F8">
            <path d="M708.954545,3242 C711.439827,3242 713.454545,3244.01472 713.454545,3246.5 L713.454545,3322.87817 C713.454545,3324.36828 712.716908,3325.76175 711.484633,3326.59955 L678.211906,3349.22098 C676.156645,3350.61831 673.357768,3350.08495 671.96044,3348.02969 C671.453099,3347.28347 671.181818,3346.40196 671.181818,3345.49961 L671.181818,3317.17828 C671.181818,3315.68817 671.919456,3314.2947 673.151731,3313.4569 L682.147,3307.34 L647.5,3307.34065 C645.014719,3307.34065 643,3305.32594 643,3302.84065 L643,3246.5 C643,3244.01472 645.014719,3242 647.5,3242 L708.954545,3242 Z M798,3322.87817 C798,3324.36828 797.262362,3325.76175 796.030087,3326.59955 L762.75736,3349.22098 C760.7021,3350.61831 757.903223,3350.08495 756.505894,3348.02969 C755.998554,3347.28347 755.727273,3346.40196 755.727273,3345.49961 L755.727273,3317.17828 C755.727273,3315.68817 756.46491,3314.2947 757.697185,3313.4569 L766.693,3307.34 L732.045455,3307.34065 C729.560173,3307.34065 727.545455,3305.32594 727.545455,3302.84065 L727.545455,3246.5 C727.545455,3244.01472 729.560173,3242 732.045455,3242 L793.5,3242 C795.985281,3242 798,3244.01472 798,3246.5 L798,3322.87817 Z" id="quote"></path>
        </g>
    </g>
</svg>