<svg xmlns="http://www.w3.org/2000/svg" width="478" height="347" viewBox="0 0 478 347">
    <defs>
        <linearGradient id="prefix__a" x1="40.042%" x2="90.434%" y1="28.615%" y2="136.965%">
            <stop offset="0%" stop-color="#010101" stop-opacity="0"/>
            <stop offset="95%" stop-color="#010101"/>
        </linearGradient>
        <linearGradient id="prefix__b" x1="50.114%" x2="49.848%" y1="12.902%" y2="99.818%">
            <stop offset="0%" stop-color="#010101" stop-opacity="0"/>
            <stop offset="95%" stop-color="#010101"/>
        </linearGradient>
        <linearGradient id="prefix__c" x1="50.09%" x2="49.843%" y1="21.782%" y2="99.379%">
            <stop offset="0%" stop-color="#010101" stop-opacity="0"/>
            <stop offset="95%" stop-color="#010101"/>
        </linearGradient>
        <linearGradient id="prefix__d" x1="49.92%" x2="50.15%" y1="76.901%" y2="-.699%">
            <stop offset="0%" stop-color="#010101" stop-opacity="0"/>
            <stop offset="95%" stop-color="#010101"/>
        </linearGradient>
        <linearGradient id="prefix__e" x1="32.266%" x2="118.324%" y1="2.663%" y2="296.527%">
            <stop offset="0%" stop-color="#010101" stop-opacity="0"/>
            <stop offset="95%" stop-color="#010101"/>
        </linearGradient>
        <linearGradient id="prefix__f" x1="49.906%" x2="50.066%" y1="50.074%" y2="49.53%">
            <stop offset="0%" stop-color="#FFF" stop-opacity="0"/>
            <stop offset="95%" stop-color="#FFF"/>
        </linearGradient>
        <linearGradient id="prefix__g" x1="-.02%" x2="100.054%" y1="50.055%" y2="50.055%">
            <stop offset="0%" stop-color="#010101" stop-opacity="0"/>
            <stop offset="95%" stop-color="#010101"/>
        </linearGradient>
        <linearGradient id="prefix__h" x1="-.439%" x2="99.482%" y1="49.897%" y2="49.897%">
            <stop offset="0%" stop-color="#E5C6D6"/>
            <stop offset="42%" stop-color="#EAD4D0"/>
            <stop offset="100%" stop-color="#F0E9CB"/>
        </linearGradient>
        <linearGradient id="prefix__i" x1="-.057%" x2="99.938%" y1="49.849%" y2="49.849%">
            <stop offset="0%" stop-color="#E5C6D6"/>
            <stop offset="42%" stop-color="#EAD4D0"/>
            <stop offset="100%" stop-color="#F0E9CB"/>
        </linearGradient>
        <linearGradient id="prefix__j" x1="-.057%" x2="99.742%" y1="49.826%" y2="49.826%">
            <stop offset="0%" stop-color="#E5C6D6"/>
            <stop offset="42%" stop-color="#EAD4D0"/>
            <stop offset="100%" stop-color="#F0E9CB"/>
        </linearGradient>
        <linearGradient id="prefix__k" x1="-.106%" x2="99.758%" y1="49.863%" y2="49.863%">
            <stop offset="0%" stop-color="#E5C6D6"/>
            <stop offset="42%" stop-color="#EAD4D0"/>
            <stop offset="100%" stop-color="#F0E9CB"/>
        </linearGradient>
        <linearGradient id="prefix__l" x1="-.027%" x2="99.933%" y1="49.981%" y2="49.981%">
            <stop offset="0%" stop-color="#E5C6D6"/>
            <stop offset="42%" stop-color="#EAD4D0"/>
            <stop offset="100%" stop-color="#F0E9CB"/>
        </linearGradient>
        <linearGradient id="prefix__m" x1="-.101%" x2="100%" y1="49.945%" y2="49.945%">
            <stop offset="0%" stop-color="#010101" stop-opacity="0"/>
            <stop offset="95%" stop-color="#010101"/>
        </linearGradient>
        <linearGradient id="prefix__n" x1="99.948%" x2="-.039%" y1="49.938%" y2="49.938%">
            <stop offset="0%" stop-color="#E5C6D6"/>
            <stop offset="42%" stop-color="#EAD4D0"/>
            <stop offset="100%" stop-color="#F0E9CB"/>
        </linearGradient>
        <linearGradient id="prefix__o" x1="99.875%" x2="-.121%" y1="49.827%" y2="49.827%">
            <stop offset="0%" stop-color="#E5C6D6"/>
            <stop offset="42%" stop-color="#EAD4D0"/>
            <stop offset="100%" stop-color="#F0E9CB"/>
        </linearGradient>
        <linearGradient id="prefix__p" x1="99.947%" x2="-.041%" y1="49.918%" y2="49.918%">
            <stop offset="0%" stop-color="#E5C6D6"/>
            <stop offset="42%" stop-color="#EAD4D0"/>
            <stop offset="100%" stop-color="#F0E9CB"/>
        </linearGradient>
        <linearGradient id="prefix__q" x1="99.696%" x2="-.229%" y1="49.942%" y2="49.942%">
            <stop offset="0%" stop-color="#E5C6D6"/>
            <stop offset="42%" stop-color="#EAD4D0"/>
            <stop offset="100%" stop-color="#F0E9CB"/>
        </linearGradient>
        <linearGradient id="prefix__r" x1="100.03%" x2=".043%" y1="49.962%" y2="49.962%">
            <stop offset="0%" stop-color="#E5C6D6"/>
            <stop offset="42%" stop-color="#EAD4D0"/>
            <stop offset="100%" stop-color="#F0E9CB"/>
        </linearGradient>
        <linearGradient id="prefix__s" x1="0%" x2="100%" y1="50%" y2="50%">
            <stop offset="0%" stop-color="#010101" stop-opacity="0"/>
            <stop offset="95%" stop-color="#010101"/>
        </linearGradient>
        <linearGradient id="prefix__t" x1="70.587%" x2="3.134%" y1="-25.827%" y2="234.145%">
            <stop offset="0%" stop-color="#FFF" stop-opacity="0"/>
            <stop offset="95%" stop-color="#FFF"/>
        </linearGradient>
        <linearGradient id="prefix__u" x1="34.494%" x2="262.573%" y1="8.156%" y2="524.304%">
            <stop offset="0%" stop-color="#010101" stop-opacity="0"/>
            <stop offset="95%" stop-color="#010101"/>
        </linearGradient>
        <linearGradient id="prefix__v" x1="103.851%" x2="-139.982%" y1="15.966%" y2="171.679%">
            <stop offset="0%" stop-color="#010101" stop-opacity="0"/>
            <stop offset="95%" stop-color="#010101"/>
        </linearGradient>
        <linearGradient id="prefix__w" x1="-.005%" x2="100.13%" y1="49.98%" y2="49.98%">
            <stop offset="0%" stop-color="#E5C6D6"/>
            <stop offset="42%" stop-color="#EAD4D0"/>
            <stop offset="100%" stop-color="#F0E9CB"/>
        </linearGradient>
        <linearGradient id="prefix__x" x1="24.939%" x2="74.173%" y1="130.574%" y2="-51.529%">
            <stop offset="0%" stop-color="#010101" stop-opacity="0"/>
            <stop offset="95%" stop-color="#010101"/>
        </linearGradient>
        <linearGradient id="prefix__y" x1=".016%" x2="100.009%" y1="50.031%" y2="50.031%">
            <stop offset="0%" stop-color="#E5C6D6"/>
            <stop offset="42%" stop-color="#EAD4D0"/>
            <stop offset="100%" stop-color="#F0E9CB"/>
        </linearGradient>
        <linearGradient id="prefix__z" x1="0%" x2="100.028%" y1="49.976%" y2="49.976%">
            <stop offset="0%" stop-color="#010101" stop-opacity="0"/>
            <stop offset="95%" stop-color="#010101"/>
        </linearGradient>
        <linearGradient id="prefix__A" x1="56.532%" x2="-10.308%" y1="45.883%" y2="88.942%">
            <stop offset="0%" stop-color="#010101" stop-opacity="0"/>
            <stop offset="95%" stop-color="#010101"/>
        </linearGradient>
    </defs>
    <g fill="none">
        <path fill="#6979F8" d="M129.505 336.409c90.897 14.973 183.805 12.615 273.825-6.95 11.535-2.516 23.318-5.443 33.023-12.173 8.35-5.787 14.67-14.061 20.105-22.641 20.343-32.145 29.704-74.586 12.02-108.266-18.789-35.777-60.963-51.182-91.973-77.103-23.833-19.885-41.116-46.225-59.848-70.953-7.684-10.163-16.006-20.382-27.322-26.245-9.314-4.766-19.933-6.291-30.324-7.702-42.756-5.806-90.964-10.21-124.663 16.806-42.612 34.185-42.774 104.12-86.502 136.875-8.389 6.282-18.027 10.848-25.93 17.73-28.503 24.806-27.779 79.334-6.063 108.314 25.263 33.71 74.672 45.854 113.652 52.308z" opacity=".24"/>
        <path fill="#6979F8" d="M327.696 78.647L317.352 79.438 316.39 66.817 208.886 189.916 150.049 141.393 10 269.192 3.012 261.556 149.706 127.656 207.676 175.492 307.705 60.935 293.701 64.805 290.965 54.815 325.179 45.367z"/>
        <path fill="url(#prefix__a)" d="M327.696 78.647L317.352 79.438 316.39 66.817 208.886 189.916 150.049 141.393 10 269.192 3.012 261.556 149.706 127.656 207.676 175.492 307.705 60.935 293.701 64.805 290.965 54.815 325.179 45.367z"/>
        <path fill="#6979F8" d="M51.078 231.48c8.227 5.386 13.68 14.09 21.24 20.381l-6.674 18.113-4.376-4.767c-3.746-4.042-7.54-8.122-12.087-11.249-4.548-3.127-9.981-5.195-15.482-4.833 0 0 2.784-16.807 4.166-18.465 4.051-4.872 8.027-2.574 13.213.82z"/>
        <path fill="#FFF" d="M40.334 232.175l-1.392 10.286c1.927.43 3.354 2.057 3.527 4.023 0 0 13.823 4.567 18.933 14.367 0 0 3.47-.954 4.766.61l2.736-6.673s-1.82-2.307-1.334-4.195c0 0-13.213-17.617-21.488-19.113-1.81.773-3.805 1.014-5.748.695z"/>
        <path fill="#6979F8" d="M128.724 54.119H145.435V284.197H128.724zM214.663 26.502H234.08200000000002V284.197H214.663z"/>
        <path fill="#6979F8" d="M285.102 26.511H303.205V284.206H285.102z" transform="rotate(180 294.154 155.359)"/>
        <path fill="url(#prefix__b)" d="M128.724 54.119H145.435V284.197H128.724z"/>
        <path fill="url(#prefix__c)" d="M214.663 26.502H234.08200000000002V284.197H214.663z"/>
        <path fill="url(#prefix__d)" d="M285.102 26.511H303.205V284.206H285.102z" transform="rotate(180 294.154 155.359)"/>
        <path fill="#6979F8" d="M108.132 141.841h243.406c3.638 0 7.127 1.445 9.7 4.018 2.572 2.573 4.018 6.062 4.018 9.7v147.59H94.376v-147.59c0-3.645 1.45-7.14 4.032-9.714 2.58-2.573 6.08-4.014 9.724-4.004z"/>
        <path fill="#FFF" d="M109.753 153.528H350.661V290.774H109.753z"/>
        <path fill="url(#prefix__e)" d="M120.44 186.98l.953 3.24s37.007-.485 40.248-1.906c1.986-.971 3.463-2.743 4.061-4.871l-1.296-8.275-8.285-14.776-35.681 26.588z" opacity=".26"/>
        <path fill="#FFF" d="M109.744 290.765L109.744 153.528"/>
        <path fill="#6979F8" d="M77.627 302.452h303.692v.954c0 11.583-9.39 20.972-20.973 20.972H98.59c-11.583 0-20.973-9.39-20.973-20.972v-.954h.01z"/>
        <path fill="url(#prefix__f)" d="M77.627 302.452h303.692v.954c0 11.583-9.39 20.972-20.973 20.972H98.59c-11.583 0-20.973-9.39-20.973-20.972v-.954h.01z"/>
        <path fill="#6979F8" d="M110.373 35.93c.858-1.535 1.906-3.032 2.192-4.767.286-1.735-.524-3.813-2.23-4.251-1.707-.439-3.814 1.105-5.549.352-1.105-.476-1.62-1.725-2.192-2.783-1.27-2.47-3.452-4.347-6.082-5.234-2.668-.849-5.586-.233-7.684 1.62-.538.601-1.128 1.153-1.763 1.65-1.565.796-3.44.668-4.881-.334-1.182-.705-2.574-1.763-3.813-1.077-.56.383-.931.986-1.02 1.659-.582 3.012 1.63 5.786 2.583 8.741 1.23 3.747.438 7.827-.362 11.688-1.163 5.453-2.403 11.096-5.92 15.453-3.518 4.356-8.914 6.74-12.546 10.963-3.632 4.223-5.176 9.847-6.291 15.32-.477 1.627-.477 3.357 0 4.985.52 1.087 1.253 2.06 2.154 2.86 3.565 3.651 7.302 7.397 12.078 9.2 5.158 1.906 10.858 1.372 16.368 1.267 3.814-.076 7.674.086 11.44-.562 3.765-.649 7.531-2.193 10-5.1 2.13-2.73 3.323-6.073 3.403-9.534.071-3.432-.187-6.864-.772-10.247-.985-7.34-1.68-14.707-2.088-22.098-.39-6.835-.486-13.575 2.975-19.771z"/>
        <path fill="url(#prefix__g)" d="M72.984 64.91c-.543 1.115-1.058 2.545-.257 3.499l8.885-6.33c.18-.164.415-.252.658-.248.285 0 .457.333.59.59l2.231 4.424 4.223-6.015 8.733 8.713c.8.8 2.078 1.63 2.926.877.706-.62.372-1.773 0-2.631-2.602-5.644-3.489-12.908-4.871-18.961-.544-2.374-.82-4.767-1.373-7.16-1.401-6.062-6.854-9.914-11.44-14.165.849 2.86 1.602 5.777 2.26 8.694l-2.24-.973c-3.008 5.087-4.917 10.747-5.606 16.616-.629 4.881-2.536 8.618-4.719 13.07z" opacity=".26"/>
        <path fill="url(#prefix__h)" d="M84.7 36.035c1.634.451 3.228 1.034 4.767 1.744 1.544.724 2.73 2.04 3.289 3.651.236.627.112 1.332-.324 1.84-.566.366-1.267.458-1.907.248-3.777-.66-7.49-1.646-11.096-2.946-.966-.292-1.87-.757-2.67-1.372-.808-.632-1.245-1.628-1.163-2.65.696-5.225 6.578-1.326 9.104-.515z"/>
        <path fill="url(#prefix__i)" d="M83.747 41.764c1.632.457 3.225 1.04 4.767 1.744 1.541.724 2.724 2.041 3.279 3.652.245.627.124 1.338-.315 1.849-.566.364-1.266.455-1.906.248-3.766-.668-7.469-1.653-11.068-2.946-.968-.292-1.876-.757-2.679-1.373-.806-.637-1.242-1.634-1.163-2.66.753-5.214 6.645-1.334 9.085-.514z"/>
        <path fill="url(#prefix__j)" d="M82.698 46.864c1.632.454 3.225 1.034 4.767 1.735 1.543.727 2.726 2.048 3.28 3.66.24.627.116 1.335-.325 1.84-.566.364-1.266.455-1.906.248-3.776-.652-7.489-1.628-11.097-2.917-.968-.292-1.876-.757-2.679-1.372-.806-.638-1.242-1.635-1.163-2.66.754-5.243 6.645-1.373 9.123-.534z"/>
        <path fill="url(#prefix__k)" d="M81.526 51.936c1.633.451 3.227 1.034 4.766 1.744 1.542.726 2.728 2.042 3.29 3.651.236.627.112 1.332-.325 1.84-.562.375-1.265.47-1.906.258-3.78-.665-7.495-1.65-11.106-2.946-.966-.293-1.87-.758-2.67-1.373-.81-.634-1.247-1.634-1.163-2.66.754-5.214 6.635-1.353 9.114-.514z"/>
        <path fill="url(#prefix__l)" d="M113.166 44.376C108.19 36.902 99 33.318 90.086 32.212c-1.506-.19-3.479 0-3.918 1.42-.14.587-.058 1.205.23 1.735 1.515 3.194 6.243 3.813 7.75 7.007.407 1.043.627 2.15.648 3.27.81 9.533 3.622 19.485 10.734 25.891 1.133 1.127 2.524 1.962 4.051 2.431 1.31.262 2.654.301 3.976.115 1.906-.172 3.813-.344 5.72-.639 1.906-.296 2.507-.467 2.144-2.393-.581-3.012-1.906-5.987-2.545-9.037-1.287-6.034-2.221-12.393-5.71-17.636z"/>
        <path fill="#FFF" d="M124.29 70.81c.09.228.11.477.058.716-.116.238-.307.432-.543.553l-11.44 7.435c-.448.352-.987.57-1.554.63-.534-.053-1.042-.262-1.458-.6-2.366-1.69-4.09-4.129-4.89-6.922-.121-.257-.121-.553 0-.81.16-.207.39-.349.647-.4 4.49-1.535 8.208-5.053 12.393-7.227 5.024-2.602 5.539 2.403 6.788 6.626z"/>
        <path fill="#6979F8" d="M358.01 32.202c-.871-1.278-1.516-2.697-1.906-4.194-.248-1.535.458-3.375 1.954-3.756 1.497-.381 3.365.953 4.89.314.954-.419 1.43-1.515 1.907-2.45 1.12-2.172 3.042-3.823 5.358-4.604 2.349-.747 4.917-.208 6.768 1.42.468.532.985 1.017 1.545 1.45 1.376.704 3.028.594 4.299-.287 1.039-.629 2.269-1.553 3.317-.953.488.337.813.862.896 1.45.553 2.659-1.363 5.128-2.211 7.711-1.077 3.299-.382 6.893.324 10.286 1 4.767 2.088 9.81 5.186 13.614 3.098 3.803 7.855 5.939 11.049 9.647 3.193 3.708 4.575 8.646 5.529 13.499.419 1.434.419 2.96 0 4.394-.461.967-1.11 1.832-1.907 2.546-3.146 3.203-6.425 6.51-10.63 8.093-4.546 1.716-9.532 1.21-14.423 1.115-3.363.087-6.727-.075-10.066-.486-3.318-.572-6.626-1.906-8.809-4.5-1.877-2.4-2.927-5.342-2.993-8.388-.065-3.024.162-6.047.677-9.028.867-6.454 1.477-12.955 1.84-19.457.371-6.044.457-11.973-2.593-17.436z"/>
        <path fill="url(#prefix__m)" d="M361.89 28.141c.954-.429 1.85.553 2.65 1.211 1.427 1.183 3.393 1.474 5.1.755 1.708-.72 2.874-2.33 3.023-4.177 1.088.327 1.99 1.094 2.488 2.116.21.448.4.953.877 1.115.268.056.547.019.791-.105 1.353-.701 2.5-1.743 3.327-3.021l1.735-2.25c1.373 1.392.906 3.68.524 5.605-.988 5.035-.66 10.24.954 15.11.37 1.237.94 2.406 1.687 3.46 1.073 1.235 2.286 2.342 3.613 3.299 2.301 1.917 4.236 4.237 5.71 6.844l-10-4.766c-1.144-.543-2.64-1.049-3.556-.172-.436.544-.692 1.21-.734 1.907-.472 2.61-1.391 5.119-2.716 7.417l-1.202-7.446c-.029-.724-.34-1.408-.867-1.906-1.163-.849-2.708.476-3.327 1.792-1.43 3.041-1.45 6.587-2.727 9.695-.838 2.03-2.192 3.813-3.088 5.825-1.75 4.06-1.51 8.705.648 12.564.524.953 1.182 1.907 1 2.955-.341 1.262-1.563 2.076-2.859 1.907-1.239-.215-2.368-.843-3.203-1.783-3.175-3.165-4.566-7.798-4.538-12.278.15-3.548.707-7.066 1.659-10.486.718-3.48 1.738-6.89 3.05-10.191 1.736-4.004 4.395-7.846 4.376-12.212 0-2.86-1.363-5.052-2.698-7.426-.648-1.135-3.756-4.414-1.697-5.358z" opacity=".26"/>
        <path fill="url(#prefix__n)" d="M380.66 32.298c-1.43.398-2.826.912-4.175 1.535-1.345.643-2.376 1.8-2.86 3.212-.213.55-.107 1.173.277 1.62.492.329 1.108.41 1.668.22 3.326-.581 6.595-1.449 9.772-2.593.852-.256 1.65-.666 2.354-1.21.707-.562 1.09-1.437 1.02-2.336-.686-4.595-5.872-1.192-8.055-.448z"/>
        <path fill="url(#prefix__o)" d="M381.424 37.35c-1.428.399-2.821.912-4.166 1.535-1.349.64-2.38 1.8-2.86 3.213-.211.551-.101 1.174.286 1.62.492.328 1.108.409 1.668.22 3.322-.583 6.588-1.45 9.762-2.594.853-.254 1.651-.664 2.354-1.21.713-.557 1.096-1.435 1.02-2.336-.686-4.595-5.881-1.191-8.064-.448z"/>
        <path fill="url(#prefix__p)" d="M382.386 41.83c-1.43.4-2.827.913-4.175 1.535-1.346.644-2.376 1.802-2.86 3.213-.213.553-.107 1.178.276 1.63.498.314 1.107.394 1.669.22 3.321-.59 6.587-1.461 9.762-2.603.851-.253 1.65-.66 2.354-1.201.713-.56 1.1-1.44 1.03-2.345-.687-4.586-5.873-1.192-8.056-.448z"/>
        <path fill="url(#prefix__q)" d="M383.406 46.302c-1.417.401-2.8.915-4.137 1.534-1.346.644-2.376 1.802-2.86 3.213-.213.553-.107 1.178.277 1.63.497.314 1.107.394 1.668.22 3.322-.59 6.587-1.461 9.762-2.603.852-.253 1.65-.66 2.354-1.201.714-.561 1.1-1.44 1.03-2.345-.725-4.595-5.901-1.192-8.094-.448z"/>
        <path fill="url(#prefix__r)" d="M355.56 39.638c4.376-6.578 12.48-9.724 20.315-10.705 1.325-.172 3.07 0 3.451 1.248.12.516.05 1.058-.2 1.526-1.335 2.812-5.5 3.355-6.826 6.167-.354.913-.548 1.881-.571 2.86-.706 8.399-3.194 17.16-9.448 22.803-.992 1.016-2.22 1.769-3.575 2.193-1.152.227-2.335.26-3.498.095-1.668-.152-3.356-.305-5.014-.562-1.66-.258-2.212-.41-1.907-2.107.505-2.65 1.678-5.272 2.24-7.95 1.096-5.349 1.954-10.944 5.034-15.568z"/>
        <path fill="#FFF" d="M342.9 68.19c-.046.257-.013.524.096.762.174.228.419.393.696.467l13.728 5.3c.552.272 1.17.381 1.782.315.553-.169 1.041-.501 1.402-.953 2.122-2.302 3.4-5.257 3.622-8.38.057-.3-.012-.61-.19-.858-.218-.179-.491-.277-.773-.276-5.08-.62-9.78-3.499-14.69-4.862-5.872-1.602-5.3 3.756-5.672 8.484z"/>
        <path fill="#606161" d="M288.887 290.784h-109.81c0-2.526 3.212-15.081 5.672-16.883 2.46-1.802 7.884-.686 10.934-.686 9.61 0 19.2-.14 28.77-.42 9.62-.343 19.2-.829 28.78-1.525 2.699-.171 26.874-3.632 27.465-2.421 2.622 5.262 8.15 19.542 8.189 21.935z"/>
        <path fill="#6979F8" d="M116.521 187.37l38.952-2.144c1.62-.086 3.451-.277 4.462-1.535 1.01-1.259.829-3.032.62-4.624-1.176-9.234-1.314-18.571-.41-27.836.323-3.365.848-6.854 2.802-9.61 1.954-2.754 5.72-4.47 8.808-3.03.513.313 1.073.542 1.66.676 1.906.21 2.764-2.736 1.544-4.213-1.22-1.478-3.356-1.745-5.263-1.907-10.286-.772-20.629-.353-30.896-1.154-5.9-.457-11.926-2.354-17.426.696-16.807 9.352-8.332 40.372-4.853 54.681z"/>
        <path fill="url(#prefix__s)" d="M139.591 132.28l-5.52-.658s6.817 20.457 14.605 32.469c7.789 12.011 18.18 31.811 18.504 36.683.324 4.871 12.66 54.214 8.122 68.494-4.538 14.28-9.743 21.592-9.743 21.592h57.78l-3.27-101.45-77.16-57.197" opacity=".26"/>
        <path fill="url(#prefix__t)" d="M119.133 134.062s-7.95 5.034 1.907 41.392c0 0 3.813-.124 3.727 4.261l25.568-1.906s-1.459-3.527 3.289-4.5c0 0-6.94-26.053-5.482-30.925.826-3.095.486-6.385-.953-9.247 0 0-12.498-1.468-14.604-1.63-2.107-.162-7.446-2.316-13.452 2.555z"/>
        <path fill="#6979F8" d="M156.932 54.014c5.09-2.488 11.048-1.907 16.673-2.584 5.972-.674 11.711-2.706 16.778-5.939-.408 8.747.75 17.496 3.422 25.835-5.214-.21-10.782-.334-15.253 2.383-3.956 2.412-6.453 6.75-10.486 9.094-4.49 2.65-10.067 2.345-15.253 1.964 1.66-3.413-.59-7.36-2.86-10.39-2.802-3.728-4.976-6.865-2.554-11.116 2.252-3.912 5.554-7.115 9.533-9.247z"/>
        <path fill="url(#prefix__u)" d="M158.314 54.653c4.5-2.203 9.78-1.726 14.757-2.279 5.288-.597 10.368-2.397 14.852-5.262-.366 7.746.661 15.495 3.032 22.879-4.624-.19-9.533-.295-13.49 2.107-3.498 2.135-5.72 5.967-9.246 8.046-3.976 2.345-8.914 2.078-13.508 1.735 1.468-3.013-.534-6.511-2.555-9.19-2.479-3.299-4.405-6.073-2.26-9.838 1.986-3.465 4.902-6.305 8.418-8.198z"/>
        <path fill="#6979F8" d="M403.56 57.322c-.735-4.643.857-9.99 4.966-12.279 2.44-1.363 5.357-1.468 8.15-1.535l18.923-.486c-.694 5.996.918 12.032 4.51 16.883 3.298 4.404 8.083 7.627 11.134 12.164 4.974 7.93 4.054 18.2-2.25 25.12-8.916-1.234-17.988-.69-26.692 1.601 1.906-5.176-1.478-10.772-5.224-14.843-6.416-6.997-12.021-17.007-13.518-26.625z"/>
        <path fill="url(#prefix__v)" d="M406.533 59.362c-.953-4.338.153-9.457 3.585-11.84 2.04-1.411 4.566-1.668 6.987-1.907l16.397-1.487c-.283 5.636 1.443 11.19 4.871 15.672 3.127 3.976 7.474 6.673 10.391 10.858 4.767 6.864 4.595 17.274-.467 23.833-7.81-.684-15.675.324-23.06 2.955 1.382-4.986-1.907-10.067-5.415-13.699-5.967-6.282-11.42-15.415-13.289-24.385z" opacity=".26"/>
        <path fill="#6979F8" d="M31.192 180.23c-.373.238-.655.594-.8 1.01-.037.575.175 1.137.58 1.545 3.93 5.16 8.134 10.106 12.594 14.814.355.445.832.776 1.372.954.632.065 1.267-.076 1.812-.4l7.883-3.652c2.794-1.296 5.663-2.64 7.817-4.852 4.252-4.385 4.767-11.068 5.053-17.16-5.92-5.1-11.564-15.329-18.847-10.6-6.263 4.07-11.344 13.346-17.464 18.341zM393.912 247.047c5.482 4.486 11.327 8.51 17.474 12.03 2.802-12.04 14.394-19.19 24.261-25.071-18.246-21.154-37.57 16.454-41.735 13.04z"/>
        <path fill="#6979F8" d="M385.122 205.064v-7.96c-10.486-.868-16.616-7.083-17.493-15.472h7.693c.872 4.924 4.84 8.711 9.8 9.351V169.82c-11.63-3.498-16.206-7.874-16.206-16.006 0-8.827 6.816-14.69 16.206-15.3v-5.949h4.986v6.035c11.63 1.134 15.386 8.656 15.91 14.08h-7.52c-.954-3.584-3.061-7.083-8.39-8.046V163.7c13.346 3.813 17.226 9.447 17.226 17.226 0 9.705-6.473 15.396-17.226 16.206v7.96l-4.986-.028zm0-42.851v-17.75c-6.301.524-8.58 4.28-8.58 8.484s2.022 6.997 8.58 9.266zm4.986 9.094v19.762c6.034-.61 9.266-3.67 9.266-9.352 0-4.633-1.992-7.874-9.266-10.41z" opacity=".24"/>
        <path fill="#FFF" d="M387.534 204.463v-7.96c-10.486-.877-16.616-7.083-17.493-15.481h7.693c.868 4.927 4.838 8.72 9.8 9.36V169.22c-11.63-3.499-16.206-7.875-16.206-16.006 0-8.828 6.816-14.69 16.206-15.3v-5.95h4.986V138c11.63 1.135 15.396 8.656 15.92 14.08h-7.522c-.953-3.584-3.06-7.083-8.398-8.045V163.1c13.346 3.813 17.226 9.437 17.226 17.226 0 9.704-6.473 15.386-17.226 16.206v7.96l-4.986-.029zm0-42.85V143.9c-6.301.524-8.58 4.28-8.58 8.475 0 4.194 2.021 6.959 8.58 9.237zm4.986 9.094v19.762c6.034-.61 9.266-3.67 9.266-9.362 0-4.633-2.011-7.864-9.266-10.4z"/>
        <path fill="#6979F8" d="M384.808 85.225v-2.86c-3.709-.305-5.873-2.498-6.178-5.463h2.717c.299 1.743 1.705 3.084 3.46 3.299v-7.474c-4.108-1.23-5.719-2.774-5.719-5.653 0-3.117 2.412-5.186 5.72-5.405v-2.097h1.754v2.125c4.118.41 5.443 3.06 5.624 4.977h-2.65c-.28-1.49-1.474-2.639-2.974-2.86v6.73c4.766 1.363 6.091 3.336 6.091 6.092 0 3.422-2.288 5.433-6.091 5.72v2.86l-1.754.009zm0-15.139v-6.263c-2.231.181-3.032 1.506-3.032 2.994 0 1.487.715 2.469 3.032 3.27zm1.754 3.213v6.988c2.135-.22 3.28-1.306 3.28-3.308 0-1.64-.716-2.784-3.28-3.68z" opacity=".24"/>
        <path fill="#FFF" d="M385.656 85.015v-2.86c-3.708-.314-5.863-2.507-6.177-5.472h2.717c.288 1.757 1.694 3.117 3.46 3.346v-7.474c-4.109-1.239-5.72-2.783-5.72-5.653 0-3.117 2.403-5.195 5.72-5.405V59.4h1.764v2.135c4.108.4 5.434 3.06 5.624 4.977h-2.66c-.27-1.492-1.464-2.643-2.964-2.86V70.4c4.766 1.363 6.082 3.337 6.082 6.082 0 3.432-2.288 5.443-6.082 5.72v2.86l-1.764-.048zm0-15.138v-6.273c-2.221.19-3.022 1.516-3.022 2.993 0 1.478.706 2.479 3.022 3.28zm1.764 3.212v6.94c2.135-.21 3.27-1.296 3.27-3.298.019-1.602-.706-2.746-3.27-3.642z"/>
        <path fill="#6979F8" d="M80.63 93.9v-2.86c-3.708-.305-5.872-2.507-6.178-5.472h2.717c.298 1.745 1.704 3.09 3.46 3.308v-7.474c-4.108-1.24-5.719-2.784-5.719-5.653 0-3.117 2.412-5.186 5.72-5.405v-2.097h1.754v2.125c4.109.4 5.443 3.06 5.624 4.977h-2.65c-.278-1.492-1.473-2.641-2.974-2.86v6.73c4.766 1.363 6.091 3.336 6.091 6.082 0 3.432-2.287 5.443-6.091 5.72v2.86l-1.754.019zm0-15.139V72.49c-2.23.19-3.032 1.515-3.032 3.003 0 1.487.715 2.469 3.032 3.27zm1.754 3.175v6.978c2.135-.172 3.27-1.258 3.27-3.26 0-1.64-.706-2.765-3.27-3.718z" opacity=".24"/>
        <path fill="#FFF" d="M81.478 93.68v-2.802c-3.708-.315-5.863-2.507-6.177-5.472h2.726c.304 1.742 1.707 3.083 3.46 3.308V81.24c-4.108-1.24-5.719-2.784-5.719-5.653 0-3.127 2.402-5.196 5.72-5.405v-2.107h1.763v2.135c4.11.4 5.434 3.06 5.625 4.967h-2.67c-.279-1.487-1.468-2.634-2.964-2.86v6.759c4.766 1.354 6.082 3.337 6.082 6.082 0 3.432-2.288 5.434-6.082 5.72v2.802h-1.764zm0-15.128v-6.273c-2.22.181-3.022 1.516-3.022 2.993 0 1.478.706 2.47 3.022 3.28zm1.764 3.212v6.978c2.135-.219 3.27-1.296 3.27-3.308 0-1.592-.706-2.774-3.27-3.67z"/>
        <path fill="#6979F8" d="M22.87 227.79v-3.813c-4.996-.41-7.903-3.375-8.323-7.369h3.661c.391 2.366 2.284 4.197 4.662 4.51v-10.106c-5.54-1.668-7.703-3.746-7.703-7.626 0-4.204 3.25-6.997 7.703-7.283v-2.86h2.373v2.86c5.539.543 7.331 4.118 7.579 6.673h-3.584c-.385-1.992-1.988-3.522-3.995-3.813v9.075c6.368 1.83 8.199 4.5 8.199 8.198 0 4.624-3.08 7.331-8.199 7.703v3.813l-2.373.038zm0-20.4v-8.447c-2.994.248-4.08 2.031-4.08 4.033 0 2.002.962 3.327 4.08 4.414zm2.373 4.328v9.4c2.86-.296 4.414-1.745 4.414-4.453 0-2.22-.953-3.737-4.414-4.947z" opacity=".24"/>
        <path fill="#FFF" d="M24.023 227.495v-3.813c-4.995-.42-7.912-3.375-8.332-7.37h3.67c.403 2.35 2.297 4.159 4.662 4.452v-10.038c-5.539-1.668-7.703-3.746-7.703-7.626 0-4.204 3.242-6.997 7.703-7.293v-2.86h2.374v2.86c5.529.544 7.321 4.118 7.569 6.673h-3.604c-.384-1.991-1.987-3.521-3.994-3.813v9.104c6.368 1.83 8.199 4.5 8.199 8.198 0 4.624-3.08 7.331-8.199 7.703v3.813l-2.345.01zm0-20.391v-8.456c-3.003.257-4.08 2.04-4.08 4.042s.953 3.327 4.08 4.414zm2.374 4.328v9.409c2.86-.296 4.404-1.754 4.404-4.452 0-2.212-.953-3.747-4.404-4.957z"/>
        <path fill="#6979F8" d="M144.434 144.482h-2.707c-.286 3.565-2.384 5.643-5.234 5.948v-2.612c1.682-.28 2.975-1.642 3.165-3.336h-7.178c-1.182 3.956-2.66 5.5-5.425 5.51-3.002 0-4.995-2.307-5.214-5.482h-2.021v-1.658h2.059c.372-3.947 2.927-5.234 4.766-5.415v2.555c-1.427.271-2.523 1.42-2.726 2.86h6.473c1.296-4.548 3.193-5.863 5.834-5.863 3.299 0 5.234 2.183 5.51 5.834h2.708l-.01 1.659zm-14.547 0h-6.035c.181 2.135 1.468 2.907 2.86 2.907s2.403-.629 3.175-2.87v-.037zm3.079-1.707h6.673c-.21-2.05-1.249-3.146-3.184-3.146-1.535.039-2.631.715-3.49 3.184v-.038z" opacity=".24"/>
        <path fill="#FFF" d="M144.224 143.662h-2.698c-.286 3.565-2.392 5.643-5.243 5.948v-2.612c1.675-.296 2.962-1.648 3.175-3.336h-7.188c-1.182 3.956-2.66 5.5-5.424 5.51-3.003 0-4.996-2.307-5.205-5.482h-2.021v-1.696h2.05c.38-3.947 2.926-5.234 4.766-5.415v2.555c-1.428.271-2.524 1.42-2.727 2.86h6.473c1.297-4.548 3.194-5.863 5.844-5.863 3.289 0 5.224 2.183 5.5 5.834h2.708l-.01 1.697zm-14.547 0h-6.034c.19 2.145 1.468 2.86 2.86 2.86 1.391 0 2.402-.6 3.174-2.822v-.038zm3.08-1.707h6.672c-.21-2.05-1.249-3.145-3.184-3.145-1.535.038-2.63.715-3.489 3.184v-.039z"/>
        <path fill="#6979F8" d="M169.992 72.308l-.515-1.755c-2.383.487-4.137-.495-4.871-2.297l1.697-.496c.51 1.035 1.634 1.617 2.774 1.44l-1.373-4.68c-2.793 0-4.08-.697-4.614-2.489-.572-1.954.562-3.699 2.593-4.433l-.39-1.315 1.105-.324.39 1.334c2.641-.505 3.967.953 4.434 2.078l-1.669.487c-.449-.874-1.401-1.367-2.373-1.23l1.23 4.242c3.212 0 4.423.953 4.928 2.688.63 2.155-.429 3.813-2.765 4.7l.515 1.754-1.096.296zm-2.774-9.438l-1.154-3.918c-.507.13-.939.463-1.193.921-.254.458-.309 1-.15 1.5.276.915.895 1.383 2.497 1.497zm1.687 1.687l1.278 4.376c.563-.134 1.043-.502 1.32-1.011.276-.51.323-1.112.129-1.658-.306-1.068-.954-1.65-2.727-1.745v.038z" opacity=".24"/>
        <path fill="#FFF" d="M170.497 72.022l-.515-1.764c-2.383.486-4.137-.486-4.871-2.288l1.697-.496c.51 1.035 1.635 1.616 2.774 1.43l-1.373-4.68c-2.793 0-4.09-.687-4.614-2.489-.572-1.906.563-3.689 2.584-4.432l-.382-1.316 1.106-.324.391 1.335c2.64-.496 3.966.953 4.433 2.087l-1.668.487c-.446-.878-1.4-1.375-2.374-1.24l1.23 4.223c3.212 0 4.423.954 4.928 2.689.63 2.145-.438 3.813-2.764 4.69l.514 1.763-1.096.325zm-2.784-9.476l-1.143-3.928c-.51.13-.943.465-1.198.925-.254.46-.308 1.005-.147 1.506.267.953.887 1.42 2.479 1.497h.01zm1.697 1.687l1.268 4.357c.564-.135 1.044-.502 1.32-1.012.277-.509.324-1.112.13-1.658-.306-1.01-.954-1.601-2.727-1.687h.01z"/>
        <path fill="#6979F8" d="M420.652 242.023l-1.068-.772c-.856 1.235-2.522 1.598-3.813.83l.753-1.04c.746.369 1.645.21 2.221-.39l-2.86-2.079c-1.61 1.22-2.64 1.401-3.727.61-.553-.421-.915-1.046-1.005-1.735-.09-.69.1-1.387.528-1.935l-.791-.591.486-.667.81.59c.786-1.1 2.278-1.426 3.451-.752l-.743 1.01c-.642-.306-1.407-.173-1.907.334l2.555 1.906c1.83-1.42 2.955-1.382 4.004-.62 1.296.954 1.43 2.374.477 3.9l1.067.772-.438.629zm-5.72-4.195l-2.383-1.735c-.242.294-.347.677-.291 1.053.056.376.27.71.586.92.553.42 1.116.42 2.06-.238h.028zm1.706.22l2.65 1.906c.265-.324.38-.745.314-1.159-.066-.413-.305-.778-.657-1.005-.648-.42-1.287-.467-2.335.258h.028z" opacity=".24"/>
        <path fill="#FFF" d="M420.804 241.642l-1.067-.773c-.856 1.236-2.522 1.598-3.814.83l.753-1.04c.744.365 1.638.207 2.212-.39l-2.86-2.078c-1.601 1.22-2.64 1.401-3.727.6-.554-.42-.916-1.047-1.004-1.737-.087-.69.106-1.387.537-1.933l-.801-.581.486-.668.81.591c.786-1.1 2.278-1.426 3.451-.753l-.734 1.01c-.64-.309-1.408-.175-1.906.334l2.555 1.907c1.83-1.42 2.955-1.382 4.003-.62 1.297.954 1.43 2.374.477 3.89l1.068.781-.439.63zm-5.72-4.195l-2.383-1.735c-.24.295-.344.678-.286 1.055.058.376.273.71.591.918.582.42 1.106.42 2.05-.238h.028zm1.707.22l2.66 1.906c.263-.324.375-.745.308-1.157-.068-.411-.308-.775-.661-.997-.648-.43-1.278-.477-2.336.247h.029z"/>
        <path fill="#6979F8" d="M433.054 199.067c-.572 5.892-6.358 7.331-5.948 13.232 4.718-1.773 9.828-1.535 14.642-.324 4.814 1.21 9.142 3.813 13.842 5.377.212-1.837.72-3.627 1.506-5.3.877-1.707 1.974-3.3 2.812-5.025-1.277.239-2.45-.686-3.498-1.449-4.214-3.088-9.447-4.251-14.567-4.633-1.191-.085-8.999.315-8.789-1.878z"/>
        <path fill="#6979F8" d="M441.424 210.316l.372-.867c-.983-.395-1.5-1.475-1.192-2.488l.84.352c-.14.575.117 1.173.628 1.469l.954-2.298c-1.106-.953-1.402-1.601-1.03-2.488.196-.458.569-.817 1.034-.997.464-.18.982-.164 1.435.044l.277-.649.543.23-.286.657c.876.376 1.34 1.34 1.087 2.26l-.82-.344c.102-.492-.115-.995-.544-1.258l-.877 2.068c1.278 1.04 1.44 1.821 1.078 2.67-.207.484-.605.861-1.1 1.042-.495.18-1.042.148-1.512-.09l-.372.868-.515-.18zm1.973-4.661l.82-1.907c-.243-.123-.527-.135-.78-.035s-.452.304-.545.56c-.19.447-.095.838.505 1.382zm.124 1.22l-.905 2.154c.267.128.576.137.85.025.275-.113.489-.337.59-.616.209-.505.142-.953-.535-1.563z" opacity=".24"/>
        <path fill="#FFF" d="M441.72 210.364l.362-.868c-.976-.4-1.491-1.475-1.192-2.488l.84.353c-.131.576.127 1.17.638 1.468l.953-2.297c-1.106-.954-1.392-1.602-1.02-2.488.194-.458.565-.817 1.029-.996.463-.18.979-.165 1.43.042l.277-.648.543.229-.276.658c.872.379 1.332 1.343 1.077 2.259l-.81-.343c.105-.493-.113-.998-.544-1.259l-.877 2.07c1.278 1.038 1.43 1.82 1.078 2.668-.207.487-.607.866-1.104 1.047-.497.18-1.047.147-1.518-.093l-.362.867-.524-.181zm1.973-4.662l.82-1.906c-.245-.123-.53-.134-.783-.032-.254.102-.451.308-.542.566-.2.438-.105.82.505 1.372zm.124 1.22l-.953 2.145c.267.132.577.142.852.03.276-.114.49-.34.587-.62.257-.506.181-.944-.486-1.554z"/>
        <path fill="#6979F8" d="M419.918 72.403l2.087-.648c-.629-2.86.506-4.938 2.641-5.854l.62 2.021c-1.223.63-1.895 1.982-1.66 3.337l5.559-1.716c0-3.337.753-4.89 2.86-5.548 2.316-.715 4.413.59 5.328 3.003l1.564-.486.41 1.306-1.583.495c.639 3.146-1.03 4.767-2.402 5.32l-.62-1.974c1.04-.548 1.615-1.698 1.43-2.86l-5.005 1.554c.086 3.813-1.077 5.291-3.117 5.93-2.545.791-4.566-.448-5.653-3.213l-2.088.648-.371-1.315zm11.249-3.49l4.661-1.439c-.154-.612-.56-1.132-1.117-1.43-.557-.297-1.214-.346-1.81-.133-1.124.353-1.677 1.096-1.734 3.003zm-1.983 2.05l-5.196 1.611c.658 1.535 1.726 2.136 3.213 1.669 1.22-.372 1.906-1.163 1.983-3.28z" opacity=".24"/>
        <path fill="#FFF" d="M420.26 72.984l2.089-.648c-.63-2.86.505-4.938 2.64-5.844l.63 2.021c-1.229.62-1.904 1.974-1.66 3.327l5.549-1.725c0-3.337.753-4.88 2.86-5.548 2.316-.715 4.413.6 5.338 3.003l1.554-.487.41 1.316-1.583.486c.649 3.146-1.02 4.767-2.402 5.33l-.61-1.974c1.033-.555 1.606-1.7 1.43-2.86l-5.005 1.544c.076 3.813-1.077 5.3-3.127 5.93-2.545.791-4.566-.448-5.643-3.203l-2.097.648-.372-1.316zm11.26-3.441l4.66-1.44c-.153-.612-.559-1.132-1.116-1.43-.558-.297-1.215-.346-1.81-.133-1.125.305-1.668 1.096-1.735 3.003zm-1.984 2.05l-5.186 1.61c.649 1.535 1.716 2.136 3.213 1.678 1.21-.429 1.897-1.22 1.973-3.336v.048z"/>
        <path fill="#6979F8" d="M54.014 251.194l.257-1.25c-1.412-.269-2.384-1.572-2.24-3.002l1.21.248c-.027.802.472 1.529 1.23 1.792l.696-3.327c-1.716-.953-2.288-1.764-2.02-3.05.145-.66.548-1.233 1.12-1.591.572-.359 1.264-.473 1.92-.316l.191-.953.791.162-.2.953c1.281.253 2.163 1.436 2.04 2.736l-1.182-.248c.01-.687-.414-1.306-1.058-1.544l-.62 3.003c1.974 1.039 2.402 2.05 2.145 3.27-.314 1.525-1.516 2.211-3.241 1.982l-.258 1.25-.781-.115zm1.401-6.74l.582-2.793c-.358-.09-.737-.028-1.046.173-.31.2-.521.521-.584.885-.172.677.085 1.163 1.048 1.735zm.486 1.592l-.648 3.108c.395.118.822.057 1.169-.167.346-.224.578-.588.633-.996.114-.734-.096-1.306-1.154-1.945z" opacity=".24"/>
        <path fill="#6979F8" d="M54.414 251.184l.258-1.258c-1.412-.27-2.385-1.573-2.24-3.003l1.21.248c-.034.804.467 1.534 1.23 1.792l.696-3.327c-1.716-.953-2.288-1.764-2.021-3.041.143-.66.546-1.235 1.118-1.594.573-.36 1.266-.472 1.923-.313l.19-.953.792.162-.2.953c1.28.254 2.162 1.436 2.04 2.736l-1.183-.247c.01-.685-.415-1.3-1.058-1.535l-.62 2.993c1.974 1.049 2.403 2.05 2.145 3.28-.314 1.525-1.525 2.202-3.24 1.973l-.258 1.258-.782-.124zm1.402-6.74l.581-2.793c-.357-.096-.737-.037-1.048.162-.31.2-.522.522-.582.887-.143.677.086 1.172 1.049 1.744zm.486 1.592l-.649 3.108c.392.102.808.032 1.145-.192.336-.224.562-.58.62-.98.152-.725-.058-1.306-1.116-1.936z"/>
        <path fill="#6979F8" d="M84.748 160.974v-5.282c-6.969-.581-11.04-4.709-11.62-10.286h5.11c.585 3.269 3.218 5.782 6.51 6.216V137.57c-7.731-2.326-10.753-5.233-10.753-10.629 0-5.872 4.538-9.762 10.753-10.172v-3.946h3.308v4.004c7.731.753 10.229 5.72 10.572 9.351h-4.995c-.537-2.783-2.773-4.924-5.577-5.338v12.66c8.894 2.555 11.44 6.272 11.44 11.44 0 6.453-4.3 10.228-11.44 10.752v5.282h-3.308zm0-28.456v-11.793c-4.185.344-5.72 2.86-5.72 5.634 0 2.775 1.364 4.643 5.72 6.159zm3.308 6.034v13.127c4.013-.4 6.158-2.44 6.158-6.215.02-3.08-1.334-5.225-6.158-6.912z" opacity=".24"/>
        <path fill="#FFF" d="M86.35 160.573v-5.233c-6.969-.582-11.04-4.71-11.621-10.286h5.12c.564 3.276 3.203 5.798 6.5 6.215v-14.1c-7.721-2.325-10.743-5.233-10.743-10.628 0-5.873 4.528-9.762 10.744-10.172v-3.928h3.308v4.004c7.73.753 10.228 5.72 10.572 9.352h-4.996c-.536-2.783-2.772-4.924-5.576-5.338v12.66c8.894 2.554 11.44 6.272 11.44 11.439 0 6.454-4.3 10.229-11.44 10.753v5.281l-3.308-.019zm0-28.456v-11.792c-4.185.343-5.72 2.86-5.72 5.634 0 2.774 1.363 4.643 5.72 6.158zm3.308 6.063v13.127c4.013-.4 6.158-2.44 6.158-6.215 0-3.098-1.335-5.253-6.158-6.912z"/>
        <path fill="#6979F8" d="M357.582 82.45c-22.031 35.387-68.695 104.253-73.643 145.655-1.21 10.305-1.382 20.725-1.763 31.096-.143 2.736-.105 7.331-1.525 9.648-2.422 3.908-7.713 3.222-12.24 3.67-16.121 1.63-33.214 1.802-49.572 1.659-12.04-.067-23.661-.315-34.176-.277-.658-12.135-1.83-25.739-2.488-37.874-.591-10.858-1.21-21.86-4.328-32.27-2.66-8.75-7.016-16.882-11.373-24.909-16.918-30.887-34.56-61.357-52.927-91.412-1.21-1.973-7.054-9.304-6.396-11.525.077-.213.17-.42.276-.62.547-.98 1.275-1.846 2.145-2.554 2.85-2.45 6.03-4.489 9.447-6.054.734-.397 1.558-.597 2.393-.581 1.172.133 6.673 6.053 7.502 6.911l47.303 48.075c10.21 10.381 21.792 13.66 35.768 17.845 6.3 1.907 12.936 2.317 19.514 2.393 15.424.134 34.318.239 45.863-11 13.727-13.423 52.707-49.81 65.443-64.272l13.623 8.027c.966.453 1.8 1.145 2.421 2.011 1.154 1.964-.057 4.423-1.267 6.359z"/>
        <path fill="url(#prefix__w)" d="M228.41 155.654c3.638 3.004 8.688 3.625 12.946 1.592 1.695-.686 3.13-1.89 4.099-3.441.794-1.638 1.236-3.424 1.296-5.243l.63-6.063c.46-3.28.563-6.602.305-9.905-.372-3.213-1.554-6.292-3.814-8.036-2.964-2.307-7.292-1.83-10.915.152-11.687 6.454-13.527 23.184-4.547 30.944z"/>
        <path fill="url(#prefix__x)" d="M246.065 130.897s-8.76 21.926-21.668 17.531c0 0-3.404-.734-.239-14.614s21.907-2.917 21.907-2.917z" opacity=".26"/>
        <path fill="url(#prefix__y)" d="M209.477 113.843c1.001 8.637 4.9 17.56 12.48 21.63 7.025 3.813 15.871 2.583 22.945-1.153 2.974-1.456 5.57-3.584 7.579-6.216 1.71-2.623 2.943-5.527 3.641-8.58 1.42-5.157 2.45-10.486 1.993-15.824-.75-9.073-5.787-17.241-13.555-21.986-7.77-4.745-17.337-5.495-25.75-2.018-5.996 2.46-8.703 6.206-9.008 12.555-.344 7.187-1.173 14.404-.325 21.592z"/>
        <path fill="#E08142" d="M205.922 93.375c0-2.707.438-5.462-.248-8.074-.648-2.43-2.25-4.51-3.108-6.873-1.477-4.22-.534-8.91 2.46-12.231 1.783-1.857 4.031-3.203 6.51-3.9 3.158-.95 6.514-1.032 9.715-.237 2.011.505 3.918 1.344 5.939 1.782 2.86.61 5.862.382 8.799.363 4.661 0 9.428.495 13.65 2.469 4.224 1.973 7.866 5.548 9.067 10.057.201 1.252.59 2.467 1.153 3.603.756.941 1.585 1.82 2.479 2.631 1.906 2.164 2.202 5.253 2.421 8.113.332 2.26.196 4.564-.4 6.768-.706 2.04-2.164 3.709-3.28 5.549-1.412 2.548-2.516 5.255-3.289 8.064-.543-1.067-.362-2.335-.486-3.527-.124-1.191-.848-2.545-2.05-2.545-.948.122-1.742.778-2.04 1.687-.27.898-.645 1.762-1.115 2.574-.19.338-.568.527-.953.477-.324-.095-.477-.458-.581-.772-.849-2.86.123-5.93.257-8.923.175-4.529-1.586-8.917-4.843-12.069-3.181-2.84-7.157-4.637-11.392-5.148-4.212-.49-8.467-.49-12.679 0-2.469.21-5.052.496-7.092 1.907-2.298 1.573-3.537 4.29-4.204 6.988-.524 2.154-.362 6.54-1.907 8.074-2.202-1.268-2.745-4.585-2.783-6.807z"/>
        <path fill="#FFF" d="M36.52 178.695s.24 4.548-1.296 5.196l7.531 9.256s3.165-2.44 5.196-1.22c0 0 6.33-8.684 11.039-13.07 4.71-4.385 7.788-6.892 7.788-6.892s-5.92-7.15-8.274-8.58c-2.355-1.43-3.966-2.326-3.966-2.326s-5.195.592-18.017 17.636z"/>
        <path fill="url(#prefix__z)" d="M51.211 193.872s11.688-17.855 13.47-16.883c1.783.972-.734 9.17-1.544 10.639-.81 1.468-7.226 6.244-7.226 6.244l-6.406 2.86 1.706-2.86z"/>
        <path fill="url(#prefix__A)" d="M209.382 274.14l-24.643-.239c-.657-12.135-1.83-25.739-2.488-37.874-.59-10.858-1.21-21.86-4.328-32.27-2.66-8.75-7.016-16.882-11.373-24.909-16.917-30.887-34.56-61.357-52.927-91.412-1.21-1.973-7.054-9.304-6.396-11.525.078-.213.17-.42.276-.62l5.796-4.7 3.594 7.78s52.575 74.68 65.549 84.433c12.974 9.752 22.078 33.098 21.42 38.294-.59 4.642 12.48 58.742 15.253 70.773.353 1.449-9.733 2.269-9.733 2.269z"/>
        <path fill="#6979F8" d="M59.305 175.016l-.954-1.154c-1.287 1.095-3.196 1.029-4.404-.152l1.115-.954c.715.617 1.748.694 2.546.191l-2.536-3.08c-2.107.897-3.298.802-4.27-.37-.49-.62-.71-1.407-.616-2.189.095-.782.498-1.494 1.12-1.978l-.705-.867.734-.544.725.877c1.17-.99 2.901-.933 4.003.134l-1.105.896c-.623-.512-1.501-.577-2.193-.162l2.297 2.764c2.403-1.048 3.632-.695 4.567.439 1.163 1.401.953 3.003-.563 4.414l.954 1.153-.715.582zm-5.11-6.216l-2.135-2.583c-.347.258-.568.651-.61 1.081-.041.43.1.858.39 1.178.448.63 1.097.782 2.355.324zm1.811.715l2.374 2.86c.382-.28.625-.711.669-1.183.043-.472-.117-.94-.44-1.286-.6-.667-1.278-.896-2.641-.39h.038z" opacity=".24"/>
        <path fill="#6979F8" d="M59.581 174.634l-.953-1.153c-1.285 1.097-3.194 1.035-4.404-.143l1.124-.953c.717.613 1.75.687 2.546.18l-2.546-3.069c-2.106.887-3.288.8-4.27-.381-.49-.619-.712-1.408-.615-2.19.097-.784.504-1.496 1.13-1.976l-.716-.858.725-.6.724.876c1.165-.992 2.894-.938 3.995.124l-1.087.954c-.623-.505-1.496-.566-2.183-.153l2.288 2.765c2.402-1.049 3.632-.706 4.566.429 1.163 1.41.953 3.012-.553 4.413l.954 1.163-.725.572zm-5.148-6.215l-2.145-2.593c-.346.259-.567.651-.609 1.081-.041.43.1.858.39 1.178.524.6 1.173.792 2.364.334zm1.821.724l2.374 2.86c.378-.286.618-.718.66-1.19.041-.473-.119-.94-.441-1.288-.562-.658-1.24-.84-2.593-.382z"/>
    </g>
</svg>
