<svg xmlns="http://www.w3.org/2000/svg" width="150" height="29.797" viewBox="0 0 132 29.797">
    <defs>
        <style>
            .cls-1{fill:#3059c9}
            .cls-2{
                fill:#fff;
                fill-rule:evenodd}
            .cls-3{
                fill:#3059c9;
                font-size:14px;
                font-weight:700;
                letter-spacing:.2em}
        </style>
    </defs>
    <g id="Group_344" data-name="Group 344" transform="translate(-10935 -4217.908)">
        <g id="Group_343" data-name="Group 343" transform="translate(-7 -5)">
            <g id="Group_342" data-name="Group 342" transform="translate(10942 4222.908)">
                <circle id="Ellipse_9" cx="14.898" cy="14.898" r="14.898" class="cls-1" data-name="Ellipse 9"/>
                <path id="Path_536" d="M14.1 2.685q-.1-.3-.217-.6A3.935 3.935 0 0 0 12.865.474C10.823-1.262 9.318 2.213 8.884 3.79c-.716 2.6-.931 5.325-1.55 7.953A33.37 33.37 0 0 0 5.58 5.389a2.507 2.507 0 0 0-1.224-1.494 1.63 1.63 0 0 0-1.613.4 3.805 3.805 0 0 0-.927 1.515A18.808 18.808 0 0 0 .94 9.829Q.732 11.3.532 12.776a1.845 1.845 0 0 0 .236 1.509 1.017 1.017 0 0 0 1.194.154 1.922 1.922 0 0 0 .829-.991 6.639 6.639 0 0 0 .331-1.157l.774-3.48a26.878 26.878 0 0 0 1.874 6.528 2.314 2.314 0 0 0 1.146 1.287 1.552 1.552 0 0 0 1.527-.415 3.867 3.867 0 0 0 .875-1.447c1.33-3.4 1.061-7.3 2.389-10.7a33.145 33.145 0 0 1-.042 13.571c-.122.568-.226 1.256.182 1.653a.992.992 0 0 0 1.155.09 2.294 2.294 0 0 0 .83-.933 9.06 9.06 0 0 0 .934-2.935 31.809 31.809 0 0 0 .225-6.516 23.167 23.167 0 0 0-.89-6.309" class="cls-2" data-name="Path 536" transform="translate(7.02 5.359)"/>
            </g>
        </g>
        <text id="MONEYTOR" class="cls-3" transform="translate(10971 4238)">
            <tspan x="0" y="0">MONEYTOR</tspan>
        </text>
    </g>
</svg>
