<svg xmlns="http://www.w3.org/2000/svg" width="216" height="40" viewBox="0 0 216 40">
    <defs>
        <linearGradient id="prefix__a" x1="50%" x2="50%" y1="0%" y2="100%">
            <stop offset="0%" stop-color="#A2B1FC"/>
            <stop offset="100%" stop-color="#6979F8"/>
        </linearGradient>
        <linearGradient id="prefix__b" x1="50%" x2="50%" y1="0%" y2="100%">
            <stop offset="0%" stop-color="#76EFC9"/>
            <stop offset="100%" stop-color="#41DB99"/>
        </linearGradient>
        <linearGradient id="prefix__c" x1="50%" x2="50%" y1="0%" y2="100%">
            <stop offset="0%" stop-color="#A2B1FC"/>
            <stop offset="100%" stop-color="#6979F8"/>
        </linearGradient>
    </defs>
    <g fill="none" fill-rule="evenodd">
        <path fill="#FFF" fill-rule="nonzero" d="M88.983 28.475c.565 0 1.04-.193 1.424-.577.384-.384.576-.858.576-1.423v-8c0-1.063-.203-2.063-.61-3-.407-.938-.955-1.757-1.644-2.458-.69-.7-1.503-1.254-2.44-1.661-.939-.407-1.939-.61-3-.61-1.153 0-2.233.231-3.238.695-1.006.463-1.87 1.09-2.593 1.881-.7-.79-1.52-1.418-2.458-1.881-.938-.464-1.983-.695-3.136-.695-.248 0-.53.028-.847.085-.316.056-.644.163-.983.322-.34.158-.678.372-1.017.644-.339.27-.655.621-.95 1.05-.09-.248-.287-.53-.592-.847-.306-.316-.74-.475-1.306-.475-.564 0-1.04.193-1.423.577-.384.384-.577.858-.577 1.423v12.95c0 .565.193 1.04.577 1.423.384.384.859.577 1.423.577.565 0 1.04-.193 1.424-.577.384-.384.576-.858.576-1.423v-8c0-.475.097-.938.289-1.39.192-.452.457-.853.796-1.204.34-.35.73-.627 1.17-.83.44-.204.92-.305 1.44-.305.52 0 1.006.096 1.458.288.452.192.847.458 1.186.797.34.338.605.734.797 1.186.192.452.288.938.288 1.458v8c0 .565.192 1.04.576 1.423.385.384.86.577 1.424.577.565 0 1.045-.193 1.44-.577.396-.384.594-.858.594-1.423v-8c0-.498.096-.972.288-1.424.192-.452.458-.848.797-1.187.339-.339.729-.61 1.17-.813.44-.204.909-.305 1.406-.305.497 0 .972.101 1.424.305.452.203.847.474 1.186.813.34.34.605.735.797 1.187.192.452.288.926.288 1.424v8c0 .565.192 1.04.576 1.423.385.384.86.577 1.424.577zm13.627.711c1.288 0 2.492-.242 3.61-.728 1.119-.486 2.09-1.142 2.916-1.966.824-.825 1.48-1.797 1.966-2.916.486-1.118.729-2.322.729-3.61 0-1.288-.243-2.491-.73-3.61-.485-1.119-1.14-2.09-1.965-2.915-.825-.825-1.797-1.48-2.916-1.966-1.118-.486-2.322-.73-3.61-.73-1.288 0-2.491.244-3.61.73-1.119.485-2.096 1.14-2.932 1.966-.836.825-1.497 1.796-1.983 2.915s-.73 2.322-.73 3.61c0 1.288.244 2.492.73 3.61.486 1.119 1.147 2.09 1.983 2.916.836.824 1.813 1.48 2.932 1.966s2.322.728 3.61.728zm0-3.932c-.723 0-1.407-.141-2.05-.423-.645-.283-1.204-.662-1.679-1.136-.474-.475-.853-1.034-1.135-1.678-.283-.644-.424-1.328-.424-2.05 0-.724.141-1.408.424-2.052.282-.644.66-1.203 1.135-1.678.475-.474 1.034-.853 1.678-1.135.644-.283 1.328-.424 2.051-.424.723 0 1.407.141 2.051.424.644.282 1.203.66 1.678 1.135.475.475.853 1.034 1.136 1.678.282.644.423 1.328.423 2.051 0 .723-.14 1.407-.423 2.05-.283.645-.661 1.204-1.136 1.679-.475.474-1.034.853-1.678 1.136-.644.282-1.328.423-2.05.423zm25.051 3.22c.565 0 1.04-.192 1.424-.576.384-.384.576-.858.576-1.423v-8c0-1.176-.198-2.238-.593-3.187-.396-.949-.932-1.763-1.61-2.44-.678-.679-1.47-1.198-2.373-1.56-.904-.361-1.865-.542-2.882-.542-.655 0-1.214.079-1.678.237-.463.158-.853.345-1.17.56-.315.214-.575.446-.779.694-.203.249-.361.452-.474.61-.113-.339-.328-.644-.644-.915-.317-.271-.746-.407-1.289-.407-.542 0-1.005.198-1.39.594-.384.395-.576.853-.576 1.373v12.983c0 .565.192 1.04.577 1.423.384.384.858.577 1.423.577.565 0 1.04-.193 1.424-.577.384-.384.576-.858.576-1.423v-8c0-1.13.356-2.034 1.068-2.712.712-.678 1.588-1.017 2.627-1.017 1.04 0 1.921.339 2.644 1.017.724.678 1.085 1.582 1.085 2.712v8c0 .565.198 1.04.593 1.423.396.384.876.577 1.441.577zm13.627.712c1.153 0 2.232-.18 3.237-.542 1.006-.362 1.876-.808 2.61-1.339.735-.531 1.317-1.096 1.746-1.695.43-.599.644-1.135.644-1.61 0-.565-.209-1.028-.627-1.39-.418-.361-.853-.542-1.305-.542-.474 0-.853.164-1.135.491-.283.328-.622.695-1.017 1.102-.396.407-.904.774-1.526 1.102-.621.327-1.497.491-2.627.491-.7 0-1.367-.13-2-.39s-1.186-.615-1.66-1.067c-.475-.452-.86-.983-1.153-1.594-.294-.61-.452-1.265-.475-1.966h12.61c.475 0 .882-.164 1.22-.491.34-.328.509-.73.509-1.204-.045-.52-.215-1.152-.508-1.898-.34-.836-.775-1.616-1.306-2.339-.53-.723-1.152-1.345-1.864-1.864-.712-.52-1.52-.933-2.424-1.238-.904-.305-1.887-.457-2.949-.457-1.288 0-2.491.243-3.61.729-1.119.485-2.096 1.14-2.932 1.966-.836.825-1.497 1.796-1.983 2.915s-.73 2.322-.73 3.61c0 1.288.244 2.492.73 3.61.486 1.119 1.147 2.09 1.983 2.916.836.824 1.813 1.48 2.932 1.966s2.322.728 3.61.728zm4.814-11.593h-9.627c.339-.949.937-1.757 1.796-2.424.859-.666 1.865-1 3.017-1 1.153 0 2.158.334 3.017 1 .859.667 1.458 1.475 1.797 2.424zm14.17 17.593c.564 0 1.039-.186 1.423-.559.384-.373.576-.842.576-1.407v-4.034c.972-.226 1.814-.587 2.526-1.084.711-.497 1.305-1.085 1.78-1.763.474-.678.824-1.418 1.05-2.22.226-.803.34-1.633.34-2.492v-8.102c0-.565-.193-1.04-.577-1.423-.384-.384-.859-.577-1.424-.577s-1.034.193-1.407.577c-.373.384-.559.858-.559 1.423v8.136c0 .52-.102 1.006-.305 1.458-.203.452-.48.847-.83 1.186-.35.34-.752.605-1.204.797-.452.192-.927.288-1.424.288-.52 0-1.005-.102-1.457-.305-.452-.204-.848-.475-1.187-.814-.339-.339-.604-.734-.796-1.186-.192-.452-.289-.938-.289-1.458v-8.102c0-.565-.192-1.04-.576-1.423-.384-.384-.859-.577-1.424-.577-.564 0-1.033.193-1.406.577-.373.384-.56.858-.56 1.423v8.102c0 .881.142 1.718.424 2.509.283.79.678 1.508 1.187 2.152.508.644 1.113 1.215 1.813 1.712.7.497 1.48.881 2.34 1.153v4.067c0 .565.186 1.034.558 1.407.373.373.842.56 1.407.56zm15.05-6.711c.565 0 1.028-.193 1.39-.577.361-.384.542-.858.542-1.423V15.458h2c.543 0 1.006-.192 1.39-.577.384-.384.576-.847.576-1.39 0-.542-.192-1.005-.576-1.39-.384-.383-.847-.576-1.39-.576h-2V6.712c0-.543-.192-1.006-.576-1.39-.384-.384-.847-.576-1.39-.576-.542 0-1.006.192-1.39.576-.384.384-.576.847-.576 1.39v4.813c-.542 0-1.006.193-1.39.577-.384.384-.576.847-.576 1.39 0 .542.192 1.005.576 1.39.384.384.848.576 1.39.576v11.017c0 .565.192 1.04.576 1.423.384.384.86.577 1.424.577zm15.661.711c1.288 0 2.492-.242 3.61-.728 1.119-.486 2.09-1.142 2.915-1.966.825-.825 1.48-1.797 1.967-2.916.485-1.118.728-2.322.728-3.61 0-1.288-.243-2.491-.728-3.61-.486-1.119-1.142-2.09-1.967-2.915-.824-.825-1.796-1.48-2.915-1.966-1.118-.486-2.322-.73-3.61-.73-1.288 0-2.491.244-3.61.73-1.119.485-2.096 1.14-2.932 1.966-.836.825-1.497 1.796-1.983 2.915s-.73 2.322-.73 3.61c0 1.288.244 2.492.73 3.61.486 1.119 1.147 2.09 1.983 2.916.836.824 1.813 1.48 2.932 1.966s2.322.728 3.61.728zm0-3.932c-.723 0-1.407-.141-2.05-.423-.645-.283-1.204-.662-1.679-1.136-.474-.475-.853-1.034-1.135-1.678-.283-.644-.424-1.328-.424-2.05 0-.724.141-1.408.424-2.052.282-.644.66-1.203 1.135-1.678.475-.474 1.034-.853 1.678-1.135.644-.283 1.328-.424 2.051-.424.723 0 1.407.141 2.05.424.645.282 1.204.66 1.679 1.135.474.475.853 1.034 1.135 1.678.283.644.424 1.328.424 2.051 0 .723-.141 1.407-.424 2.05-.282.645-.66 1.204-1.135 1.679-.475.474-1.034.853-1.678 1.136-.644.282-1.328.423-2.05.423zm13.898 3.22c.543 0 1.006-.192 1.39-.576.384-.384.576-.847.576-1.39v-5.796c0-.791.176-1.537.526-2.237.35-.701.82-1.317 1.407-1.848.587-.531 1.248-.949 1.983-1.254.734-.305 1.497-.458 2.288-.458.587 0 1.085-.197 1.491-.593.407-.395.61-.887.61-1.475 0-.587-.203-1.084-.61-1.491-.406-.407-.904-.61-1.491-.61-.475 0-1.006.079-1.593.237-.588.158-1.176.373-1.763.644-.588.271-1.136.593-1.644.966-.509.373-.91.763-1.204 1.17v-.271c0-.543-.197-1.006-.593-1.39-.395-.384-.853-.577-1.373-.577-.542 0-1.005.193-1.39.577-.384.384-.576.847-.576 1.39v13.016c0 .543.192 1.006.577 1.39.384.384.847.577 1.39.577z"/>
        <path fill="url(#prefix__a)" d="M39.146 23.601c-.273-.66-.802-.991-1.509-1.011-.73-.021-1.259.328-1.617.95-1.03 1.788-2.064 3.573-3.083 5.366-.134.236-.298.742-.615.65-.349-.102-.785-1.086-.96-1.378-1.112-1.864-1.995-3.598-3.007-5.36-1.072-1.867-2.155-3.727-3.235-5.589-1.747-3.012-3.578-5.98-5.219-9.05-1.166-2.181-4.355-2.384-5.582-.156-.505.918-1.058 1.81-1.564 2.727-.49.886-1.062 1.721-1.518 2.628-.349.693-.788 1.34-1.176 2.013-1.451 2.52-2.894 5.043-4.347 7.561C3.897 26.1 2.067 29.24.256 32.39c-.494.858-.255 1.759.562 2.304.69.46 1.713.27 2.272-.424.278-.345.444-.756.664-1.136 1.988-3.438 3.991-6.868 5.979-10.307 2.36-4.083 4.713-8.17 7.058-12.26.224-.393.377-.301.554.003 1.125 1.947 2.25 3.893 3.372 5.842 1.71 2.974 3.409 5.956 5.133 8.923l2.236 3.884c.502.9 1.025 1.79 1.544 2.68.607 1.042 1.506 1.61 2.715 1.664.603.035 1.13-.164 1.64-.453.748-.425 1.127-1.14 1.532-1.846 1.175-2.055 2.365-4.1 3.547-6.15.281-.488.29-1.007.082-1.513"/>
        <path fill="url(#prefix__b)" d="M50.736 3.917c.001-.872-.595-1.467-1.468-1.465-.8.002-1.443.64-1.458 1.445-.014.783.702 1.497 1.485 1.481.807-.016 1.44-.658 1.441-1.461M49.311.102c2.35.096 3.867 1.824 3.742 4.11-.094 1.702-1.355 3.124-3.096 3.413-.648.107-1.022.357-1.348.935-1.978 3.503-4 6.982-6.019 10.463-.184.317-.187.568.003.888 2.197 3.708 4.379 7.425 6.57 11.136.309.524.622 1.043.914 1.577.363.663-.024 1.67-.732 2.102-.63.386-1.63.236-2.126-.358-.566-.678-.944-1.482-1.391-2.236-1.985-3.343-3.95-6.698-5.92-10.05-2.132-3.627-4.258-7.26-6.402-10.882-.193-.325-.328-.87-.667-.884-.305-.011-.412.546-.594.86-1.135 1.96-2.262 3.924-3.403 5.88-.62 1.064-1.634 1.394-2.517.867-.64-.381-1.136-1.397-.585-2.35 1.498-2.589 2.965-5.198 4.51-7.76 1.128-1.873 4.04-1.875 5.175-.017 1.542 2.524 3.024 5.086 4.53 7.633.035.058.057.123.09.182.182.324.329.42.56.006.65-1.167 1.334-2.314 2.002-3.47 1.1-1.902 2.194-3.807 3.301-5.705.16-.275.204-.505.038-.799-1.471-2.603.737-5.59 3.365-5.54"/>
        <path fill="url(#prefix__c)" d="M16.165 37.609c.822.003 1.51-.655 1.51-1.446 0-.795-.63-1.393-1.473-1.397-.875-.005-1.517.597-1.51 1.412.008.77.685 1.427 1.473 1.43m.025 2.37c-1.734.088-3.377-1.41-3.721-2.996-.523-2.409 1.357-4.394 3.196-4.561.321-.03.47-.19.614-.44 1.282-2.243 2.57-4.482 3.86-6.722.32-.555.64-1.112.974-1.66.481-.787 1.462-1.069 2.251-.66.87.45 1.22 1.338.756 2.223-.72 1.376-1.518 2.71-2.291 4.058-.816 1.42-1.639 2.836-2.465 4.25-.137.235-.12.425.024.655 1.509 2.423.055 5.205-2.442 5.796-.243.057-.504.04-.756.057"/>
    </g>
</svg>
