<svg xmlns="http://www.w3.org/2000/svg" width="234" height="40" viewBox="0 0 234 40">
    <defs>
        <linearGradient id="prefix__a" x1="50%" x2="50%" y1="0%" y2="100%">
            <stop offset="0%" stop-color="#76EFC9"/>
            <stop offset="100%" stop-color="#41DB99"/>
        </linearGradient>
        <linearGradient id="prefix__b" x1="50%" x2="50%" y1="0%" y2="100%">
            <stop offset="0%" stop-color="#007FA6"/>
            <stop offset="100%" stop-color="#005D88"/>
        </linearGradient>
    </defs>
    <g fill="none" fill-rule="evenodd">
        <path fill="#FFF" fill-rule="nonzero" d="M86.535 30.099c.66 0 1.214-.224 1.663-.673.449-.45.673-1.004.673-1.664v-9.346c0-1.241-.237-2.41-.713-3.505-.475-1.096-1.115-2.053-1.92-2.871-.806-.819-1.756-1.466-2.852-1.941-1.096-.475-2.264-.713-3.505-.713-1.346 0-2.607.27-3.782.812-1.175.541-2.185 1.274-3.03 2.198-.818-.924-1.775-1.657-2.871-2.198-1.096-.541-2.317-.812-3.663-.812-.29 0-.62.033-.99.1-.37.065-.753.19-1.149.375s-.792.436-1.188.753c-.396.317-.766.726-1.109 1.228-.106-.29-.337-.62-.693-.99-.356-.37-.865-.555-1.525-.555-.66 0-1.214.224-1.663.673-.449.45-.673 1.004-.673 1.664v15.128c0 .66.224 1.215.673 1.664.449.449 1.003.673 1.663.673.66 0 1.215-.224 1.664-.673.448-.45.673-1.004.673-1.664v-9.346c0-.555.112-1.096.336-1.624.225-.528.535-.997.931-1.406.396-.41.852-.733 1.366-.97.515-.238 1.076-.357 1.684-.357.607 0 1.175.113 1.703.337.528.224.99.535 1.386.93.396.397.706.859.93 1.387.225.528.337 1.096.337 1.703v9.346c0 .66.225 1.215.673 1.664.45.449 1.004.673 1.664.673.66 0 1.22-.224 1.683-.673.462-.45.693-1.004.693-1.664v-9.346c0-.581.112-1.135.337-1.664.224-.528.534-.99.93-1.386.396-.396.852-.713 1.367-.95.514-.238 1.062-.357 1.643-.357s1.136.12 1.664.357.99.554 1.386.95c.396.396.706.858.93 1.386.225.529.337 1.083.337 1.664v9.346c0 .66.224 1.215.673 1.664.45.449 1.004.673 1.664.673zm15.92.832c1.505 0 2.911-.284 4.218-.852 1.307-.567 2.443-1.333 3.406-2.297.964-.964 1.73-2.099 2.297-3.406.568-1.307.852-2.713.852-4.218s-.284-2.91-.852-4.217c-.567-1.307-1.333-2.443-2.297-3.406-.963-.964-2.099-1.73-3.406-2.297-1.307-.568-2.713-.852-4.218-.852s-2.91.284-4.217.852c-1.307.567-2.45 1.333-3.426 2.297-.977.963-1.75 2.099-2.317 3.406-.568 1.307-.851 2.712-.851 4.217 0 1.505.283 2.911.851 4.218.568 1.307 1.34 2.442 2.317 3.406.977.964 2.119 1.73 3.426 2.297 1.307.568 2.712.852 4.217.852zm0-4.594c-.844 0-1.643-.165-2.396-.495-.752-.33-1.406-.773-1.96-1.327-.554-.555-.997-1.208-1.327-1.96-.33-.753-.495-1.552-.495-2.397 0-.844.165-1.643.495-2.396.33-.752.773-1.406 1.327-1.96.554-.554 1.208-.997 1.96-1.327.753-.33 1.552-.495 2.396-.495.845 0 1.644.165 2.396.495.753.33 1.406.773 1.96 1.327.555.554.998 1.208 1.328 1.96.33.753.495 1.552.495 2.396 0 .845-.165 1.644-.495 2.396-.33.753-.773 1.406-1.327 1.96-.555.555-1.208.998-1.96 1.328-.753.33-1.552.495-2.397.495zm29.268 3.762c.66 0 1.214-.224 1.663-.673.449-.45.673-1.004.673-1.664v-9.346c0-1.373-.23-2.614-.693-3.723-.462-1.109-1.089-2.06-1.88-2.851-.793-.792-1.717-1.4-2.773-1.822-1.056-.423-2.178-.634-3.366-.634-.766 0-1.42.093-1.96.277-.542.185-.998.403-1.367.654-.37.25-.673.521-.911.812-.238.29-.423.528-.555.713-.132-.396-.382-.753-.752-1.07-.37-.317-.871-.475-1.505-.475-.634 0-1.175.231-1.624.693-.449.462-.673.997-.673 1.604v15.168c0 .66.224 1.215.673 1.664.45.449 1.004.673 1.664.673.66 0 1.214-.224 1.663-.673.449-.45.673-1.004.673-1.664v-9.346c0-1.32.416-2.376 1.248-3.168.831-.793 1.855-1.189 3.07-1.189 1.214 0 2.243.396 3.088 1.189.845.792 1.268 1.848 1.268 3.168v9.346c0 .66.23 1.215.693 1.664.462.449 1.023.673 1.683.673zm15.92.832c1.347 0 2.608-.212 3.783-.634 1.175-.422 2.191-.944 3.05-1.564.857-.62 1.537-1.28 2.039-1.98.502-.7.752-1.327.752-1.882 0-.66-.244-1.201-.732-1.623-.489-.423-.997-.634-1.525-.634-.555 0-.997.191-1.327.574-.33.383-.726.812-1.188 1.287-.462.475-1.056.905-1.782 1.287-.726.383-1.75.575-3.07.575-.818 0-1.597-.152-2.336-.456-.74-.303-1.386-.72-1.94-1.247-.555-.528-1.004-1.149-1.347-1.862-.343-.713-.528-1.478-.555-2.297h14.733c.554 0 1.03-.191 1.426-.574.396-.383.594-.851.594-1.406-.053-.607-.251-1.346-.594-2.218-.396-.977-.905-1.888-1.525-2.732-.62-.845-1.347-1.571-2.178-2.179-.832-.607-1.776-1.089-2.832-1.445-1.056-.357-2.205-.535-3.445-.535-1.505 0-2.911.284-4.218.852-1.307.567-2.45 1.333-3.426 2.297-.977.963-1.75 2.099-2.317 3.406-.567 1.307-.851 2.712-.851 4.217 0 1.505.284 2.911.851 4.218.568 1.307 1.34 2.442 2.317 3.406.977.964 2.119 1.73 3.426 2.297 1.307.568 2.713.852 4.218.852zm5.624-13.545H142.02c.396-1.109 1.096-2.053 2.099-2.832 1.003-.778 2.178-1.168 3.525-1.168 1.346 0 2.521.39 3.524 1.168 1.004.78 1.703 1.723 2.1 2.832zm16.555 20.555c.66 0 1.214-.218 1.663-.654.449-.436.673-.983.673-1.643V30.93c1.136-.264 2.12-.687 2.95-1.268.833-.58 1.526-1.267 2.08-2.059.555-.792.964-1.657 1.228-2.594.264-.937.396-1.908.396-2.911v-9.465c0-.66-.225-1.215-.673-1.664-.45-.449-1.004-.673-1.664-.673-.66 0-1.208.224-1.643.673-.436.45-.654 1.004-.654 1.664v9.505c0 .607-.119 1.175-.356 1.703-.238.528-.561.99-.97 1.386-.41.396-.878.706-1.406.93-.529.225-1.083.337-1.664.337-.607 0-1.175-.119-1.703-.356-.528-.238-.99-.555-1.386-.95-.396-.397-.706-.859-.93-1.387-.225-.528-.337-1.096-.337-1.703v-9.465c0-.66-.225-1.215-.674-1.664-.448-.449-1.003-.673-1.663-.673-.66 0-1.208.224-1.643.673-.436.45-.654 1.004-.654 1.664v9.465c0 1.03.165 2.007.495 2.93.33.925.792 1.763 1.386 2.516.594.752 1.3 1.419 2.12 2 .818.58 1.728 1.03 2.732 1.346v4.753c0 .66.218 1.207.653 1.643.436.436.984.654 1.644.654zm17.584-7.842c.66 0 1.201-.224 1.624-.673.422-.45.633-1.004.633-1.664v-12.87H192c.634 0 1.175-.225 1.624-.674.449-.449.673-.99.673-1.624 0-.634-.224-1.175-.673-1.624-.45-.449-.99-.673-1.624-.673h-2.337V4.673c0-.633-.224-1.175-.673-1.623-.449-.45-.99-.674-1.624-.674-.633 0-1.175.225-1.623.674-.45.448-.674.99-.674 1.623v5.624c-.633 0-1.175.224-1.623.673-.45.45-.674.99-.674 1.624 0 .634.225 1.175.674 1.624.448.449.99.673 1.623.673v12.871c0 .66.225 1.215.674 1.664.448.449 1.003.673 1.663.673zm18.297.832c1.505 0 2.91-.284 4.218-.852 1.307-.567 2.442-1.333 3.406-2.297.963-.964 1.73-2.099 2.297-3.406.567-1.307.851-2.713.851-4.218s-.284-2.91-.851-4.217c-.568-1.307-1.334-2.443-2.297-3.406-.964-.964-2.1-1.73-3.406-2.297-1.307-.568-2.713-.852-4.218-.852s-2.91.284-4.218.852c-1.307.567-2.449 1.333-3.426 2.297-.976.963-1.749 2.099-2.316 3.406-.568 1.307-.852 2.712-.852 4.217 0 1.505.284 2.911.852 4.218.567 1.307 1.34 2.442 2.316 3.406.977.964 2.12 1.73 3.426 2.297 1.307.568 2.713.852 4.218.852zm0-4.594c-.845 0-1.644-.165-2.396-.495-.753-.33-1.406-.773-1.96-1.327-.555-.555-.997-1.208-1.327-1.96-.33-.753-.495-1.552-.495-2.397 0-.844.165-1.643.495-2.396.33-.752.772-1.406 1.327-1.96.554-.554 1.207-.997 1.96-1.327.752-.33 1.551-.495 2.396-.495s1.644.165 2.396.495c.752.33 1.406.773 1.96 1.327.555.554.997 1.208 1.327 1.96.33.753.495 1.552.495 2.396 0 .845-.165 1.644-.495 2.396-.33.753-.772 1.406-1.327 1.96-.554.555-1.208.998-1.96 1.328-.752.33-1.551.495-2.396.495zm16.238 3.762c.633 0 1.175-.224 1.623-.673.45-.45.674-.99.674-1.624V21.03c0-.924.204-1.796.613-2.614.41-.819.958-1.538 1.644-2.159.687-.62 1.459-1.108 2.317-1.465.858-.356 1.75-.535 2.673-.535.687 0 1.267-.23 1.743-.693.475-.462.713-1.036.713-1.722 0-.687-.238-1.268-.713-1.743-.476-.475-1.056-.713-1.743-.713-.554 0-1.175.093-1.861.277-.687.185-1.373.436-2.06.753-.686.317-1.326.693-1.92 1.129-.594.435-1.063.89-1.406 1.366v-.317c0-.634-.231-1.175-.693-1.624-.462-.449-.997-.673-1.604-.673-.634 0-1.175.224-1.624.673-.449.45-.673.99-.673 1.624v15.208c0 .634.224 1.175.673 1.624.449.449.99.673 1.624.673z"/>
        <path fill="url(#prefix__a)" d="M32.936 2.563l12.628 31.119c.872 2.148.178 4.768-1.55 5.851-.49.307-1.03.467-1.58.467H11.486L26.677 2.563C27.55.415 29.657-.448 31.385.635c.67.42 1.213 1.096 1.551 1.928z"/>
        <path fill="#6979F8" d="M19.263 2.563L34.455 40H3.505C1.57 40 0 38.05 0 35.644c0-.682.129-1.354.376-1.962L13.004 2.563c.872-2.148 2.98-3.011 4.708-1.928.67.42 1.213 1.096 1.551 1.928z"/>
        <path fill="url(#prefix__b)" d="M22.97 11.711L34.455 40 11.485 40z"/>
    </g>
</svg>
